  0
SECTION
  2
HEADER
  9
$ACADVER
  1
AC1024
  9
$ACADMAINTVER
 70
6
  9
$DWGCODEPAGE
  3
ANSI_1252
  9
$LASTSAVEDBY
  1
ezdxf
  9
$INSBASE
 10
0.0
 20
0.0
 30
0.0
  9
$EXTMIN
 10
1e+20
 20
1e+20
 30
1e+20
  9
$EXTMAX
 10
-1e+20
 20
-1e+20
 30
-1e+20
  9
$LIMMIN
 10
0.0
 20
0.0
  9
$LIMMAX
 10
420.0
 20
297.0
  9
$ORTHOMODE
 70
0
  9
$REGENMODE
 70
1
  9
$FILLMODE
 70
1
  9
$QTEXTMODE
 70
0
  9
$MIRRTEXT
 70
1
  9
$LTSCALE
 40
1.0
  9
$ATTMODE
 70
1
  9
$TEXTSIZE
 40
2.5
  9
$TRACEWID
 40
1.0
  9
$TEXTSTYLE
  7
Standard
  9
$CLAYER
  8
0
  9
$CELTYPE
  6
ByLayer
  9
$CECOLOR
 62
256
  9
$CELTSCALE
 40
1.0
  9
$DISPSILH
 70
0
  9
$DIMSCALE
 40
1.0
  9
$DIMASZ
 40
2.5
  9
$DIMEXO
 40
0.625
  9
$DIMDLI
 40
3.75
  9
$DIMRND
 40
0.0
  9
$DIMDLE
 40
0.0
  9
$DIMEXE
 40
1.25
  9
$DIMTP
 40
0.0
  9
$DIMTM
 40
0.0
  9
$DIMTXT
 40
2.5
  9
$DIMCEN
 40
2.5
  9
$DIMTSZ
 40
0.0
  9
$DIMTOL
 70
0
  9
$DIMLIM
 70
0
  9
$DIMTIH
 70
0
  9
$DIMTOH
 70
0
  9
$DIMSE1
 70
0
  9
$DIMSE2
 70
0
  9
$DIMTAD
 70
1
  9
$DIMZIN
 70
8
  9
$DIMBLK
  1

  9
$DIMASO
 70
1
  9
$DIMSHO
 70
1
  9
$DIMPOST
  1

  9
$DIMAPOST
  1

  9
$DIMALT
 70
0
  9
$DIMALTD
 70
3
  9
$DIMALTF
 40
0.03937007874
  9
$DIMLFAC
 40
1.0
  9
$DIMTOFL
 70
1
  9
$DIMTVP
 40
0.0
  9
$DIMTIX
 70
0
  9
$DIMSOXD
 70
0
  9
$DIMSAH
 70
0
  9
$DIMBLK1
  1

  9
$DIMBLK2
  1

  9
$DIMSTYLE
  2
ISO-25
  9
$DIMCLRD
 70
0
  9
$DIMCLRE
 70
0
  9
$DIMCLRT
 70
0
  9
$DIMTFAC
 40
1.0
  9
$DIMGAP
 40
0.625
  9
$DIMJUST
 70
0
  9
$DIMSD1
 70
0
  9
$DIMSD2
 70
0
  9
$DIMTOLJ
 70
0
  9
$DIMTZIN
 70
8
  9
$DIMALTZ
 70
0
  9
$DIMALTTZ
 70
0
  9
$DIMUPT
 70
0
  9
$DIMDEC
 70
2
  9
$DIMTDEC
 70
2
  9
$DIMALTU
 70
2
  9
$DIMALTTD
 70
3
  9
$DIMTXSTY
  7
Standard
  9
$DIMAUNIT
 70
0
  9
$DIMADEC
 70
0
  9
$DIMALTRND
 40
0.0
  9
$DIMAZIN
 70
0
  9
$DIMDSEP
 70
44
  9
$DIMATFIT
 70
3
  9
$DIMFRAC
 70
0
  9
$DIMLDRBLK
  1

  9
$DIMLUNIT
 70
2
  9
$DIMLWD
 70
-2
  9
$DIMLWE
 70
-2
  9
$DIMTMOVE
 70
0
  9
$DIMFXL
 40
1.0
  9
$DIMFXLON
 70
0
  9
$DIMJOGANG
 40
0.785398163397
  9
$DIMTFILL
 70
0
  9
$DIMTFILLCLR
 70
0
  9
$DIMARCSYM
 70
0
  9
$DIMLTYPE
  6

  9
$DIMLTEX1
  6

  9
$DIMLTEX2
  6

  9
$DIMTXTDIRECTION
 70
0
  9
$LUNITS
 70
2
  9
$LUPREC
 70
4
  9
$SKETCHINC
 40
1.0
  9
$FILLETRAD
 40
10.0
  9
$AUNITS
 70
0
  9
$AUPREC
 70
2
  9
$MENU
  1
.
  9
$ELEVATION
 40
0.0
  9
$PELEVATION
 40
0.0
  9
$THICKNESS
 40
0.0
  9
$LIMCHECK
 70
0
  9
$CHAMFERA
 40
0.0
  9
$CHAMFERB
 40
0.0
  9
$CHAMFERC
 40
0.0
  9
$CHAMFERD
 40
0.0
  9
$SKPOLY
 70
0
  9
$TDCREATE
 40
2461074.5579050924
  9
$TDUCREATE
 40
2458532.153996898
  9
$TDUPDATE
 40
2461074.5579050924
  9
$TDUUPDATE
 40
2458532.1544311
  9
$TDINDWG
 40
0.0
  9
$TDUSRTIMER
 40
0.0
  9
$USRTIMER
 70
1
  9
$ANGBASE
 50
0.0
  9
$ANGDIR
 70
0
  9
$PDMODE
 70
0
  9
$PDSIZE
 40
0.0
  9
$PLINEWID
 40
0.0
  9
$SPLFRAME
 70
0
  9
$SPLINETYPE
 70
6
  9
$SPLINESEGS
 70
8
  9
$HANDSEED
  5
6A
  9
$SURFTAB1
 70
6
  9
$SURFTAB2
 70
6
  9
$SURFTYPE
 70
6
  9
$SURFU
 70
6
  9
$SURFV
 70
6
  9
$UCSBASE
  2

  9
$UCSNAME
  2

  9
$UCSORG
 10
0.0
 20
0.0
 30
0.0
  9
$UCSXDIR
 10
1.0
 20
0.0
 30
0.0
  9
$UCSYDIR
 10
0.0
 20
1.0
 30
0.0
  9
$UCSORTHOREF
  2

  9
$UCSORTHOVIEW
 70
0
  9
$UCSORGTOP
 10
0.0
 20
0.0
 30
0.0
  9
$UCSORGBOTTOM
 10
0.0
 20
0.0
 30
0.0
  9
$UCSORGLEFT
 10
0.0
 20
0.0
 30
0.0
  9
$UCSORGRIGHT
 10
0.0
 20
0.0
 30
0.0
  9
$UCSORGFRONT
 10
0.0
 20
0.0
 30
0.0
  9
$UCSORGBACK
 10
0.0
 20
0.0
 30
0.0
  9
$PUCSBASE
  2

  9
$PUCSNAME
  2

  9
$PUCSORG
 10
0.0
 20
0.0
 30
0.0
  9
$PUCSXDIR
 10
1.0
 20
0.0
 30
0.0
  9
$PUCSYDIR
 10
0.0
 20
1.0
 30
0.0
  9
$PUCSORTHOREF
  2

  9
$PUCSORTHOVIEW
 70
0
  9
$PUCSORGTOP
 10
0.0
 20
0.0
 30
0.0
  9
$PUCSORGBOTTOM
 10
0.0
 20
0.0
 30
0.0
  9
$PUCSORGLEFT
 10
0.0
 20
0.0
 30
0.0
  9
$PUCSORGRIGHT
 10
0.0
 20
0.0
 30
0.0
  9
$PUCSORGFRONT
 10
0.0
 20
0.0
 30
0.0
  9
$PUCSORGBACK
 10
0.0
 20
0.0
 30
0.0
  9
$USERI1
 70
0
  9
$USERI2
 70
0
  9
$USERI3
 70
0
  9
$USERI4
 70
0
  9
$USERI5
 70
0
  9
$USERR1
 40
0.0
  9
$USERR2
 40
0.0
  9
$USERR3
 40
0.0
  9
$USERR4
 40
0.0
  9
$USERR5
 40
0.0
  9
$WORLDVIEW
 70
1
  9
$SHADEDGE
 70
3
  9
$SHADEDIF
 70
70
  9
$TILEMODE
 70
1
  9
$MAXACTVP
 70
64
  9
$PINSBASE
 10
0.0
 20
0.0
 30
0.0
  9
$PLIMCHECK
 70
0
  9
$PEXTMIN
 10
1e+20
 20
1e+20
 30
1e+20
  9
$PEXTMAX
 10
-1e+20
 20
-1e+20
 30
-1e+20
  9
$PLIMMIN
 10
0.0
 20
0.0
  9
$PLIMMAX
 10
420.0
 20
297.0
  9
$UNITMODE
 70
0
  9
$VISRETAIN
 70
1
  9
$PLINEGEN
 70
0
  9
$PSLTSCALE
 70
1
  9
$TREEDEPTH
 70
3020
  9
$CMLSTYLE
  2
Standard
  9
$CMLJUST
 70
0
  9
$CMLSCALE
 40
20.0
  9
$PROXYGRAPHICS
 70
1
  9
$MEASUREMENT
 70
1
  9
$CELWEIGHT
370
-1
  9
$ENDCAPS
280
0
  9
$JOINSTYLE
280
0
  9
$LWDISPLAY
290
0
  9
$INSUNITS
 70
6
  9
$HYPERLINKBASE
  1

  9
$STYLESHEET
  1

  9
$XEDIT
290
1
  9
$CEPSNTYPE
380
0
  9
$PSTYLEMODE
290
1
  9
$FINGERPRINTGUID
  2
{84410929-4A18-44D6-B2C6-3CA36CEC81CF}
  9
$VERSIONGUID
  2
{782274ED-5921-4E6F-B68D-55CFAC92CCA7}
  9
$EXTNAMES
290
1
  9
$PSVPSCALE
 40
0.0
  9
$OLESTARTUP
290
0
  9
$SORTENTS
280
127
  9
$INDEXCTL
280
0
  9
$HIDETEXT
280
1
  9
$XCLIPFRAME
280
1
  9
$HALOGAP
280
0
  9
$OBSCOLOR
 70
257
  9
$OBSLTYPE
280
0
  9
$INTERSECTIONDISPLAY
280
0
  9
$INTERSECTIONCOLOR
 70
257
  9
$DIMASSOC
280
2
  9
$PROJECTNAME
  1

  9
$CAMERADISPLAY
290
0
  9
$LENSLENGTH
 40
50.0
  9
$CAMERAHEIGHT
 40
0.0
  9
$STEPSPERSEC
 40
24.0
  9
$STEPSIZE
 40
100.0
  9
$3DDWFPREC
 40
2.0
  9
$PSOLWIDTH
 40
0.005
  9
$PSOLHEIGHT
 40
0.08
  9
$LOFTANG1
 40
1.570796326795
  9
$LOFTANG2
 40
1.570796326795
  9
$LOFTMAG1
 40
0.0
  9
$LOFTMAG2
 40
0.0
  9
$LOFTPARAM
 70
7
  9
$LOFTNORMALS
280
1
  9
$LATITUDE
 40
37.795
  9
$LONGITUDE
 40
-122.394
  9
$NORTHDIRECTION
 40
0.0
  9
$TIMEZONE
 70
-8000
  9
$LIGHTGLYPHDISPLAY
280
1
  9
$TILEMODELIGHTSYNCH
280
1
  9
$CMATERIAL
347
20
  9
$SOLIDHIST
280
0
  9
$SHOWHIST
280
1
  9
$DWFFRAME
280
2
  9
$DGNFRAME
280
2
  9
$REALWORLDSCALE
290
1
  9
$INTERFERECOLOR
 62
256
  9
$CSHADOW
280
0
  9
$SHADOWPLANELOCATION
 40
0.0
  0
ENDSEC
  0
SECTION
  2
CLASSES
  0
CLASS
  1
ACDBDICTIONARYWDFLT
  2
AcDbDictionaryWithDefault
  3
ObjectDBX Classes
 90
0
 91
0
280
0
281
0
  0
CLASS
  1
SUN
  2
AcDbSun
  3
SCENEOE
 90
1153
 91
0
280
0
281
0
  0
CLASS
  1
VISUALSTYLE
  2
AcDbVisualStyle
  3
ObjectDBX Classes
 90
4095
 91
0
280
0
281
0
  0
CLASS
  1
MATERIAL
  2
AcDbMaterial
  3
ObjectDBX Classes
 90
1153
 91
0
280
0
281
0
  0
CLASS
  1
SCALE
  2
AcDbScale
  3
ObjectDBX Classes
 90
1153
 91
0
280
0
281
0
  0
CLASS
  1
TABLESTYLE
  2
AcDbTableStyle
  3
ObjectDBX Classes
 90
4095
 91
0
280
0
281
0
  0
CLASS
  1
MLEADERSTYLE
  2
AcDbMLeaderStyle
  3
ACDB_MLEADERSTYLE_CLASS
 90
4095
 91
0
280
0
281
0
  0
CLASS
  1
DICTIONARYVAR
  2
AcDbDictionaryVar
  3
ObjectDBX Classes
 90
0
 91
0
280
0
281
0
  0
CLASS
  1
CELLSTYLEMAP
  2
AcDbCellStyleMap
  3
ObjectDBX Classes
 90
1152
 91
0
280
0
281
0
  0
CLASS
  1
MENTALRAYRENDERSETTINGS
  2
AcDbMentalRayRenderSettings
  3
SCENEOE
 90
1024
 91
0
280
0
281
0
  0
CLASS
  1
ACDBDETAILVIEWSTYLE
  2
AcDbDetailViewStyle
  3
ObjectDBX Classes
 90
1025
 91
0
280
0
281
0
  0
CLASS
  1
ACDBSECTIONVIEWSTYLE
  2
AcDbSectionViewStyle
  3
ObjectDBX Classes
 90
1025
 91
0
280
0
281
0
  0
CLASS
  1
RASTERVARIABLES
  2
AcDbRasterVariables
  3
ISM
 90
0
 91
0
280
0
281
0
  0
CLASS
  1
LAYOUT
  2
AcDbLayout
  3
ObjectDBX Classes
 90
0
 91
0
280
0
281
0
  0
CLASS
  1
ACDBPLACEHOLDER
  2
AcDbPlaceHolder
  3
ObjectDBX Classes
 90
0
 91
0
280
0
281
0
  0
ENDSEC
  0
SECTION
  2
TABLES
  0
TABLE
  2
VPORT
  5
8
330
0
100
AcDbSymbolTable
 70
1
  0
VPORT
  5
23
330
8
100
AcDbSymbolTableRecord
100
AcDbViewportTableRecord
  2
*Active
 70
0
 10
0.0
 20
0.0
 11
1.0
 21
1.0
 12
0.0
 22
0.0
 13
0.0
 23
0.0
 14
0.5
 24
0.5
 15
0.5
 25
0.5
 16
0.0
 26
0.0
 36
1.0
 17
0.0
 27
0.0
 37
0.0
 40
1000.0
 41
1.34
 42
50.0
 43
0.0
 44
0.0
 50
0.0
 51
0.0
 71
0
 72
1000
 73
1
 74
3
 75
0
 76
0
 77
0
 78
0
281
0
 65
0
146
0.0
  0
ENDTAB
  0
TABLE
  2
LTYPE
  5
2
330
0
100
AcDbSymbolTable
 70
3
  0
LTYPE
  5
24
330
2
100
AcDbSymbolTableRecord
100
AcDbLinetypeTableRecord
  2
ByBlock
 70
0
  3

 72
65
 73
0
 40
0.0
  0
LTYPE
  5
25
330
2
100
AcDbSymbolTableRecord
100
AcDbLinetypeTableRecord
  2
ByLayer
 70
0
  3

 72
65
 73
0
 40
0.0
  0
LTYPE
  5
26
330
2
100
AcDbSymbolTableRecord
100
AcDbLinetypeTableRecord
  2
Continuous
 70
0
  3

 72
65
 73
0
 40
0.0
  0
ENDTAB
  0
TABLE
  2
LAYER
  5
1
330
0
100
AcDbSymbolTable
 70
4
  0
LAYER
  5
27
330
1
100
AcDbSymbolTableRecord
100
AcDbLayerTableRecord
  2
0
 70
0
 62
7
  6
Continuous
370
-3
390
13
347
21
  0
LAYER
  5
28
330
1
100
AcDbSymbolTableRecord
100
AcDbLayerTableRecord
  2
Defpoints
 70
0
 62
7
  6
Continuous
290
0
370
-3
390
13
347
21
  0
LAYER
  5
2F
330
1
100
AcDbSymbolTableRecord
100
AcDbLayerTableRecord
  2
FLOOR
 70
0
 62
8
  6
Continuous
370
-3
390
13
347
21
  0
LAYER
  5
30
330
1
100
AcDbSymbolTableRecord
100
AcDbLayerTableRecord
  2
WALLS
 70
0
 62
7
  6
Continuous
370
-3
390
13
347
21
  0
ENDTAB
  0
TABLE
  2
STYLE
  5
5
330
0
100
AcDbSymbolTable
 70
1
  0
STYLE
  5
29
330
5
100
AcDbSymbolTableRecord
100
AcDbTextStyleTableRecord
  2
Standard
 70
0
 40
0.0
 41
1.0
 50
0.0
 71
0
 42
2.5
  3
txt
  4

  0
ENDTAB
  0
TABLE
  2
VIEW
  5
7
330
0
100
AcDbSymbolTable
 70
0
  0
ENDTAB
  0
TABLE
  2
UCS
  5
6
330
0
100
AcDbSymbolTable
 70
0
  0
ENDTAB
  0
TABLE
  2
APPID
  5
3
330
0
100
AcDbSymbolTable
 70
3
  0
APPID
  5
2A
330
3
100
AcDbSymbolTableRecord
100
AcDbRegAppTableRecord
  2
ACAD
 70
0
  0
APPID
  5
67
330
3
100
AcDbSymbolTableRecord
100
AcDbRegAppTableRecord
  2
HATCHBACKGROUNDCOLOR
 70
0
  0
APPID
  5
68
330
3
100
AcDbSymbolTableRecord
100
AcDbRegAppTableRecord
  2
EZDXF
 70
0
  0
ENDTAB
  0
TABLE
  2
DIMSTYLE
  5
4
330
0
100
AcDbSymbolTable
 70
1
100
AcDbDimStyleTable
  0
DIMSTYLE
105
2B
330
4
100
AcDbSymbolTableRecord
100
AcDbDimStyleTableRecord
  2
Standard
 70
0
 40
1.0
 41
2.5
 42
0.625
 43
3.75
 44
1.25
 45
0.0
 46
0.0
 47
0.0
 48
0.0
 49
2.5
140
2.5
141
2.5
142
0.0
143
0.03937007874
144
1.0
145
0.0
146
1.0
147
0.625
148
0.0
 69
0
 70
0
 71
0
 72
0
 73
0
 74
0
 75
0
 76
0
 77
1
 78
8
 79
3
170
0
171
3
172
1
173
0
174
0
175
0
176
0
177
0
178
0
179
2
271
2
272
2
273
2
274
3
275
0
276
0
277
2
278
44
279
0
280
0
281
0
282
0
283
0
284
8
285
0
286
0
288
0
289
3
290
0
371
-2
372
-2
  0
ENDTAB
  0
TABLE
  2
BLOCK_RECORD
  5
9
330
0
100
AcDbSymbolTable
 70
2
  0
BLOCK_RECORD
  5
17
330
9
100
AcDbSymbolTableRecord
100
AcDbBlockTableRecord
  2
*Model_Space
340
1A
 70
0
280
1
281
0
  0
BLOCK_RECORD
  5
1B
330
9
100
AcDbSymbolTableRecord
100
AcDbBlockTableRecord
  2
*Paper_Space
340
1E
 70
0
280
1
281
0
  0
ENDTAB
  0
ENDSEC
  0
SECTION
  2
BLOCKS
  0
BLOCK
  5
18
330
17
100
AcDbEntity
  8
0
100
AcDbBlockBegin
  2
*Model_Space
 70
0
 10
0.0
 20
0.0
 30
0.0
  3
*Model_Space
  1

  0
ENDBLK
  5
19
330
17
100
AcDbEntity
  8
0
100
AcDbBlockEnd
  0
BLOCK
  5
1C
330
1B
100
AcDbEntity
  8
0
100
AcDbBlockBegin
  2
*Paper_Space
 70
0
 10
0.0
 20
0.0
 30
0.0
  3
*Paper_Space
  1

  0
ENDBLK
  5
1D
330
1B
100
AcDbEntity
  8
0
100
AcDbBlockEnd
  0
ENDSEC
  0
SECTION
  2
ENTITIES
  0
LWPOLYLINE
  5
31
330
17
100
AcDbEntity
  8
FLOOR
 62
8
100
AcDbPolyline
 90
41
 70
1
 10
-2.5137879848480225
 20
3.981761932373047
 10
-2.5137879848480225
 20
17.979001998901367
 10
-26.205774307250977
 20
17.979001998901367
 10
-34.72827911376953
 20
10.629372596740723
 10
-34.72827911376953
 20
3.982570171356201
 10
-30.04908561706543
 20
-15.091229438781738
 10
-18.14177703857422
 20
-23.96051025390625
 10
-16.94115447998047
 20
-23.960512161254883
 10
-13.339290618896484
 20
-23.960512161254883
 10
-14.539912223815918
 20
-23.96051025390625
 10
-18.457805633544922
 20
-25.336767196655273
 10
-18.457805633544922
 20
-37.091007232666016
 10
-0.38306573033332825
 20
-40.781585693359375
 10
2.234278917312622
 20
-40.54204559326172
 10
3.5429513454437256
 20
-40.422279357910156
 10
4.85162353515625
 20
-40.30250930786133
 10
6.1602959632873535
 20
-40.182743072509766
 10
7.468968391418457
 20
-40.06297302246094
 10
10.086313247680664
 20
-39.82344055175781
 10
12.703658103942871
 20
-39.583900451660156
 10
14.012330055236816
 20
-39.464134216308594
 10
16.629674911499023
 20
-39.22459411621094
 10
17.93834686279297
 20
-39.10483169555664
 10
20.555692672729492
 20
-38.865291595458984
 10
21.864364624023438
 20
-38.74552536010742
 10
24.481708526611328
 20
-38.505985260009766
 10
28.407726287841797
 20
-38.14668655395508
 10
31.02507209777832
 20
-37.90714645385742
 10
32.333744049072266
 20
-37.78738021850586
 10
34.951087951660156
 20
-37.5478401184082
 10
34.951087951660156
 20
-16.049592971801758
 10
30.29220962524414
 20
-16.049592971801758
 10
30.29220962524414
 20
-12.399968147277832
 10
28.01883888244629
 20
-12.399968147277832
 10
19.42489242553711
 20
-12.399968147277832
 10
17.151521682739258
 20
-12.399968147277832
 10
8.557572364807129
 20
-12.399968147277832
 10
6.28420352935791
 20
-12.399968147277832
 10
-2.523829460144043
 20
-12.399968147277832
 10
-4.79719877243042
 20
-12.399968147277832
 10
-7.152124404907227
 20
2.729802131652832
  0
LWPOLYLINE
  5
32
330
17
100
AcDbEntity
  8
WALLS
 62
7
100
AcDbPolyline
 90
4
 70
1
 10
27.488649368286133
 20
-21.28990936279297
 10
19.31267547607422
 20
-21.28990936279297
 10
19.31267547607422
 20
-21.391855239868164
 10
27.488649368286133
 20
-21.391855239868164
  0
LWPOLYLINE
  5
33
330
17
100
AcDbEntity
  8
WALLS
 62
7
100
AcDbPolyline
 90
4
 70
1
 10
-10.327858924865723
 20
3.981761932373047
 10
-11.158709526062012
 20
3.981761932373047
 10
-9.497008323669434
 20
2.381228446960449
 10
-9.497008323669434
 20
3.981761932373047
  0
LWPOLYLINE
  5
34
330
17
100
AcDbEntity
  8
WALLS
 62
7
100
AcDbPolyline
 90
4
 70
1
 10
-15.216113090515137
 20
2.381227970123291
 10
-13.554412841796875
 20
2.381227970123291
 10
-13.554412841796875
 20
3.9817612171173096
 10
-15.216113090515137
 20
3.981761932373047
  0
LWPOLYLINE
  5
35
330
17
100
AcDbEntity
  8
WALLS
 62
7
100
AcDbPolyline
 90
4
 70
1
 10
5.305455207824707
 20
-32.674598693847656
 10
5.305455207824707
 20
-30.709609985351562
 10
5.121954917907715
 20
-30.709609985351562
 10
5.305455207824707
 20
-33.32958984375
  0
LWPOLYLINE
  5
36
330
17
100
AcDbEntity
  8
WALLS
 62
7
100
AcDbPolyline
 90
4
 70
1
 10
22.101882934570312
 20
-35.40926742553711
 10
21.677793502807617
 20
-35.40926742553711
 10
25.918699264526367
 20
-35.51121139526367
 10
25.918699264526367
 20
-35.40926742553711
  0
LWPOLYLINE
  5
37
330
17
100
AcDbEntity
  8
WALLS
 62
7
100
AcDbPolyline
 90
4
 70
1
 10
3.4705259799957275
 20
-18.12926483154297
 10
-1.779632329940796
 20
-18.12926483154297
 10
3.4705259799957275
 20
-23.379423141479492
 10
3.4705259799957275
 20
-23.379425048828125
  0
LWPOLYLINE
  5
38
330
17
100
AcDbEntity
  8
WALLS
 62
7
100
AcDbPolyline
 90
8
 70
1
 10
-11.92538070678711
 20
-23.960512161254883
 10
-7.4784255027771
 20
-25.336767196655273
 10
-6.673061370849609
 20
-27.00901222229004
 10
-6.673061370849609
 20
-25.33711814880371
 10
-5.103111267089844
 20
-25.33711814880371
 10
-5.103111267089844
 20
-24.76622772216797
 10
-6.672983646392822
 20
-24.76622772216797
 10
-6.672983646392822
 20
-23.960512161254883
  0
LWPOLYLINE
  5
39
330
17
100
AcDbEntity
  8
WALLS
 62
7
100
AcDbPolyline
 90
3
 70
1
 10
3.4704487323760986
 20
-25.000699996948242
 10
3.3685038089752197
 20
-25.000699996948242
 10
3.4704487323760986
 20
-26.78473472595215
  0
LWPOLYLINE
  5
3A
330
17
100
AcDbEntity
  8
WALLS
 62
7
100
AcDbPolyline
 90
4
 70
1
 10
9.281303405761719
 20
-33.100948333740234
 10
9.281303405761719
 20
-32.299949645996094
 10
9.17935848236084
 20
-32.299949645996094
 10
9.281303405761719
 20
-35.103431701660156
  0
LWPOLYLINE
  5
3B
330
17
100
AcDbEntity
  8
WALLS
 62
7
100
AcDbPolyline
 90
3
 70
1
 10
14.959630966186523
 20
-33.69511795043945
 10
19.190340042114258
 20
-33.79825973510742
 10
19.190340042114258
 20
-33.69511795043945
  0
LWPOLYLINE
  5
3C
330
17
100
AcDbEntity
  8
WALLS
 62
7
100
AcDbPolyline
 90
3
 70
1
 10
20.5564022064209
 20
-30.515914916992188
 10
20.454456329345703
 20
-30.515914916992188
 10
20.5564022064209
 20
-34.76701354980469
  0
LWPOLYLINE
  5
3D
330
17
100
AcDbEntity
  8
WALLS
 62
7
100
AcDbPolyline
 90
4
 70
1
 10
9.03014850616455
 20
-30.923694610595703
 10
8.588078498840332
 20
-30.923694610595703
 10
13.450847625732422
 20
-31.0256404876709
 10
13.450847625732422
 20
-30.923694610595703
  0
LWPOLYLINE
  5
3E
330
17
100
AcDbEntity
  8
WALLS
 62
7
100
AcDbPolyline
 90
4
 70
1
 10
11.415348052978516
 20
-23.563276290893555
 10
11.014366149902344
 20
-23.563276290893555
 10
13.420263290405273
 20
-23.66522216796875
 10
13.420263290405273
 20
-23.563276290893555
  0
LWPOLYLINE
  5
3F
330
17
100
AcDbEntity
  8
WALLS
 62
7
100
AcDbPolyline
 90
3
 70
1
 10
9.24052619934082
 20
-22.03410530090332
 10
9.138580322265625
 20
-22.03410530090332
 10
9.24052619934082
 20
-25.051673889160156
  0
LWPOLYLINE
  5
40
330
17
100
AcDbEntity
  8
WALLS
 62
7
100
AcDbPolyline
 90
5
 70
1
 10
8.119132995605469
 20
-21.014657974243164
 10
8.119132995605469
 20
-20.9127140045166
 10
5.5807061195373535
 20
-20.91271209716797
 10
5.157635688781738
 20
-20.9127140045166
 10
4.734564781188965
 20
-20.91271209716797
  0
LWPOLYLINE
  5
41
330
17
100
AcDbEntity
  8
WALLS
 62
7
100
AcDbPolyline
 90
4
 70
1
 10
8.812357902526855
 20
-19.505874633789062
 10
8.812357902526855
 20
-18.160200119018555
 10
8.710412979125977
 20
-18.160200119018555
 10
8.812357902526855
 20
-19.95443344116211
  0
LWPOLYLINE
  5
42
330
17
100
AcDbEntity
  8
WALLS
 62
7
100
AcDbPolyline
 90
4
 70
1
 10
11.427241325378418
 20
-20.117542266845703
 10
11.004171371459961
 20
-20.117542266845703
 10
15.234881401062012
 20
-20.219486236572266
 10
15.234881401062012
 20
-20.117542266845703
  0
LWPOLYLINE
  5
43
330
17
100
AcDbEntity
  8
WALLS
 62
7
100
AcDbPolyline
 90
3
 70
1
 10
17.83447265625
 20
-20.54570960998535
 10
17.73253059387207
 20
-20.54570960998535
 10
17.83447265625
 20
-23.971057891845703
  0
LWPOLYLINE
  5
44
330
17
100
AcDbEntity
  8
WALLS
 62
7
100
AcDbPolyline
 90
4
 70
1
 10
16.58055305480957
 20
-19.505874633789062
 10
16.58055305480957
 20
-18.160200119018555
 10
16.478609085083008
 20
-18.160200119018555
 10
16.58055305480957
 20
-19.95443344116211
  0
LWPOLYLINE
  5
45
330
17
100
AcDbEntity
  8
WALLS
 62
7
100
AcDbPolyline
 90
3
 70
1
 10
27.488649368286133
 20
-18.547590255737305
 10
27.386703491210938
 20
-18.547590255737305
 10
27.488649368286133
 20
-20.53551483154297
  0
LWPOLYLINE
  5
46
330
17
100
AcDbEntity
  8
WALLS
 62
7
100
AcDbPolyline
 90
3
 70
1
 10
24.267192840576172
 20
-23.532691955566406
 10
24.165246963500977
 20
-23.532691955566406
 10
24.267192840576172
 20
-27.43718147277832
  0
LWPOLYLINE
  5
47
330
17
100
AcDbEntity
  8
WALLS
 62
7
100
AcDbPolyline
 90
4
 70
1
 10
24.156509399414062
 20
-30.91349983215332
 10
23.75746726989746
 20
-30.91349983215332
 10
26.550756454467773
 20
-31.015443801879883
 10
26.550756454467773
 20
-30.91349983215332
  0
LWPOLYLINE
  5
48
330
17
100
AcDbEntity
  8
WALLS
 62
7
100
AcDbPolyline
 90
3
 70
1
 10
19.465591430664062
 20
-25.133230209350586
 10
19.3636474609375
 20
-25.133230209350586
 10
19.465591430664062
 20
-26.91726303100586
  0
LWPOLYLINE
  5
49
330
17
100
AcDbEntity
  8
WALLS
 62
7
100
AcDbPolyline
 90
5
 70
1
 10
-1.5299450159072876
 20
-24.76622772216797
 10
-2.6768243312835693
 20
-24.76622772216797
 10
-0.5461774468421936
 20
-25.33711814880371
 10
-0.38306576013565063
 20
-26.78473472595215
 10
-0.38306576013565063
 20
-24.76622772216797
  0
LWPOLYLINE
  5
4A
330
17
100
AcDbEntity
  8
WALLS
 62
7
100
AcDbPolyline
 90
17
 70
1
 10
-21.52642250061035
 20
0.25103673338890076
 10
-21.679338455200195
 20
0.25103673338890076
 10
-21.28167724609375
 20
-4.397647857666016
 10
-21.28167724609375
 20
-6.160943031311035
 10
-21.679262161254883
 20
-6.160943031311035
 10
-20.267837524414062
 20
-6.976389408111572
 10
-18.141929626464844
 20
-10.044928550720215
 10
-18.141929626464844
 20
-2.5825672149658203
 10
-13.951921463012695
 20
-2.5825672149658203
 10
-13.951921463012695
 20
-0.5436704158782959
 10
-18.141929626464844
 20
-0.5436704158782959
 10
-18.141929626464844
 20
0.7918063998222351
 10
-20.221450805664062
 20
0.7918063998222351
 10
-20.221450805664062
 20
-1.3644400835037231
 10
-21.332727432250977
 20
-1.3647897243499756
 10
-21.332727432250977
 20
-0.9315239787101746
 10
-21.52642250061035
 20
-0.9315239787101746
  0
LWPOLYLINE
  5
4B
330
17
100
AcDbEntity
  8
WALLS
 62
7
100
AcDbPolyline
 90
55
 70
1
 10
-6.368907928466797
 20
-37.39515686035156
 10
-6.368907928466797
 20
-35.14217758178711
 10
-4.798880577087402
 20
-35.14217758178711
 10
-4.798880577087402
 20
-33.20522689819336
 10
-0.6872189044952393
 20
-33.20522689819336
 10
-0.6872189044952393
 20
-41.11484146118164
 10
3.5201780796051025
 20
-40.72978591918945
 10
7.727575302124023
 20
-40.34473419189453
 10
11.934971809387207
 20
-39.95967483520508
 10
20.34976577758789
 20
-39.1895637512207
 10
24.55716323852539
 20
-38.80450439453125
 10
28.76456069946289
 20
-38.41945266723633
 10
28.908994674682617
 20
-38.40623092651367
 10
29.27100372314453
 20
-38.373104095458984
 10
29.27100372314453
 20
-38.371421813964844
 10
32.26312255859375
 20
-38.08372116088867
 10
35.25524139404297
 20
-37.796016693115234
 10
35.25524139404297
 20
-15.745439529418945
 10
30.596363067626953
 20
-15.745439529418945
 10
30.596363067626953
 20
-12.09581470489502
 10
27.71468734741211
 20
-12.09581470489502
 10
27.71468734741211
 20
-15.745439529418945
 10
19.72904396057129
 20
-15.745439529418945
 10
19.72904396057129
 20
-12.09581470489502
 10
16.847368240356445
 20
-12.09581470489502
 10
16.847368240356445
 20
-15.745439529418945
 10
8.861725807189941
 20
-15.745439529418945
 10
8.861725807189941
 20
-12.09581470489502
 10
5.980050086975098
 20
-12.09581470489502
 10
5.980050086975098
 20
-15.745439529418945
 10
-2.2196762561798096
 20
-15.745439529418945
 10
-2.2196762561798096
 20
-12.09581470489502
 10
-5.101352214813232
 20
-12.09581470489502
 10
-5.101352214813232
 20
-15.745439529418945
 10
-6.847971439361572
 20
-15.745439529418945
 10
-6.847971439361572
 20
3.677607536315918
 10
-2.209634780883789
 20
3.677607536315918
 10
-2.209634780883789
 20
18.28315544128418
 10
-26.509929656982422
 20
18.28315544128418
 10
-26.509929656982422
 20
10.933525085449219
 10
-35.032432556152344
 20
10.933525085449219
 10
-17.915969848632812
 20
3.6784162521362305
 10
-17.915969848632812
 20
2.6862986087799072
 10
-23.72667121887207
 20
2.6862986087799072
 10
-23.72667121887207
 20
-0.5864047408103943
 10
-26.16315269470215
 20
-0.5864047408103943
 10
-22.962055206298828
 20
-2.754467725753784
 10
-22.962055206298828
 20
-6.672236919403076
 10
-30.35323715209961
 20
-6.672236919403076
 10
-19.968271255493164
 20
-15.39538288116455
 10
-19.968271255493164
 20
-12.261089324951172
 10
-18.44593048095703
 20
-11.911460876464844
 10
-13.876482963562012
 20
-24.264665603637695
 10
-14.337252616882324
 20
-25.03261375427246
 10
-18.7619571685791
 20
-25.03261375427246
  0
LWPOLYLINE
  5
4C
330
17
100
AcDbEntity
  8
WALLS
 62
7
100
AcDbPolyline
 90
4
 70
1
 10
27.488649368286133
 20
-21.391855239868164
 10
27.488649368286133
 20
-21.28990936279297
 10
19.312673568725586
 20
-21.28990936279297
 10
19.312673568725586
 20
-21.391855239868164
  0
LWPOLYLINE
  5
4D
330
17
100
AcDbEntity
  8
WALLS
 62
7
100
AcDbPolyline
 90
4
 70
1
 10
27.488649368286133
 20
-21.28990936279297
 10
19.31267547607422
 20
-21.28990936279297
 10
19.31267547607422
 20
-21.391855239868164
 10
27.488649368286133
 20
-21.391855239868164
  0
LWPOLYLINE
  5
4E
330
17
100
AcDbEntity
  8
WALLS
 62
7
100
AcDbPolyline
 90
4
 70
1
 10
-10.327858924865723
 20
3.981761932373047
 10
-11.158709526062012
 20
3.981761932373047
 10
-9.497008323669434
 20
2.381227970123291
 10
-9.497008323669434
 20
3.981761932373047
  0
LWPOLYLINE
  5
4F
330
17
100
AcDbEntity
  8
WALLS
 62
7
100
AcDbPolyline
 90
4
 70
1
 10
-14.385262489318848
 20
3.981761932373047
 10
-15.216113090515137
 20
3.981761932373047
 10
-13.554412841796875
 20
2.381227970123291
 10
-13.554412841796875
 20
3.981761932373047
  0
LWPOLYLINE
  5
50
330
17
100
AcDbEntity
  8
WALLS
 62
7
100
AcDbPolyline
 90
4
 70
1
 10
5.305455207824707
 20
-32.674598693847656
 10
5.305455207824707
 20
-30.709609985351562
 10
5.121954917907715
 20
-30.709609985351562
 10
5.305455207824707
 20
-33.32958984375
  0
LWPOLYLINE
  5
51
330
17
100
AcDbEntity
  8
WALLS
 62
7
100
AcDbPolyline
 90
4
 70
1
 10
22.101882934570312
 20
-35.40926742553711
 10
21.677793502807617
 20
-35.40926742553711
 10
25.918699264526367
 20
-35.51121139526367
 10
25.918699264526367
 20
-35.40926742553711
  0
LWPOLYLINE
  5
52
330
17
100
AcDbEntity
  8
WALLS
 62
7
100
AcDbPolyline
 90
4
 70
1
 10
3.4705259799957275
 20
-18.12926483154297
 10
-1.779632329940796
 20
-18.12926483154297
 10
3.4705259799957275
 20
-23.379423141479492
 10
3.4705259799957275
 20
-23.379425048828125
  0
LWPOLYLINE
  5
53
330
17
100
AcDbEntity
  8
WALLS
 62
7
100
AcDbPolyline
 90
8
 70
1
 10
-11.92538070678711
 20
-23.960512161254883
 10
-7.4784255027771
 20
-25.336767196655273
 10
-6.673061370849609
 20
-27.00901222229004
 10
-6.673061370849609
 20
-25.33711814880371
 10
-5.103111267089844
 20
-25.33711814880371
 10
-5.103111267089844
 20
-24.76622772216797
 10
-6.672983646392822
 20
-24.76622772216797
 10
-6.672983646392822
 20
-23.960512161254883
  0
LWPOLYLINE
  5
54
330
17
100
AcDbEntity
  8
WALLS
 62
7
100
AcDbPolyline
 90
3
 70
1
 10
3.4704487323760986
 20
-25.000699996948242
 10
3.3685038089752197
 20
-25.000699996948242
 10
3.4704487323760986
 20
-26.78473472595215
  0
LWPOLYLINE
  5
55
330
17
100
AcDbEntity
  8
WALLS
 62
7
100
AcDbPolyline
 90
4
 70
1
 10
9.281303405761719
 20
-33.100948333740234
 10
9.281303405761719
 20
-32.299949645996094
 10
9.17935848236084
 20
-32.299949645996094
 10
9.281303405761719
 20
-35.103431701660156
  0
LWPOLYLINE
  5
56
330
17
100
AcDbEntity
  8
WALLS
 62
7
100
AcDbPolyline
 90
3
 70
1
 10
14.959630966186523
 20
-33.69511795043945
 10
19.190340042114258
 20
-33.79825973510742
 10
19.190340042114258
 20
-33.69511795043945
  0
LWPOLYLINE
  5
57
330
17
100
AcDbEntity
  8
WALLS
 62
7
100
AcDbPolyline
 90
3
 70
1
 10
20.5564022064209
 20
-30.515914916992188
 10
20.454456329345703
 20
-30.515914916992188
 10
20.5564022064209
 20
-34.76701354980469
  0
LWPOLYLINE
  5
58
330
17
100
AcDbEntity
  8
WALLS
 62
7
100
AcDbPolyline
 90
4
 70
1
 10
9.03014850616455
 20
-30.923694610595703
 10
8.588078498840332
 20
-30.923694610595703
 10
13.450847625732422
 20
-31.0256404876709
 10
13.450847625732422
 20
-30.923694610595703
  0
LWPOLYLINE
  5
59
330
17
100
AcDbEntity
  8
WALLS
 62
7
100
AcDbPolyline
 90
4
 70
1
 10
11.415348052978516
 20
-23.563276290893555
 10
11.014366149902344
 20
-23.563276290893555
 10
13.420263290405273
 20
-23.66522216796875
 10
13.420263290405273
 20
-23.563276290893555
  0
LWPOLYLINE
  5
5A
330
17
100
AcDbEntity
  8
WALLS
 62
7
100
AcDbPolyline
 90
3
 70
1
 10
9.24052619934082
 20
-22.03410530090332
 10
9.138580322265625
 20
-22.03410530090332
 10
9.24052619934082
 20
-25.051673889160156
  0
LWPOLYLINE
  5
5B
330
17
100
AcDbEntity
  8
WALLS
 62
7
100
AcDbPolyline
 90
5
 70
1
 10
8.119132995605469
 20
-21.014657974243164
 10
8.119132995605469
 20
-20.9127140045166
 10
5.5807061195373535
 20
-20.91271209716797
 10
5.157635688781738
 20
-20.9127140045166
 10
4.734564781188965
 20
-20.91271209716797
  0
LWPOLYLINE
  5
5C
330
17
100
AcDbEntity
  8
WALLS
 62
7
100
AcDbPolyline
 90
4
 70
1
 10
8.812357902526855
 20
-19.505874633789062
 10
8.812357902526855
 20
-18.160200119018555
 10
8.710412979125977
 20
-18.160200119018555
 10
8.812357902526855
 20
-19.95443344116211
  0
LWPOLYLINE
  5
5D
330
17
100
AcDbEntity
  8
WALLS
 62
7
100
AcDbPolyline
 90
4
 70
1
 10
11.427241325378418
 20
-20.117542266845703
 10
11.004171371459961
 20
-20.117542266845703
 10
15.234881401062012
 20
-20.219486236572266
 10
15.234881401062012
 20
-20.117542266845703
  0
LWPOLYLINE
  5
5E
330
17
100
AcDbEntity
  8
WALLS
 62
7
100
AcDbPolyline
 90
3
 70
1
 10
17.83447265625
 20
-20.54570960998535
 10
17.73253059387207
 20
-20.54570960998535
 10
17.83447265625
 20
-23.971057891845703
  0
LWPOLYLINE
  5
5F
330
17
100
AcDbEntity
  8
WALLS
 62
7
100
AcDbPolyline
 90
4
 70
1
 10
16.58055305480957
 20
-19.505874633789062
 10
16.58055305480957
 20
-18.160200119018555
 10
16.478609085083008
 20
-18.160200119018555
 10
16.58055305480957
 20
-19.95443344116211
  0
LWPOLYLINE
  5
60
330
17
100
AcDbEntity
  8
WALLS
 62
7
100
AcDbPolyline
 90
3
 70
1
 10
27.488649368286133
 20
-18.547590255737305
 10
27.386703491210938
 20
-18.547590255737305
 10
27.488649368286133
 20
-20.53551483154297
  0
LWPOLYLINE
  5
61
330
17
100
AcDbEntity
  8
WALLS
 62
7
100
AcDbPolyline
 90
3
 70
1
 10
24.267192840576172
 20
-23.532691955566406
 10
24.165246963500977
 20
-23.532691955566406
 10
24.267192840576172
 20
-27.43718147277832
  0
LWPOLYLINE
  5
62
330
17
100
AcDbEntity
  8
WALLS
 62
7
100
AcDbPolyline
 90
4
 70
1
 10
24.156509399414062
 20
-30.91349983215332
 10
23.75746726989746
 20
-30.91349983215332
 10
26.550756454467773
 20
-31.015443801879883
 10
26.550756454467773
 20
-30.91349983215332
  0
LWPOLYLINE
  5
63
330
17
100
AcDbEntity
  8
WALLS
 62
7
100
AcDbPolyline
 90
3
 70
1
 10
19.465591430664062
 20
-25.133230209350586
 10
19.3636474609375
 20
-25.133230209350586
 10
19.465591430664062
 20
-26.91726303100586
  0
LWPOLYLINE
  5
64
330
17
100
AcDbEntity
  8
WALLS
 62
7
100
AcDbPolyline
 90
5
 70
1
 10
-1.5299450159072876
 20
-24.76622772216797
 10
-2.6768243312835693
 20
-24.76622772216797
 10
-0.5461774468421936
 20
-25.33711814880371
 10
-0.38306573033332825
 20
-26.78473472595215
 10
-0.38306573033332825
 20
-24.76622772216797
  0
LWPOLYLINE
  5
65
330
17
100
AcDbEntity
  8
WALLS
 62
7
100
AcDbPolyline
 90
17
 70
1
 10
-21.52642250061035
 20
0.25103646516799927
 10
-21.679338455200195
 20
0.25103646516799927
 10
-21.28167724609375
 20
-4.397648334503174
 10
-21.28167724609375
 20
-6.160943031311035
 10
-21.679262161254883
 20
-6.160943031311035
 10
-20.267837524414062
 20
-6.9763898849487305
 10
-18.141929626464844
 20
-10.044929504394531
 10
-18.141929626464844
 20
-2.582566976547241
 10
-13.951921463012695
 20
-2.582566976547241
 10
-13.951921463012695
 20
-0.5436704158782959
 10
-18.141929626464844
 20
-0.5436704158782959
 10
-18.141929626464844
 20
0.7918069362640381
 10
-20.221450805664062
 20
0.7918069362640381
 10
-20.221450805664062
 20
-1.364439606666565
 10
-21.332727432250977
 20
-1.3647892475128174
 10
-21.332727432250977
 20
-0.9315236210823059
 10
-21.52642250061035
 20
-0.9315236210823059
  0
LWPOLYLINE
  5
66
330
17
100
AcDbEntity
  8
WALLS
 62
7
100
AcDbPolyline
 90
55
 70
1
 10
-6.368907928466797
 20
-37.39515686035156
 10
-6.368907928466797
 20
-35.14217758178711
 10
-4.798880577087402
 20
-35.14217758178711
 10
-4.798880577087402
 20
-33.20522689819336
 10
-0.6872189044952393
 20
-33.20522689819336
 10
-0.6872189044952393
 20
-41.11484146118164
 10
3.5201780796051025
 20
-40.72978591918945
 10
7.727575302124023
 20
-40.34473419189453
 10
11.934971809387207
 20
-39.95967483520508
 10
20.34976577758789
 20
-39.1895637512207
 10
24.55716323852539
 20
-38.80450439453125
 10
28.76456069946289
 20
-38.41945266723633
 10
28.908994674682617
 20
-38.40623092651367
 10
29.27100372314453
 20
-38.373104095458984
 10
29.27100372314453
 20
-38.371421813964844
 10
32.26312255859375
 20
-38.08372116088867
 10
35.25524139404297
 20
-37.796016693115234
 10
35.25524139404297
 20
-15.745439529418945
 10
30.596363067626953
 20
-15.745439529418945
 10
30.596363067626953
 20
-12.09581470489502
 10
27.71468734741211
 20
-12.09581470489502
 10
27.71468734741211
 20
-15.745439529418945
 10
19.72904396057129
 20
-15.745439529418945
 10
19.72904396057129
 20
-12.09581470489502
 10
16.847368240356445
 20
-12.09581470489502
 10
16.847368240356445
 20
-15.745439529418945
 10
8.861725807189941
 20
-15.745439529418945
 10
8.861725807189941
 20
-12.09581470489502
 10
5.980050086975098
 20
-12.09581470489502
 10
5.980050086975098
 20
-15.745439529418945
 10
-2.2196762561798096
 20
-15.745439529418945
 10
-2.2196762561798096
 20
-12.09581470489502
 10
-5.101352214813232
 20
-12.09581470489502
 10
-5.101352214813232
 20
-15.745439529418945
 10
-6.847971439361572
 20
-15.745439529418945
 10
-6.847971439361572
 20
3.6776084899902344
 10
-2.209634780883789
 20
3.6776084899902344
 10
-2.209634780883789
 20
18.28315544128418
 10
-26.509929656982422
 20
18.28315544128418
 10
-26.509929656982422
 20
10.933526039123535
 10
-35.032432556152344
 20
10.933526039123535
 10
-17.915969848632812
 20
3.678417205810547
 10
-17.915969848632812
 20
2.686298370361328
 10
-23.72667121887207
 20
2.686298370361328
 10
-23.72667121887207
 20
-0.5864048600196838
 10
-26.16315269470215
 20
-0.5864048600196838
 10
-22.962055206298828
 20
-2.754467248916626
 10
-22.962055206298828
 20
-6.672236442565918
 10
-30.35323715209961
 20
-6.672236442565918
 10
-19.968271255493164
 20
-15.39538288116455
 10
-19.968271255493164
 20
-12.261090278625488
 10
-18.44593048095703
 20
-11.911460876464844
 10
-13.876482963562012
 20
-24.264665603637695
 10
-14.337252616882324
 20
-25.03261375427246
 10
-18.7619571685791
 20
-25.03261375427246
  0
ENDSEC
  0
SECTION
  2
OBJECTS
  0
DICTIONARY
  5
A
330
0
100
AcDbDictionary
281
1
  3
ACAD_COLOR
350
B
  3
ACAD_GROUP
350
C
  3
ACAD_LAYOUT
350
D
  3
ACAD_MATERIAL
350
E
  3
ACAD_MLEADERSTYLE
350
F
  3
ACAD_MLINESTYLE
350
10
  3
ACAD_PLOTSETTINGS
350
11
  3
ACAD_PLOTSTYLENAME
350
12
  3
ACAD_SCALELIST
350
14
  3
ACAD_TABLESTYLE
350
15
  3
ACAD_VISUALSTYLE
350
16
  3
EZDXF_META
350
2D
  0
DICTIONARY
  5
B
330
A
100
AcDbDictionary
281
1
  0
DICTIONARY
  5
C
330
A
100
AcDbDictionary
281
1
  0
DICTIONARY
  5
D
330
A
100
AcDbDictionary
281
1
  3
Model
350
1A
  3
Layout1
350
1E
  0
DICTIONARY
  5
E
330
A
100
AcDbDictionary
281
1
  3
ByBlock
350
1F
  3
ByLayer
350
20
  3
Global
350
21
  0
DICTIONARY
  5
F
330
A
100
AcDbDictionary
281
1
  3
Standard
350
2C
  0
DICTIONARY
  5
10
330
A
100
AcDbDictionary
281
1
  3
Standard
350
22
  0
DICTIONARY
  5
11
330
A
100
AcDbDictionary
281
1
  0
ACDBDICTIONARYWDFLT
  5
12
330
A
100
AcDbDictionary
281
1
  3
Normal
350
13
100
AcDbDictionaryWithDefault
340
13
  0
ACDBPLACEHOLDER
  5
13
330
12
  0
DICTIONARY
  5
14
330
A
100
AcDbDictionary
281
1
  0
DICTIONARY
  5
15
330
A
100
AcDbDictionary
281
1
  0
DICTIONARY
  5
16
330
A
100
AcDbDictionary
281
1
  0
LAYOUT
  5
1A
330
D
100
AcDbPlotSettings
  1

  4
A3
  6

 40
7.5
 41
20.0
 42
7.5
 43
20.0
 44
420.0
 45
297.0
 46
0.0
 47
0.0
 48
0.0
 49
0.0
140
0.0
141
0.0
142
1.0
143
1.0
 70
1024
 72
1
 73
0
 74
5
  7

 75
16
 76
0
 77
2
 78
300
147
1.0
148
0.0
149
0.0
100
AcDbLayout
  1
Model
 70
1
 71
0
 10
0.0
 20
0.0
 11
420.0
 21
297.0
 12
0.0
 22
0.0
 32
0.0
 14
1e+20
 24
1e+20
 34
1e+20
 15
-1e+20
 25
-1e+20
 35
-1e+20
146
0.0
 13
0.0
 23
0.0
 33
0.0
 16
1.0
 26
0.0
 36
0.0
 17
0.0
 27
1.0
 37
0.0
 76
1
330
17
  0
LAYOUT
  5
1E
330
D
100
AcDbPlotSettings
  1

  4
A3
  6

 40
7.5
 41
20.0
 42
7.5
 43
20.0
 44
420.0
 45
297.0
 46
0.0
 47
0.0
 48
0.0
 49
0.0
140
0.0
141
0.0
142
1.0
143
1.0
 70
0
 72
1
 73
0
 74
5
  7

 75
16
 76
0
 77
2
 78
300
147
1.0
148
0.0
149
0.0
100
AcDbLayout
  1
Layout1
 70
1
 71
1
 10
0.0
 20
0.0
 11
420.0
 21
297.0
 12
0.0
 22
0.0
 32
0.0
 14
1e+20
 24
1e+20
 34
1e+20
 15
-1e+20
 25
-1e+20
 35
-1e+20
146
0.0
 13
0.0
 23
0.0
 33
0.0
 16
1.0
 26
0.0
 36
0.0
 17
0.0
 27
1.0
 37
0.0
 76
1
330
1B
  0
MATERIAL
  5
1F
102
{ACAD_REACTORS
330
E
102
}
330
E
100
AcDbMaterial
  1
ByBlock
  2

 70
0
 40
1.0
 71
1
 41
1.0
 91
-1023410177
 42
1.0
 72
1
  3

 73
1
 74
1
 75
1
 44
0.5
 73
0
 45
1.0
 46
1.0
 77
1
  4

 78
1
 79
1
170
1
 48
1.0
171
1
  6

172
1
173
1
174
1
140
1.0
141
1.0
175
1
  7

176
1
177
1
178
1
143
1.0
179
1
  8

270
1
271
1
272
1
145
1.0
146
1.0
273
1
  9

274
1
275
1
276
1
 42
1.0
 72
1
  3

 73
1
 74
1
 75
1
 94
63
  0
MATERIAL
  5
20
102
{ACAD_REACTORS
330
E
102
}
330
E
100
AcDbMaterial
  1
ByLayer
  2

 70
0
 40
1.0
 71
1
 41
1.0
 91
-1023410177
 42
1.0
 72
1
  3

 73
1
 74
1
 75
1
 44
0.5
 73
0
 45
1.0
 46
1.0
 77
1
  4

 78
1
 79
1
170
1
 48
1.0
171
1
  6

172
1
173
1
174
1
140
1.0
141
1.0
175
1
  7

176
1
177
1
178
1
143
1.0
179
1
  8

270
1
271
1
272
1
145
1.0
146
1.0
273
1
  9

274
1
275
1
276
1
 42
1.0
 72
1
  3

 73
1
 74
1
 75
1
 94
63
  0
MATERIAL
  5
21
102
{ACAD_REACTORS
330
E
102
}
330
E
100
AcDbMaterial
  1
Global
  2

 70
0
 40
1.0
 71
1
 41
1.0
 91
-1023410177
 42
1.0
 72
1
  3

 73
1
 74
1
 75
1
 44
0.5
 73
0
 45
1.0
 46
1.0
 77
1
  4

 78
1
 79
1
170
1
 48
1.0
171
1
  6

172
1
173
1
174
1
140
1.0
141
1.0
175
1
  7

176
1
177
1
178
1
143
1.0
179
1
  8

270
1
271
1
272
1
145
1.0
146
1.0
273
1
  9

274
1
275
1
276
1
 42
1.0
 72
1
  3

 73
1
 74
1
 75
1
 94
63
  0
MLINESTYLE
  5
22
102
{ACAD_REACTORS
330
10
102
}
330
10
100
AcDbMlineStyle
  2
Standard
 70
0
  3

 62
256
 51
90.0
 52
90.0
 71
2
 49
0.5
 62
256
  6
BYLAYER
 49
-0.5
 62
256
  6
BYLAYER
  0
MLEADERSTYLE
  5
2C
102
{ACAD_REACTORS
330
F
102
}
330
F
100
AcDbMLeaderStyle
179
2
170
2
171
1
172
0
 90
2
 40
0.0
 41
0.0
173
1
 91
-1056964608
 92
-2
290
1
 42
2.0
291
1
 43
8.0
  3
Standard
 44
4.0
300

342
29
174
1
175
1
176
0
178
1
 93
-1056964608
 45
4.0
292
0
297
0
 46
4.0
 94
-1056964608
 47
1.0
 49
1.0
140
1.0
294
1
141
0.0
177
0
142
1.0
295
0
296
0
143
3.75
271
0
272
9
273
9
  0
DICTIONARY
  5
2D
330
A
100
AcDbDictionary
280
1
281
1
  3
CREATED_BY_EZDXF
350
2E
  3
WRITTEN_BY_EZDXF
350
69
  0
DICTIONARYVAR
  5
2E
330
2D
100
DictionaryVariables
280
0
  1
1.4.3 @ 2026-02-02T12:23:23.011621+00:00
  0
DICTIONARYVAR
  5
69
330
2D
100
DictionaryVariables
280
0
  1
1.4.3 @ 2026-02-02T12:23:23.016771+00:00
  0
ENDSEC
  0
EOF
