  0
SECTION
  2
HEADER
  9
$ACADVER
  1
AC1024
  9
$ACADMAINTVER
 70
6
  9
$DWGCODEPAGE
  3
ANSI_1252
  9
$LASTSAVEDBY
  1
ezdxf
  9
$INSBASE
 10
0.0
 20
0.0
 30
0.0
  9
$EXTMIN
 10
1e+20
 20
1e+20
 30
1e+20
  9
$EXTMAX
 10
-1e+20
 20
-1e+20
 30
-1e+20
  9
$LIMMIN
 10
0.0
 20
0.0
  9
$LIMMAX
 10
420.0
 20
297.0
  9
$ORTHOMODE
 70
0
  9
$REGENMODE
 70
1
  9
$FILLMODE
 70
1
  9
$QTEXTMODE
 70
0
  9
$MIRRTEXT
 70
1
  9
$LTSCALE
 40
1.0
  9
$ATTMODE
 70
1
  9
$TEXTSIZE
 40
2.5
  9
$TRACEWID
 40
1.0
  9
$TEXTSTYLE
  7
Standard
  9
$CLAYER
  8
0
  9
$CELTYPE
  6
ByLayer
  9
$CECOLOR
 62
256
  9
$CELTSCALE
 40
1.0
  9
$DISPSILH
 70
0
  9
$DIMSCALE
 40
1.0
  9
$DIMASZ
 40
2.5
  9
$DIMEXO
 40
0.625
  9
$DIMDLI
 40
3.75
  9
$DIMRND
 40
0.0
  9
$DIMDLE
 40
0.0
  9
$DIMEXE
 40
1.25
  9
$DIMTP
 40
0.0
  9
$DIMTM
 40
0.0
  9
$DIMTXT
 40
2.5
  9
$DIMCEN
 40
2.5
  9
$DIMTSZ
 40
0.0
  9
$DIMTOL
 70
0
  9
$DIMLIM
 70
0
  9
$DIMTIH
 70
0
  9
$DIMTOH
 70
0
  9
$DIMSE1
 70
0
  9
$DIMSE2
 70
0
  9
$DIMTAD
 70
1
  9
$DIMZIN
 70
8
  9
$DIMBLK
  1

  9
$DIMASO
 70
1
  9
$DIMSHO
 70
1
  9
$DIMPOST
  1

  9
$DIMAPOST
  1

  9
$DIMALT
 70
0
  9
$DIMALTD
 70
3
  9
$DIMALTF
 40
0.03937007874
  9
$DIMLFAC
 40
1.0
  9
$DIMTOFL
 70
1
  9
$DIMTVP
 40
0.0
  9
$DIMTIX
 70
0
  9
$DIMSOXD
 70
0
  9
$DIMSAH
 70
0
  9
$DIMBLK1
  1

  9
$DIMBLK2
  1

  9
$DIMSTYLE
  2
ISO-25
  9
$DIMCLRD
 70
0
  9
$DIMCLRE
 70
0
  9
$DIMCLRT
 70
0
  9
$DIMTFAC
 40
1.0
  9
$DIMGAP
 40
0.625
  9
$DIMJUST
 70
0
  9
$DIMSD1
 70
0
  9
$DIMSD2
 70
0
  9
$DIMTOLJ
 70
0
  9
$DIMTZIN
 70
8
  9
$DIMALTZ
 70
0
  9
$DIMALTTZ
 70
0
  9
$DIMUPT
 70
0
  9
$DIMDEC
 70
2
  9
$DIMTDEC
 70
2
  9
$DIMALTU
 70
2
  9
$DIMALTTD
 70
3
  9
$DIMTXSTY
  7
Standard
  9
$DIMAUNIT
 70
0
  9
$DIMADEC
 70
0
  9
$DIMALTRND
 40
0.0
  9
$DIMAZIN
 70
0
  9
$DIMDSEP
 70
44
  9
$DIMATFIT
 70
3
  9
$DIMFRAC
 70
0
  9
$DIMLDRBLK
  1

  9
$DIMLUNIT
 70
2
  9
$DIMLWD
 70
-2
  9
$DIMLWE
 70
-2
  9
$DIMTMOVE
 70
0
  9
$DIMFXL
 40
1.0
  9
$DIMFXLON
 70
0
  9
$DIMJOGANG
 40
0.785398163397
  9
$DIMTFILL
 70
0
  9
$DIMTFILLCLR
 70
0
  9
$DIMARCSYM
 70
0
  9
$DIMLTYPE
  6

  9
$DIMLTEX1
  6

  9
$DIMLTEX2
  6

  9
$DIMTXTDIRECTION
 70
0
  9
$LUNITS
 70
2
  9
$LUPREC
 70
4
  9
$SKETCHINC
 40
1.0
  9
$FILLETRAD
 40
10.0
  9
$AUNITS
 70
0
  9
$AUPREC
 70
2
  9
$MENU
  1
.
  9
$ELEVATION
 40
0.0
  9
$PELEVATION
 40
0.0
  9
$THICKNESS
 40
0.0
  9
$LIMCHECK
 70
0
  9
$CHAMFERA
 40
0.0
  9
$CHAMFERB
 40
0.0
  9
$CHAMFERC
 40
0.0
  9
$CHAMFERD
 40
0.0
  9
$SKPOLY
 70
0
  9
$TDCREATE
 40
2461047.6902083335
  9
$TDUCREATE
 40
2458532.153996898
  9
$TDUPDATE
 40
2461047.6902083335
  9
$TDUUPDATE
 40
2458532.1544311
  9
$TDINDWG
 40
0.0
  9
$TDUSRTIMER
 40
0.0
  9
$USRTIMER
 70
1
  9
$ANGBASE
 50
0.0
  9
$ANGDIR
 70
0
  9
$PDMODE
 70
0
  9
$PDSIZE
 40
0.0
  9
$PLINEWID
 40
0.0
  9
$SPLFRAME
 70
0
  9
$SPLINETYPE
 70
6
  9
$SPLINESEGS
 70
8
  9
$HANDSEED
  5
4F3
  9
$SURFTAB1
 70
6
  9
$SURFTAB2
 70
6
  9
$SURFTYPE
 70
6
  9
$SURFU
 70
6
  9
$SURFV
 70
6
  9
$UCSBASE
  2

  9
$UCSNAME
  2

  9
$UCSORG
 10
0.0
 20
0.0
 30
0.0
  9
$UCSXDIR
 10
1.0
 20
0.0
 30
0.0
  9
$UCSYDIR
 10
0.0
 20
1.0
 30
0.0
  9
$UCSORTHOREF
  2

  9
$UCSORTHOVIEW
 70
0
  9
$UCSORGTOP
 10
0.0
 20
0.0
 30
0.0
  9
$UCSORGBOTTOM
 10
0.0
 20
0.0
 30
0.0
  9
$UCSORGLEFT
 10
0.0
 20
0.0
 30
0.0
  9
$UCSORGRIGHT
 10
0.0
 20
0.0
 30
0.0
  9
$UCSORGFRONT
 10
0.0
 20
0.0
 30
0.0
  9
$UCSORGBACK
 10
0.0
 20
0.0
 30
0.0
  9
$PUCSBASE
  2

  9
$PUCSNAME
  2

  9
$PUCSORG
 10
0.0
 20
0.0
 30
0.0
  9
$PUCSXDIR
 10
1.0
 20
0.0
 30
0.0
  9
$PUCSYDIR
 10
0.0
 20
1.0
 30
0.0
  9
$PUCSORTHOREF
  2

  9
$PUCSORTHOVIEW
 70
0
  9
$PUCSORGTOP
 10
0.0
 20
0.0
 30
0.0
  9
$PUCSORGBOTTOM
 10
0.0
 20
0.0
 30
0.0
  9
$PUCSORGLEFT
 10
0.0
 20
0.0
 30
0.0
  9
$PUCSORGRIGHT
 10
0.0
 20
0.0
 30
0.0
  9
$PUCSORGFRONT
 10
0.0
 20
0.0
 30
0.0
  9
$PUCSORGBACK
 10
0.0
 20
0.0
 30
0.0
  9
$USERI1
 70
0
  9
$USERI2
 70
0
  9
$USERI3
 70
0
  9
$USERI4
 70
0
  9
$USERI5
 70
0
  9
$USERR1
 40
0.0
  9
$USERR2
 40
0.0
  9
$USERR3
 40
0.0
  9
$USERR4
 40
0.0
  9
$USERR5
 40
0.0
  9
$WORLDVIEW
 70
1
  9
$SHADEDGE
 70
3
  9
$SHADEDIF
 70
70
  9
$TILEMODE
 70
1
  9
$MAXACTVP
 70
64
  9
$PINSBASE
 10
0.0
 20
0.0
 30
0.0
  9
$PLIMCHECK
 70
0
  9
$PEXTMIN
 10
1e+20
 20
1e+20
 30
1e+20
  9
$PEXTMAX
 10
-1e+20
 20
-1e+20
 30
-1e+20
  9
$PLIMMIN
 10
0.0
 20
0.0
  9
$PLIMMAX
 10
420.0
 20
297.0
  9
$UNITMODE
 70
0
  9
$VISRETAIN
 70
1
  9
$PLINEGEN
 70
0
  9
$PSLTSCALE
 70
1
  9
$TREEDEPTH
 70
3020
  9
$CMLSTYLE
  2
Standard
  9
$CMLJUST
 70
0
  9
$CMLSCALE
 40
20.0
  9
$PROXYGRAPHICS
 70
1
  9
$MEASUREMENT
 70
1
  9
$CELWEIGHT
370
-1
  9
$ENDCAPS
280
0
  9
$JOINSTYLE
280
0
  9
$LWDISPLAY
290
0
  9
$INSUNITS
 70
6
  9
$HYPERLINKBASE
  1

  9
$STYLESHEET
  1

  9
$XEDIT
290
1
  9
$CEPSNTYPE
380
0
  9
$PSTYLEMODE
290
1
  9
$FINGERPRINTGUID
  2
{D0DA7511-4484-44B6-8FEF-58B7863B22BA}
  9
$VERSIONGUID
  2
{9F5F78EC-4DBC-4AAB-ADDC-C7801A079DCA}
  9
$EXTNAMES
290
1
  9
$PSVPSCALE
 40
0.0
  9
$OLESTARTUP
290
0
  9
$SORTENTS
280
127
  9
$INDEXCTL
280
0
  9
$HIDETEXT
280
1
  9
$XCLIPFRAME
280
1
  9
$HALOGAP
280
0
  9
$OBSCOLOR
 70
257
  9
$OBSLTYPE
280
0
  9
$INTERSECTIONDISPLAY
280
0
  9
$INTERSECTIONCOLOR
 70
257
  9
$DIMASSOC
280
2
  9
$PROJECTNAME
  1

  9
$CAMERADISPLAY
290
0
  9
$LENSLENGTH
 40
50.0
  9
$CAMERAHEIGHT
 40
0.0
  9
$STEPSPERSEC
 40
24.0
  9
$STEPSIZE
 40
100.0
  9
$3DDWFPREC
 40
2.0
  9
$PSOLWIDTH
 40
0.005
  9
$PSOLHEIGHT
 40
0.08
  9
$LOFTANG1
 40
1.570796326795
  9
$LOFTANG2
 40
1.570796326795
  9
$LOFTMAG1
 40
0.0
  9
$LOFTMAG2
 40
0.0
  9
$LOFTPARAM
 70
7
  9
$LOFTNORMALS
280
1
  9
$LATITUDE
 40
37.795
  9
$LONGITUDE
 40
-122.394
  9
$NORTHDIRECTION
 40
0.0
  9
$TIMEZONE
 70
-8000
  9
$LIGHTGLYPHDISPLAY
280
1
  9
$TILEMODELIGHTSYNCH
280
1
  9
$CMATERIAL
347
20
  9
$SOLIDHIST
280
0
  9
$SHOWHIST
280
1
  9
$DWFFRAME
280
2
  9
$DGNFRAME
280
2
  9
$REALWORLDSCALE
290
1
  9
$INTERFERECOLOR
 62
256
  9
$CSHADOW
280
0
  9
$SHADOWPLANELOCATION
 40
0.0
  0
ENDSEC
  0
SECTION
  2
CLASSES
  0
CLASS
  1
ACDBDICTIONARYWDFLT
  2
AcDbDictionaryWithDefault
  3
ObjectDBX Classes
 90
0
 91
0
280
0
281
0
  0
CLASS
  1
SUN
  2
AcDbSun
  3
SCENEOE
 90
1153
 91
0
280
0
281
0
  0
CLASS
  1
VISUALSTYLE
  2
AcDbVisualStyle
  3
ObjectDBX Classes
 90
4095
 91
0
280
0
281
0
  0
CLASS
  1
MATERIAL
  2
AcDbMaterial
  3
ObjectDBX Classes
 90
1153
 91
0
280
0
281
0
  0
CLASS
  1
SCALE
  2
AcDbScale
  3
ObjectDBX Classes
 90
1153
 91
0
280
0
281
0
  0
CLASS
  1
TABLESTYLE
  2
AcDbTableStyle
  3
ObjectDBX Classes
 90
4095
 91
0
280
0
281
0
  0
CLASS
  1
MLEADERSTYLE
  2
AcDbMLeaderStyle
  3
ACDB_MLEADERSTYLE_CLASS
 90
4095
 91
0
280
0
281
0
  0
CLASS
  1
DICTIONARYVAR
  2
AcDbDictionaryVar
  3
ObjectDBX Classes
 90
0
 91
0
280
0
281
0
  0
CLASS
  1
CELLSTYLEMAP
  2
AcDbCellStyleMap
  3
ObjectDBX Classes
 90
1152
 91
0
280
0
281
0
  0
CLASS
  1
MENTALRAYRENDERSETTINGS
  2
AcDbMentalRayRenderSettings
  3
SCENEOE
 90
1024
 91
0
280
0
281
0
  0
CLASS
  1
ACDBDETAILVIEWSTYLE
  2
AcDbDetailViewStyle
  3
ObjectDBX Classes
 90
1025
 91
0
280
0
281
0
  0
CLASS
  1
ACDBSECTIONVIEWSTYLE
  2
AcDbSectionViewStyle
  3
ObjectDBX Classes
 90
1025
 91
0
280
0
281
0
  0
CLASS
  1
RASTERVARIABLES
  2
AcDbRasterVariables
  3
ISM
 90
0
 91
0
280
0
281
0
  0
CLASS
  1
LAYOUT
  2
AcDbLayout
  3
ObjectDBX Classes
 90
0
 91
0
280
0
281
0
  0
CLASS
  1
ACDBPLACEHOLDER
  2
AcDbPlaceHolder
  3
ObjectDBX Classes
 90
0
 91
0
280
0
281
0
  0
ENDSEC
  0
SECTION
  2
TABLES
  0
TABLE
  2
VPORT
  5
8
330
0
100
AcDbSymbolTable
 70
1
  0
VPORT
  5
23
330
8
100
AcDbSymbolTableRecord
100
AcDbViewportTableRecord
  2
*Active
 70
0
 10
0.0
 20
0.0
 11
1.0
 21
1.0
 12
0.0
 22
0.0
 13
0.0
 23
0.0
 14
0.5
 24
0.5
 15
0.5
 25
0.5
 16
0.0
 26
0.0
 36
1.0
 17
0.0
 27
0.0
 37
0.0
 40
1000.0
 41
1.34
 42
50.0
 43
0.0
 44
0.0
 50
0.0
 51
0.0
 71
0
 72
1000
 73
1
 74
3
 75
0
 76
0
 77
0
 78
0
281
0
 65
0
146
0.0
  0
ENDTAB
  0
TABLE
  2
LTYPE
  5
2
330
0
100
AcDbSymbolTable
 70
3
  0
LTYPE
  5
24
330
2
100
AcDbSymbolTableRecord
100
AcDbLinetypeTableRecord
  2
ByBlock
 70
0
  3

 72
65
 73
0
 40
0.0
  0
LTYPE
  5
25
330
2
100
AcDbSymbolTableRecord
100
AcDbLinetypeTableRecord
  2
ByLayer
 70
0
  3

 72
65
 73
0
 40
0.0
  0
LTYPE
  5
26
330
2
100
AcDbSymbolTableRecord
100
AcDbLinetypeTableRecord
  2
Continuous
 70
0
  3

 72
65
 73
0
 40
0.0
  0
ENDTAB
  0
TABLE
  2
LAYER
  5
1
330
0
100
AcDbSymbolTable
 70
8
  0
LAYER
  5
27
330
1
100
AcDbSymbolTableRecord
100
AcDbLayerTableRecord
  2
0
 70
0
 62
7
  6
Continuous
370
-3
390
13
347
21
  0
LAYER
  5
28
330
1
100
AcDbSymbolTableRecord
100
AcDbLayerTableRecord
  2
Defpoints
 70
0
 62
7
  6
Continuous
290
0
370
-3
390
13
347
21
  0
LAYER
  5
2F
330
1
100
AcDbSymbolTableRecord
100
AcDbLayerTableRecord
  2
FLOOR_0_WALLS
 70
0
 62
5
  6
Continuous
370
-3
390
13
347
21
  0
LAYER
  5
30
330
1
100
AcDbSymbolTableRecord
100
AcDbLayerTableRecord
  2
FLOOR_0_PAINTINGS
 70
0
 62
1
  6
Continuous
370
-3
390
13
347
21
  0
LAYER
  5
228
330
1
100
AcDbSymbolTableRecord
100
AcDbLayerTableRecord
  2
FLOOR_1_WALLS
 70
0
 62
6
  6
Continuous
370
-3
390
13
347
21
  0
LAYER
  5
229
330
1
100
AcDbSymbolTableRecord
100
AcDbLayerTableRecord
  2
FLOOR_1_PAINTINGS
 70
0
 62
1
  6
Continuous
370
-3
390
13
347
21
  0
LAYER
  5
42B
330
1
100
AcDbSymbolTableRecord
100
AcDbLayerTableRecord
  2
FLOOR_2_WALLS
 70
0
 62
2
  6
Continuous
370
-3
390
13
347
21
  0
LAYER
  5
42C
330
1
100
AcDbSymbolTableRecord
100
AcDbLayerTableRecord
  2
FLOOR_2_PAINTINGS
 70
0
 62
1
  6
Continuous
370
-3
390
13
347
21
  0
ENDTAB
  0
TABLE
  2
STYLE
  5
5
330
0
100
AcDbSymbolTable
 70
1
  0
STYLE
  5
29
330
5
100
AcDbSymbolTableRecord
100
AcDbTextStyleTableRecord
  2
Standard
 70
0
 40
0.0
 41
1.0
 50
0.0
 71
0
 42
2.5
  3
txt
  4

  0
ENDTAB
  0
TABLE
  2
VIEW
  5
7
330
0
100
AcDbSymbolTable
 70
0
  0
ENDTAB
  0
TABLE
  2
UCS
  5
6
330
0
100
AcDbSymbolTable
 70
0
  0
ENDTAB
  0
TABLE
  2
APPID
  5
3
330
0
100
AcDbSymbolTable
 70
3
  0
APPID
  5
2A
330
3
100
AcDbSymbolTableRecord
100
AcDbRegAppTableRecord
  2
ACAD
 70
0
  0
APPID
  5
4F0
330
3
100
AcDbSymbolTableRecord
100
AcDbRegAppTableRecord
  2
HATCHBACKGROUNDCOLOR
 70
0
  0
APPID
  5
4F1
330
3
100
AcDbSymbolTableRecord
100
AcDbRegAppTableRecord
  2
EZDXF
 70
0
  0
ENDTAB
  0
TABLE
  2
DIMSTYLE
  5
4
330
0
100
AcDbSymbolTable
 70
1
100
AcDbDimStyleTable
  0
DIMSTYLE
105
2B
330
4
100
AcDbSymbolTableRecord
100
AcDbDimStyleTableRecord
  2
Standard
 70
0
 40
1.0
 41
2.5
 42
0.625
 43
3.75
 44
1.25
 45
0.0
 46
0.0
 47
0.0
 48
0.0
 49
2.5
140
2.5
141
2.5
142
0.0
143
0.03937007874
144
1.0
145
0.0
146
1.0
147
0.625
148
0.0
 69
0
 70
0
 71
0
 72
0
 73
0
 74
0
 75
0
 76
0
 77
1
 78
8
 79
3
170
0
171
3
172
1
173
0
174
0
175
0
176
0
177
0
178
0
179
2
271
2
272
2
273
2
274
3
275
0
276
0
277
2
278
44
279
0
280
0
281
0
282
0
283
0
284
8
285
0
286
0
288
0
289
3
290
0
371
-2
372
-2
  0
ENDTAB
  0
TABLE
  2
BLOCK_RECORD
  5
9
330
0
100
AcDbSymbolTable
 70
2
  0
BLOCK_RECORD
  5
17
330
9
100
AcDbSymbolTableRecord
100
AcDbBlockTableRecord
  2
*Model_Space
340
1A
 70
0
280
1
281
0
  0
BLOCK_RECORD
  5
1B
330
9
100
AcDbSymbolTableRecord
100
AcDbBlockTableRecord
  2
*Paper_Space
340
1E
 70
0
280
1
281
0
  0
ENDTAB
  0
ENDSEC
  0
SECTION
  2
BLOCKS
  0
BLOCK
  5
18
330
17
100
AcDbEntity
  8
0
100
AcDbBlockBegin
  2
*Model_Space
 70
0
 10
0.0
 20
0.0
 30
0.0
  3
*Model_Space
  1

  0
ENDBLK
  5
19
330
17
100
AcDbEntity
  8
0
100
AcDbBlockEnd
  0
BLOCK
  5
1C
330
1B
100
AcDbEntity
  8
0
100
AcDbBlockBegin
  2
*Paper_Space
 70
0
 10
0.0
 20
0.0
 30
0.0
  3
*Paper_Space
  1

  0
ENDBLK
  5
1D
330
1B
100
AcDbEntity
  8
0
100
AcDbBlockEnd
  0
ENDSEC
  0
SECTION
  2
ENTITIES
  0
LINE
  5
31
330
17
100
AcDbEntity
  8
FLOOR_0_WALLS
 62
5
100
AcDbLine
 10
2.5
 20
4850.3622
 30
0.0
 11
2.5
 21
4600.3622
 31
0.0
  0
CIRCLE
  5
32
330
17
100
AcDbEntity
  8
FLOOR_0_PAINTINGS
 62
1
100
AcDbCircle
 10
2.5
 20
4841.522199999999
 30
0.0
 40
50.0
  0
TEXT
  5
33
330
17
100
AcDbEntity
  8
FLOOR_0_PAINTINGS
 62
1
100
AcDbText
 10
2.5
 20
4941.522199999999
 30
0.0
 40
100.0
  1
0_5830
100
AcDbText
  0
LINE
  5
34
330
17
100
AcDbEntity
  8
FLOOR_0_WALLS
 62
5
100
AcDbLine
 10
118.50758
 20
4939.3622
 30
0.0
 11
118.50758
 21
4523.3622
 31
0.0
  0
LINE
  5
35
330
17
100
AcDbEntity
  8
FLOOR_0_WALLS
 62
5
100
AcDbLine
 10
126.0
 20
4405.8965
 30
0.0
 11
740.0
 21
4405.8965
 31
0.0
  0
CIRCLE
  5
36
330
17
100
AcDbEntity
  8
FLOOR_0_PAINTINGS
 62
1
100
AcDbCircle
 10
126.0
 20
4405.8965
 30
0.0
 40
50.0
  0
TEXT
  5
37
330
17
100
AcDbEntity
  8
FLOOR_0_PAINTINGS
 62
1
100
AcDbText
 10
126.0
 20
4505.8965
 30
0.0
 40
100.0
  1
0_0558
100
AcDbText
  0
LINE
  5
38
330
17
100
AcDbEntity
  8
FLOOR_0_WALLS
 62
5
100
AcDbLine
 10
126.0076
 20
5057.8967
 30
0.0
 11
0.0075999999999964984
 21
5057.8967
 31
0.0
  0
LINE
  5
39
330
17
100
AcDbEntity
  8
FLOOR_0_WALLS
 62
5
100
AcDbLine
 10
126.0076
 20
4405.8968
 30
0.0
 11
0.0075999999999964984
 21
4405.8968
 31
0.0
  0
LINE
  5
3A
330
17
100
AcDbEntity
  8
FLOOR_0_WALLS
 62
5
100
AcDbLine
 10
289.0
 20
4520.8622
 30
0.0
 11
121.0
 21
4520.8622
 31
0.0
  0
LINE
  5
3B
330
17
100
AcDbEntity
  8
FLOOR_0_WALLS
 62
5
100
AcDbLine
 10
461.49258
 20
3328.4076
 30
0.0
 11
461.49258
 21
2537.4076
 31
0.0
  0
LINE
  5
3C
330
17
100
AcDbEntity
  8
FLOOR_0_WALLS
 62
5
100
AcDbLine
 10
463.99258
 20
2534.9046
 30
0.0
 11
1418.0076
 21
2534.9046
 31
0.0
  0
LINE
  5
3D
330
17
100
AcDbEntity
  8
FLOOR_0_WALLS
 62
5
100
AcDbLine
 10
619.0
 20
5057.8622
 30
0.0
 11
126.00758000000002
 21
5057.8622
 31
0.0
  0
LINE
  5
3E
330
17
100
AcDbEntity
  8
FLOOR_0_WALLS
 62
5
100
AcDbLine
 10
619.0
 20
4941.8966
 30
0.0
 11
121.0
 21
4941.8966
 31
0.0
  0
LINE
  5
3F
330
17
100
AcDbEntity
  8
FLOOR_0_WALLS
 62
5
100
AcDbLine
 10
740.0
 20
5057.8966
 30
0.0
 11
619.00758
 21
5057.8966
 31
0.0
  0
LINE
  5
40
330
17
100
AcDbEntity
  8
FLOOR_0_WALLS
 62
5
100
AcDbLine
 10
740.0
 20
5057.8621
 30
0.0
 11
836.00758
 21
5057.8621
 31
0.0
  0
LINE
  5
41
330
17
100
AcDbEntity
  8
FLOOR_0_WALLS
 62
5
100
AcDbLine
 10
740.0
 20
4405.8622
 30
0.0
 11
836.0
 21
4405.8622
 31
0.0
  0
LINE
  5
42
330
17
100
AcDbEntity
  8
FLOOR_0_WALLS
 62
5
100
AcDbLine
 10
836.0
 20
4405.8175
 30
0.0
 11
1678.9926
 21
4405.8175
 31
0.0
  0
CIRCLE
  5
43
330
17
100
AcDbEntity
  8
FLOOR_0_PAINTINGS
 62
1
100
AcDbCircle
 10
836.0
 20
4405.8175
 30
0.0
 40
50.0
  0
TEXT
  5
44
330
17
100
AcDbEntity
  8
FLOOR_0_PAINTINGS
 62
1
100
AcDbText
 10
836.0
 20
4505.8175
 30
0.0
 40
100.0
  1
0_0562
100
AcDbText
  0
LINE
  5
45
330
17
100
AcDbEntity
  8
FLOOR_0_WALLS
 62
5
100
AcDbLine
 10
838.49158
 20
5776.3176
 30
0.0
 11
838.49158
 21
5653.3176
 31
0.0
  0
LINE
  5
46
330
17
100
AcDbEntity
  8
FLOOR_0_WALLS
 62
5
100
AcDbLine
 10
838.49158
 20
5519.3176
 30
0.0
 11
838.49158
 21
5055.3176
 31
0.0
  0
LINE
  5
47
330
17
100
AcDbEntity
  8
FLOOR_0_WALLS
 62
5
100
AcDbLine
 10
840.99158
 20
5778.8176
 30
0.0
 11
990.99158
 21
5778.8176
 31
0.0
  0
LINE
  5
48
330
17
100
AcDbEntity
  8
FLOOR_0_WALLS
 62
5
100
AcDbLine
 10
1300.9926
 20
5778.8176
 30
0.0
 11
1678.9926
 21
5778.8176
 31
0.0
  0
LINE
  5
49
330
17
100
AcDbEntity
  8
FLOOR_0_WALLS
 62
5
100
AcDbLine
 10
872.5076
 20
3777.3806
 30
0.0
 11
872.5076
 21
3925.3806
 31
0.0
  0
LINE
  5
4A
330
17
100
AcDbEntity
  8
FLOOR_0_WALLS
 62
5
100
AcDbLine
 10
970.0076
 20
3927.8806
 30
0.0
 11
875.0076
 21
3927.8806
 31
0.0
  0
LINE
  5
4B
330
17
100
AcDbEntity
  8
FLOOR_0_WALLS
 62
5
100
AcDbLine
 10
1111.5076
 20
4042.3965
 30
0.0
 11
1111.5076
 21
3925.3965
 31
0.0
  0
LINE
  5
4C
330
17
100
AcDbEntity
  8
FLOOR_0_WALLS
 62
5
100
AcDbLine
 10
1113.9926
 20
4248.9075
 30
0.0
 11
1678.9926
 21
4248.9075
 31
0.0
  0
LINE
  5
4D
330
17
100
AcDbEntity
  8
FLOOR_0_WALLS
 62
5
100
AcDbLine
 10
1133.0076
 20
3927.8965
 30
0.0
 11
1051.0076
 21
3927.8965
 31
0.0
  0
LINE
  5
4E
330
17
100
AcDbEntity
  8
FLOOR_0_WALLS
 62
5
100
AcDbLine
 10
1186.5106
 20
3328.3965
 30
0.0
 11
1186.5106
 21
3777.3965
 31
0.0
  0
LINE
  5
4F
330
17
100
AcDbEntity
  8
FLOOR_0_WALLS
 62
5
100
AcDbLine
 10
1188.9926
 20
3330.9076
 30
0.0
 11
463.9925800000001
 21
3330.9076
 31
0.0
  0
LINE
  5
50
330
17
100
AcDbEntity
  8
FLOOR_0_WALLS
 62
5
100
AcDbLine
 10
1189.0076
 20
3774.8806
 30
0.0
 11
875.0075999999999
 21
3774.8806
 31
0.0
  0
LINE
  5
51
330
17
100
AcDbEntity
  8
FLOOR_0_WALLS
 62
5
100
AcDbLine
 10
1280.0
 20
3583.8622
 30
0.0
 11
1319.0
 21
3583.8622
 31
0.0
  0
LINE
  5
52
330
17
100
AcDbEntity
  8
FLOOR_0_WALLS
 62
5
100
AcDbLine
 10
1280.0
 20
4039.8622
 30
0.0
 11
1300.0
 21
4039.8622
 31
0.0
  0
LINE
  5
53
330
17
100
AcDbEntity
  8
FLOOR_0_WALLS
 62
5
100
AcDbLine
 10
1282.5
 20
3581.3622
 30
0.0
 11
1282.5
 21
3926.3622
 31
0.0
  0
LINE
  5
54
330
17
100
AcDbEntity
  8
FLOOR_0_WALLS
 62
5
100
AcDbLine
 10
1282.5
 20
4042.3622
 30
0.0
 11
1282.5
 21
3926.3622
 31
0.0
  0
LINE
  5
55
330
17
100
AcDbEntity
  8
FLOOR_0_WALLS
 62
5
100
AcDbLine
 10
1282.5076
 20
3328.3965
 30
0.0
 11
1282.5076
 21
3413.3966
 31
0.0
  0
LINE
  5
56
330
17
100
AcDbEntity
  8
FLOOR_0_WALLS
 62
5
100
AcDbLine
 10
1295.0
 20
3923.8622
 30
0.0
 11
1319.0
 21
3923.8622
 31
0.0
  0
LINE
  5
57
330
17
100
AcDbEntity
  8
FLOOR_0_WALLS
 62
5
100
AcDbLine
 10
1297.5
 20
4042.3622
 30
0.0
 11
1297.5
 21
3926.3622
 31
0.0
  0
LINE
  5
58
330
17
100
AcDbEntity
  8
FLOOR_0_WALLS
 62
5
100
AcDbLine
 10
1316.5
 20
3881.3622
 30
0.0
 11
1316.5
 21
3926.3622
 31
0.0
  0
LINE
  5
59
330
17
100
AcDbEntity
  8
FLOOR_0_WALLS
 62
5
100
AcDbLine
 10
1319.0076
 20
3410.8966
 30
0.0
 11
1280.0076
 21
3410.8966
 31
0.0
  0
LINE
  5
5A
330
17
100
AcDbEntity
  8
FLOOR_0_WALLS
 62
5
100
AcDbLine
 10
1321.5076
 20
3413.3966
 30
0.0
 11
1321.5076
 21
3581.3966
 31
0.0
  0
LINE
  5
5B
330
17
100
AcDbEntity
  8
FLOOR_0_WALLS
 62
5
100
AcDbLine
 10
1417.9926
 20
3330.9076
 30
0.0
 11
1279.9926
 21
3330.9076
 31
0.0
  0
LINE
  5
5C
330
17
100
AcDbEntity
  8
FLOOR_0_WALLS
 62
5
100
AcDbLine
 10
1417.9926
 20
3029.9076
 30
0.0
 11
1631.9926
 21
3029.9076
 31
0.0
  0
LINE
  5
5D
330
17
100
AcDbEntity
  8
FLOOR_0_WALLS
 62
5
100
AcDbLine
 10
1418.5676
 20
2835.8336
 30
0.0
 11
1627.5676
 21
2883.8336
 31
0.0
  0
LINE
  5
5E
330
17
100
AcDbEntity
  8
FLOOR_0_WALLS
 62
5
100
AcDbLine
 10
1420.5076
 20
2537.3965
 30
0.0
 11
1420.5076
 21
2838.3965
 31
0.0
  0
LINE
  5
5F
330
17
100
AcDbEntity
  8
FLOOR_0_WALLS
 62
5
100
AcDbLine
 10
1420.9576
 20
3027.4076
 30
0.0
 11
1420.9576
 21
3328.4076
 31
0.0
  0
LINE
  5
60
330
17
100
AcDbEntity
  8
FLOOR_0_WALLS
 62
5
100
AcDbLine
 10
1425.5076
 20
4042.3965
 30
0.0
 11
1425.5076
 21
3881.3965
 31
0.0
  0
LINE
  5
61
330
17
100
AcDbEntity
  8
FLOOR_0_WALLS
 62
5
100
AcDbLine
 10
1425.5076
 20
4090.3965
 30
0.0
 11
1425.5076
 21
4042.3965
 31
0.0
  0
LINE
  5
62
330
17
100
AcDbEntity
  8
FLOOR_0_WALLS
 62
5
100
AcDbLine
 10
1427.9926
 20
4092.9076
 30
0.0
 11
1626.9926
 21
4092.9076
 31
0.0
  0
LINE
  5
63
330
17
100
AcDbEntity
  8
FLOOR_0_WALLS
 62
5
100
AcDbLine
 10
1598.5076
 20
379.39663
 30
0.0
 11
1598.5076
 21
1060.3966
 31
0.0
  0
LINE
  5
64
330
17
100
AcDbEntity
  8
FLOOR_0_WALLS
 62
5
100
AcDbLine
 10
1598.5076
 20
1527.3966
 30
0.0
 11
1598.5076
 21
1065.3966
 31
0.0
  0
CIRCLE
  5
65
330
17
100
AcDbEntity
  8
FLOOR_0_PAINTINGS
 62
1
100
AcDbCircle
 10
1598.5076
 20
1527.3966
 30
0.0
 40
50.0
  0
TEXT
  5
66
330
17
100
AcDbEntity
  8
FLOOR_0_PAINTINGS
 62
1
100
AcDbText
 10
1598.5076
 20
1627.3966
 30
0.0
 40
100.0
  1
0_5838
100
AcDbText
  0
CIRCLE
  5
67
330
17
100
AcDbEntity
  8
FLOOR_0_PAINTINGS
 62
1
100
AcDbCircle
 10
1598.5076
 20
1527.3966
 30
0.0
 40
50.0
  0
TEXT
  5
68
330
17
100
AcDbEntity
  8
FLOOR_0_PAINTINGS
 62
1
100
AcDbText
 10
1598.5076
 20
1627.3966
 30
0.0
 40
100.0
  1
0_5836
100
AcDbText
  0
LINE
  5
69
330
17
100
AcDbEntity
  8
FLOOR_0_WALLS
 62
5
100
AcDbLine
 10
1601.0076
 20
376.89663
 30
0.0
 11
2673.0076
 21
376.89663
 31
0.0
  0
LINE
  5
6A
330
17
100
AcDbEntity
  8
FLOOR_0_WALLS
 62
5
100
AcDbLine
 10
2021.0076
 20
1529.8966
 30
0.0
 11
1601.0076
 21
1529.8966
 31
0.0
  0
CIRCLE
  5
6B
330
17
100
AcDbEntity
  8
FLOOR_0_PAINTINGS
 62
1
100
AcDbCircle
 10
2021.0076
 20
1529.8966
 30
0.0
 40
50.0
  0
TEXT
  5
6C
330
17
100
AcDbEntity
  8
FLOOR_0_PAINTINGS
 62
1
100
AcDbText
 10
2021.0076
 20
1629.8966
 30
0.0
 40
100.0
  1
0_5834
100
AcDbText
  0
LINE
  5
6D
330
17
100
AcDbEntity
  8
FLOOR_0_WALLS
 62
5
100
AcDbLine
 10
1601.0076
 20
1062.8966
 30
0.0
 11
1912.0076
 21
1062.8966
 31
0.0
  0
LINE
  5
6E
330
17
100
AcDbEntity
  8
FLOOR_0_WALLS
 62
5
100
AcDbLine
 10
1629.4926
 20
3759.4076
 30
0.0
 11
1629.4926
 21
3027.4076
 31
0.0
  0
CIRCLE
  5
6F
330
17
100
AcDbEntity
  8
FLOOR_0_PAINTINGS
 62
1
100
AcDbCircle
 10
1629.4926
 20
3759.4076
 30
0.0
 40
50.0
  0
TEXT
  5
70
330
17
100
AcDbEntity
  8
FLOOR_0_PAINTINGS
 62
1
100
AcDbText
 10
1629.4926
 20
3859.4076
 30
0.0
 40
100.0
  1
0_0571
100
AcDbText
  0
CIRCLE
  5
71
330
17
100
AcDbEntity
  8
FLOOR_0_PAINTINGS
 62
1
100
AcDbCircle
 10
1629.4926
 20
3759.4076
 30
0.0
 40
50.0
  0
TEXT
  5
72
330
17
100
AcDbEntity
  8
FLOOR_0_PAINTINGS
 62
1
100
AcDbText
 10
1629.4926
 20
3859.4076
 30
0.0
 40
100.0
  1
0_0574
100
AcDbText
  0
CIRCLE
  5
73
330
17
100
AcDbEntity
  8
FLOOR_0_PAINTINGS
 62
1
100
AcDbCircle
 10
1629.4926
 20
3759.4076
 30
0.0
 40
50.0
  0
TEXT
  5
74
330
17
100
AcDbEntity
  8
FLOOR_0_PAINTINGS
 62
1
100
AcDbText
 10
1629.4926
 20
3859.4076
 30
0.0
 40
100.0
  1
0_0572
100
AcDbText
  0
CIRCLE
  5
75
330
17
100
AcDbEntity
  8
FLOOR_0_PAINTINGS
 62
1
100
AcDbCircle
 10
1629.4926
 20
3759.4076
 30
0.0
 40
50.0
  0
TEXT
  5
76
330
17
100
AcDbEntity
  8
FLOOR_0_PAINTINGS
 62
1
100
AcDbText
 10
1629.4926
 20
3859.4076
 30
0.0
 40
100.0
  1
0_0575
100
AcDbText
  0
CIRCLE
  5
77
330
17
100
AcDbEntity
  8
FLOOR_0_PAINTINGS
 62
1
100
AcDbCircle
 10
1629.4926
 20
3759.4076
 30
0.0
 40
50.0
  0
TEXT
  5
78
330
17
100
AcDbEntity
  8
FLOOR_0_PAINTINGS
 62
1
100
AcDbText
 10
1629.4926
 20
3859.4076
 30
0.0
 40
100.0
  1
0_0573
100
AcDbText
  0
LINE
  5
79
330
17
100
AcDbEntity
  8
FLOOR_0_WALLS
 62
5
100
AcDbLine
 10
1629.4926
 20
4090.4076
 30
0.0
 11
1629.4926
 21
3964.4076
 31
0.0
  0
LINE
  5
7A
330
17
100
AcDbEntity
  8
FLOOR_0_WALLS
 62
5
100
AcDbLine
 10
1629.5076
 20
2886.3965
 30
0.0
 11
1629.5076
 21
1667.3965999999998
 31
0.0
  0
CIRCLE
  5
7B
330
17
100
AcDbEntity
  8
FLOOR_0_PAINTINGS
 62
1
100
AcDbCircle
 10
1629.5076
 20
2886.3965
 30
0.0
 40
50.0
  0
TEXT
  5
7C
330
17
100
AcDbEntity
  8
FLOOR_0_PAINTINGS
 62
1
100
AcDbText
 10
1629.5076
 20
2986.3965
 30
0.0
 40
100.0
  1
0_0577
100
AcDbText
  0
LINE
  5
7D
330
17
100
AcDbEntity
  8
FLOOR_0_WALLS
 62
5
100
AcDbLine
 10
1632.0076
 20
1664.8966
 30
0.0
 11
2102.0076
 21
1664.8966
 31
0.0
  0
LINE
  5
7E
330
17
100
AcDbEntity
  8
FLOOR_0_WALLS
 62
5
100
AcDbLine
 10
1681.4926
 20
4403.3175
 30
0.0
 11
1681.4926
 21
4251.3175
 31
0.0
  0
LINE
  5
7F
330
17
100
AcDbEntity
  8
FLOOR_0_WALLS
 62
5
100
AcDbLine
 10
2042.9926
 20
3761.9076
 30
0.0
 11
1755.9926
 21
3761.9076
 31
0.0
  0
CIRCLE
  5
80
330
17
100
AcDbEntity
  8
FLOOR_0_PAINTINGS
 62
1
100
AcDbCircle
 10
2042.9926
 20
3761.9076
 30
0.0
 40
50.0
  0
TEXT
  5
81
330
17
100
AcDbEntity
  8
FLOOR_0_PAINTINGS
 62
1
100
AcDbText
 10
2042.9926
 20
3861.9076
 30
0.0
 40
100.0
  1
0_0570
100
AcDbText
  0
LINE
  5
82
330
17
100
AcDbEntity
  8
FLOOR_0_WALLS
 62
5
100
AcDbLine
 10
1755.9926
 20
3961.9076
 30
0.0
 11
2042.9926
 21
3961.9076
 31
0.0
  0
LINE
  5
83
330
17
100
AcDbEntity
  8
FLOOR_0_WALLS
 62
5
100
AcDbLine
 10
1768.5
 20
581.3622
 30
0.0
 11
1768.5
 21
858.3622
 31
0.0
  0
LINE
  5
84
330
17
100
AcDbEntity
  8
FLOOR_0_WALLS
 62
5
100
AcDbLine
 10
1771.0
 20
860.89673
 30
0.0
 11
1912.0
 21
860.89673
 31
0.0
  0
LINE
  5
85
330
17
100
AcDbEntity
  8
FLOOR_0_WALLS
 62
5
100
AcDbLine
 10
1912.0
 20
860.8622
 30
0.0
 11
2362.0
 21
860.8622
 31
0.0
  0
CIRCLE
  5
86
330
17
100
AcDbEntity
  8
FLOOR_0_PAINTINGS
 62
1
100
AcDbCircle
 10
1912.0
 20
860.8622
 30
0.0
 40
50.0
  0
TEXT
  5
87
330
17
100
AcDbEntity
  8
FLOOR_0_PAINTINGS
 62
1
100
AcDbText
 10
1912.0
 20
960.8622
 30
0.0
 40
100.0
  1
0_2100
100
AcDbText
  0
LINE
  5
88
330
17
100
AcDbEntity
  8
FLOOR_0_WALLS
 62
5
100
AcDbLine
 10
1914.5076
 20
1065.3966
 30
0.0
 11
1914.5076
 21
1329.3966
 31
0.0
  0
LINE
  5
89
330
17
100
AcDbEntity
  8
FLOOR_0_WALLS
 62
5
100
AcDbLine
 10
1916.4926
 20
4403.3175
 30
0.0
 11
1916.4926
 21
4251.3175
 31
0.0
  0
LINE
  5
8A
330
17
100
AcDbEntity
  8
FLOOR_0_WALLS
 62
5
100
AcDbLine
 10
1918.9926
 20
4248.8175
 30
0.0
 11
2076.9926
 21
4248.8175
 31
0.0
  0
LINE
  5
8B
330
17
100
AcDbEntity
  8
FLOOR_0_WALLS
 62
5
100
AcDbLine
 10
1918.9926
 20
4405.8175
 30
0.0
 11
2076.9926
 21
4405.8175
 31
0.0
  0
LINE
  5
8C
330
17
100
AcDbEntity
  8
FLOOR_0_WALLS
 62
5
100
AcDbLine
 10
1989.9926
 20
5778.8386
 30
0.0
 11
2200.9926
 21
5778.8386
 31
0.0
  0
LINE
  5
8D
330
17
100
AcDbEntity
  8
FLOOR_0_WALLS
 62
5
100
AcDbLine
 10
2400.9926
 20
5778.8386
 30
0.0
 11
2500.9926
 21
5778.8386
 31
0.0
  0
LINE
  5
8E
330
17
100
AcDbEntity
  8
FLOOR_0_WALLS
 62
5
100
AcDbLine
 10
2700.9926
 20
5778.8386
 30
0.0
 11
2800.9926
 21
5778.8386
 31
0.0
  0
LINE
  5
8F
330
17
100
AcDbEntity
  8
FLOOR_0_WALLS
 62
5
100
AcDbLine
 10
3000.9926
 20
5778.8386
 30
0.0
 11
3159.9926
 21
5778.8386
 31
0.0
  0
LINE
  5
90
330
17
100
AcDbEntity
  8
FLOOR_0_WALLS
 62
5
100
AcDbLine
 10
2040.5
 20
3759.3622
 30
0.0
 11
2040.5
 21
3964.3622
 31
0.0
  0
LINE
  5
91
330
17
100
AcDbEntity
  8
FLOOR_0_WALLS
 62
5
100
AcDbLine
 10
2079.4926
 20
4403.3175
 30
0.0
 11
2079.4926
 21
4251.3175
 31
0.0
  0
LINE
  5
92
330
17
100
AcDbEntity
  8
FLOOR_0_WALLS
 62
5
100
AcDbLine
 10
2099.8636
 20
1663.6786
 30
0.0
 11
2018.8636000000001
 21
1528.6786
 31
0.0
  0
LINE
  5
93
330
17
100
AcDbEntity
  8
FLOOR_0_WALLS
 62
5
100
AcDbLine
 10
2237.0076
 20
1664.8966
 30
0.0
 11
2757.0076
 21
1664.8966
 31
0.0
  0
LINE
  5
94
330
17
100
AcDbEntity
  8
FLOOR_0_WALLS
 62
5
100
AcDbLine
 10
2673.0076
 20
1529.8966
 30
0.0
 11
2251.0076
 21
1529.8966
 31
0.0
  0
CIRCLE
  5
95
330
17
100
AcDbEntity
  8
FLOOR_0_PAINTINGS
 62
1
100
AcDbCircle
 10
2673.0076
 20
1529.8966
 30
0.0
 40
50.0
  0
TEXT
  5
96
330
17
100
AcDbEntity
  8
FLOOR_0_PAINTINGS
 62
1
100
AcDbText
 10
2673.0076
 20
1629.8966
 30
0.0
 40
100.0
  1
0_5832
100
AcDbText
  0
LINE
  5
97
330
17
100
AcDbEntity
  8
FLOOR_0_WALLS
 62
5
100
AcDbLine
 10
2253.5206
 20
1527.6546
 30
0.0
 11
2239.5206
 21
1662.6546
 31
0.0
  0
LINE
  5
98
330
17
100
AcDbEntity
  8
FLOOR_0_WALLS
 62
5
100
AcDbLine
 10
2314.4926
 20
4403.3175
 30
0.0
 11
2314.4926
 21
4251.3175
 31
0.0
  0
LINE
  5
99
330
17
100
AcDbEntity
  8
FLOOR_0_WALLS
 62
5
100
AcDbLine
 10
2316.9926
 20
4248.8175
 30
0.0
 11
2474.9926
 21
4248.8175
 31
0.0
  0
LINE
  5
9A
330
17
100
AcDbEntity
  8
FLOOR_0_WALLS
 62
5
100
AcDbLine
 10
2316.9926
 20
4405.8175
 30
0.0
 11
2474.9926
 21
4405.8175
 31
0.0
  0
LINE
  5
9B
330
17
100
AcDbEntity
  8
FLOOR_0_WALLS
 62
5
100
AcDbLine
 10
2362.0
 20
860.89663
 30
0.0
 11
2502.0
 21
860.89663
 31
0.0
  0
LINE
  5
9C
330
17
100
AcDbEntity
  8
FLOOR_0_WALLS
 62
5
100
AcDbLine
 10
2364.5076
 20
1065.3966
 30
0.0
 11
2364.5076
 21
1329.3966
 31
0.0
  0
LINE
  5
9D
330
17
100
AcDbEntity
  8
FLOOR_0_WALLS
 62
5
100
AcDbLine
 10
2367.0076
 20
1062.8966
 30
0.0
 11
2673.0076
 21
1062.8966
 31
0.0
  0
LINE
  5
9E
330
17
100
AcDbEntity
  8
FLOOR_0_WALLS
 62
5
100
AcDbLine
 10
2477.4926
 20
4403.3175
 30
0.0
 11
2477.4926
 21
4251.3175
 31
0.0
  0
LINE
  5
9F
330
17
100
AcDbEntity
  8
FLOOR_0_WALLS
 62
5
100
AcDbLine
 10
2504.5
 20
581.3622
 30
0.0
 11
2504.5
 21
858.3622
 31
0.0
  0
LINE
  5
A0
330
17
100
AcDbEntity
  8
FLOOR_0_WALLS
 62
5
100
AcDbLine
 10
2673.0
 20
1365.8622
 30
0.0
 11
2757.0
 21
1365.8622
 31
0.0
  0
LINE
  5
A1
330
17
100
AcDbEntity
  8
FLOOR_0_WALLS
 62
5
100
AcDbLine
 10
2673.0
 20
1214.8622
 30
0.0
 11
2757.0
 21
1214.8622
 31
0.0
  0
LINE
  5
A2
330
17
100
AcDbEntity
  8
FLOOR_0_WALLS
 62
5
100
AcDbLine
 10
2675.5
 20
1527.3622
 30
0.0
 11
2675.5
 21
1363.3622
 31
0.0
  0
LINE
  5
A3
330
17
100
AcDbEntity
  8
FLOOR_0_WALLS
 62
5
100
AcDbLine
 10
2675.5
 20
1217.3622
 30
0.0
 11
2675.5
 21
1065.3622
 31
0.0
  0
LINE
  5
A4
330
17
100
AcDbEntity
  8
FLOOR_0_WALLS
 62
5
100
AcDbLine
 10
2675.5076
 20
379.39663
 30
0.0
 11
2675.5076
 21
1060.3966
 31
0.0
  0
LINE
  5
A5
330
17
100
AcDbEntity
  8
FLOOR_0_WALLS
 62
5
100
AcDbLine
 10
2707.4926
 20
4251.4075
 30
0.0
 11
2707.4926
 21
4150.3622000000005
 31
0.0
  0
LINE
  5
A6
330
17
100
AcDbEntity
  8
FLOOR_0_WALLS
 62
5
100
AcDbLine
 10
2707.4926
 20
4403.3175
 30
0.0
 11
2707.4926
 21
4251.3175
 31
0.0
  0
LINE
  5
A7
330
17
100
AcDbEntity
  8
FLOOR_0_WALLS
 62
5
100
AcDbLine
 10
2707.5
 20
3759.3622
 30
0.0
 11
2707.5
 21
3964.3622
 31
0.0
  0
LINE
  5
A8
330
17
100
AcDbEntity
  8
FLOOR_0_WALLS
 62
5
100
AcDbLine
 10
2707.5
 20
2371.3622
 30
0.0
 11
2707.5
 21
2357.3622
 31
0.0
  0
LINE
  5
A9
330
17
100
AcDbEntity
  8
FLOOR_0_WALLS
 62
5
100
AcDbLine
 10
2707.5076
 20
2700.3622
 30
0.0
 11
2707.5076
 21
2371.3966
 31
0.0
  0
LINE
  5
AA
330
17
100
AcDbEntity
  8
FLOOR_0_WALLS
 62
5
100
AcDbLine
 10
2707.5076
 20
3100.3622
 30
0.0
 11
2707.5076
 21
2800.3966
 31
0.0
  0
LINE
  5
AB
330
17
100
AcDbEntity
  8
FLOOR_0_WALLS
 62
5
100
AcDbLine
 10
2707.5076
 20
3500.3966
 30
0.0
 11
2707.5076
 21
3300.3966
 31
0.0
  0
LINE
  5
AC
330
17
100
AcDbEntity
  8
FLOOR_0_WALLS
 62
5
100
AcDbLine
 10
2709.9926
 20
4405.8175
 30
0.0
 11
3159.9926
 21
4405.8175
 31
0.0
  0
CIRCLE
  5
AD
330
17
100
AcDbEntity
  8
FLOOR_0_PAINTINGS
 62
1
100
AcDbCircle
 10
2709.9926
 20
4405.8175
 30
0.0
 40
50.0
  0
TEXT
  5
AE
330
17
100
AcDbEntity
  8
FLOOR_0_PAINTINGS
 62
1
100
AcDbText
 10
2709.9926
 20
4505.8175
 30
0.0
 40
100.0
  1
0_0565
100
AcDbText
  0
LINE
  5
AF
330
17
100
AcDbEntity
  8
FLOOR_0_WALLS
 62
5
100
AcDbLine
 10
2754.5
 20
1527.3622
 30
0.0
 11
2754.5
 21
1363.3622
 31
0.0
  0
LINE
  5
B0
330
17
100
AcDbEntity
  8
FLOOR_0_WALLS
 62
5
100
AcDbLine
 10
2754.5
 20
1217.3622
 30
0.0
 11
2754.5
 21
600.3622
 31
0.0
  0
LINE
  5
B1
330
17
100
AcDbEntity
  8
FLOOR_0_WALLS
 62
5
100
AcDbLine
 10
2754.5
 20
2357.3622
 30
0.0
 11
2754.5
 21
2438.3622
 31
0.0
  0
LINE
  5
B2
330
17
100
AcDbEntity
  8
FLOOR_0_WALLS
 62
5
100
AcDbLine
 10
2754.5076
 20
1662.3966
 30
0.0
 11
2754.5076
 21
1588.3966
 31
0.0
  0
LINE
  5
B3
330
17
100
AcDbEntity
  8
FLOOR_0_WALLS
 62
5
100
AcDbLine
 10
2757.0
 20
1585.8622
 30
0.0
 11
2911.0
 21
1585.8622
 31
0.0
  0
LINE
  5
B4
330
17
100
AcDbEntity
  8
FLOOR_0_WALLS
 62
5
100
AcDbLine
 10
2757.0
 20
1529.8622
 30
0.0
 11
2911.0
 21
1529.8622
 31
0.0
  0
LINE
  5
B5
330
17
100
AcDbEntity
  8
FLOOR_0_WALLS
 62
5
100
AcDbLine
 10
2757.0
 20
2359.8622
 30
0.0
 11
2705.0
 21
2359.8622
 31
0.0
  0
LINE
  5
B6
330
17
100
AcDbEntity
  8
FLOOR_0_WALLS
 62
5
100
AcDbLine
 10
2757.0076
 20
597.89663
 30
0.0
 11
2906.0076
 21
597.89663
 31
0.0
  0
LINE
  5
B7
330
17
100
AcDbEntity
  8
FLOOR_0_WALLS
 62
5
100
AcDbLine
 10
2906.0076
 20
787.89663
 30
0.0
 11
3353.0076
 21
787.89663
 31
0.0
  0
LINE
  5
B8
330
17
100
AcDbEntity
  8
FLOOR_0_WALLS
 62
5
100
AcDbLine
 10
2908.5
 20
1588.3622
 30
0.0
 11
2908.5
 21
1527.3622
 31
0.0
  0
LINE
  5
B9
330
17
100
AcDbEntity
  8
FLOOR_0_WALLS
 62
5
100
AcDbLine
 10
2908.5076
 20
726.39663
 30
0.0
 11
2908.5076
 21
790.39663
 31
0.0
  0
LINE
  5
BA
330
17
100
AcDbEntity
  8
FLOOR_0_WALLS
 62
5
100
AcDbLine
 10
2918.0076
 20
2440.8966
 30
0.0
 11
2941.0076
 21
2440.8966
 31
0.0
  0
LINE
  5
BB
330
17
100
AcDbEntity
  8
FLOOR_0_WALLS
 62
5
100
AcDbLine
 10
2938.5076
 20
2438.3966
 30
0.0
 11
2938.5076
 21
2796.3965
 31
0.0
  0
LINE
  5
BC
330
17
100
AcDbEntity
  8
FLOOR_0_WALLS
 62
5
100
AcDbLine
 10
2941.0076
 20
2798.8965
 30
0.0
 11
3106.0076
 21
2798.8965
 31
0.0
  0
LINE
  5
BD
330
17
100
AcDbEntity
  8
FLOOR_0_WALLS
 62
5
100
AcDbLine
 10
3106.0076
 20
2798.8965
 30
0.0
 11
3159.0076
 21
2798.8965
 31
0.0
  0
LINE
  5
BE
330
17
100
AcDbEntity
  8
FLOOR_0_WALLS
 62
5
100
AcDbLine
 10
3144.0
 20
1529.8622
 30
0.0
 11
3353.0
 21
1529.8622
 31
0.0
  0
LINE
  5
BF
330
17
100
AcDbEntity
  8
FLOOR_0_WALLS
 62
5
100
AcDbLine
 10
3144.0
 20
1585.8622
 30
0.0
 11
3374.0
 21
1585.8622
 31
0.0
  0
LINE
  5
C0
330
17
100
AcDbEntity
  8
FLOOR_0_WALLS
 62
5
100
AcDbLine
 10
3146.5
 20
1588.3622
 30
0.0
 11
3146.5
 21
1527.3622
 31
0.0
  0
LINE
  5
C1
330
17
100
AcDbEntity
  8
FLOOR_0_WALLS
 62
5
100
AcDbLine
 10
3159.0076
 20
2440.8966
 30
0.0
 11
3182.0076
 21
2440.8966
 31
0.0
  0
LINE
  5
C2
330
17
100
AcDbEntity
  8
FLOOR_0_WALLS
 62
5
100
AcDbLine
 10
3161.5076
 20
2438.3966
 30
0.0
 11
3161.5076
 21
2796.3965
 31
0.0
  0
LINE
  5
C3
330
17
100
AcDbEntity
  8
FLOOR_0_WALLS
 62
5
100
AcDbLine
 10
3162.4926
 20
4500.317499999999
 30
0.0
 11
3162.4926
 21
4408.317499999999
 31
0.0
  0
LINE
  5
C4
330
17
100
AcDbEntity
  8
FLOOR_0_WALLS
 62
5
100
AcDbLine
 10
3162.4926
 20
4772.4076
 30
0.0
 11
3162.4926
 21
4650.4076
 31
0.0
  0
LINE
  5
C5
330
17
100
AcDbEntity
  8
FLOOR_0_WALLS
 62
5
100
AcDbLine
 10
3162.4926
 20
5116.4076
 30
0.0
 11
3162.4926
 21
4997.317599999999
 31
0.0
  0
LINE
  5
C6
330
17
100
AcDbEntity
  8
FLOOR_0_WALLS
 62
5
100
AcDbLine
 10
3162.4926
 20
5500.3176
 30
0.0
 11
3162.4926
 21
5341.3176
 31
0.0
  0
LINE
  5
C7
330
17
100
AcDbEntity
  8
FLOOR_0_WALLS
 62
5
100
AcDbLine
 10
3162.4926
 20
5776.3176
 30
0.0
 11
3162.4926
 21
5700.3176
 31
0.0
  0
LINE
  5
C8
330
17
100
AcDbEntity
  8
FLOOR_0_WALLS
 62
5
100
AcDbLine
 10
3752.0076
 20
1721.8968
 30
0.0
 11
3232.0076
 21
1721.8968
 31
0.0
  0
CIRCLE
  5
C9
330
17
100
AcDbEntity
  8
FLOOR_0_PAINTINGS
 62
1
100
AcDbCircle
 10
3752.0076
 20
1721.8968
 30
0.0
 40
50.0
  0
TEXT
  5
CA
330
17
100
AcDbEntity
  8
FLOOR_0_PAINTINGS
 62
1
100
AcDbText
 10
3752.0076
 20
1821.8968
 30
0.0
 40
100.0
  1
0_0668
100
AcDbText
  0
CIRCLE
  5
CB
330
17
100
AcDbEntity
  8
FLOOR_0_PAINTINGS
 62
1
100
AcDbCircle
 10
3752.0076
 20
1721.8968
 30
0.0
 40
50.0
  0
TEXT
  5
CC
330
17
100
AcDbEntity
  8
FLOOR_0_PAINTINGS
 62
1
100
AcDbText
 10
3752.0076
 20
1821.8968
 30
0.0
 40
100.0
  1
0_0670
100
AcDbText
  0
LINE
  5
CD
330
17
100
AcDbEntity
  8
FLOOR_0_WALLS
 62
5
100
AcDbLine
 10
3232.0076
 20
2236.8968
 30
0.0
 11
3752.0076
 21
2236.8968
 31
0.0
  0
LINE
  5
CE
330
17
100
AcDbEntity
  8
FLOOR_0_WALLS
 62
5
100
AcDbLine
 10
3234.5076
 20
1719.3968
 30
0.0
 11
3234.5076
 21
2239.3968
 31
0.0
  0
LINE
  5
CF
330
17
100
AcDbEntity
  8
FLOOR_0_WALLS
 62
5
100
AcDbLine
 10
3353.0
 20
1387.8622
 30
0.0
 11
3374.0
 21
1387.8622
 31
0.0
  0
LINE
  5
D0
330
17
100
AcDbEntity
  8
FLOOR_0_WALLS
 62
5
100
AcDbLine
 10
3353.0
 20
1248.8622
 30
0.0
 11
3374.0
 21
1248.8622
 31
0.0
  0
LINE
  5
D1
330
17
100
AcDbEntity
  8
FLOOR_0_WALLS
 62
5
100
AcDbLine
 10
3355.5
 20
1385.3622
 30
0.0
 11
3355.5
 21
1527.3622
 31
0.0
  0
LINE
  5
D2
330
17
100
AcDbEntity
  8
FLOOR_0_WALLS
 62
5
100
AcDbLine
 10
3355.5
 20
790.3622
 30
0.0
 11
3355.5
 21
1251.3622
 31
0.0
  0
LINE
  5
D3
330
17
100
AcDbEntity
  8
FLOOR_0_WALLS
 62
5
100
AcDbLine
 10
3371.5
 20
1588.3622
 30
0.0
 11
3371.5
 21
1385.3622
 31
0.0
  0
CIRCLE
  5
D4
330
17
100
AcDbEntity
  8
FLOOR_0_PAINTINGS
 62
1
100
AcDbCircle
 10
3371.5
 20
1588.3622
 30
0.0
 40
50.0
  0
TEXT
  5
D5
330
17
100
AcDbEntity
  8
FLOOR_0_PAINTINGS
 62
1
100
AcDbText
 10
3371.5
 20
1688.3622
 30
0.0
 40
100.0
  1
0_0673
100
AcDbText
  0
LINE
  5
D6
330
17
100
AcDbEntity
  8
FLOOR_0_WALLS
 62
5
100
AcDbLine
 10
3371.5
 20
1251.3622
 30
0.0
 11
3371.5
 21
12.362205000000131
 31
0.0
  0
CIRCLE
  5
D7
330
17
100
AcDbEntity
  8
FLOOR_0_PAINTINGS
 62
1
100
AcDbCircle
 10
3371.5
 20
1251.3622
 30
0.0
 40
50.0
  0
TEXT
  5
D8
330
17
100
AcDbEntity
  8
FLOOR_0_PAINTINGS
 62
1
100
AcDbText
 10
3371.5
 20
1351.3622
 30
0.0
 40
100.0
  1
0_0680
100
AcDbText
  0
CIRCLE
  5
D9
330
17
100
AcDbEntity
  8
FLOOR_0_PAINTINGS
 62
1
100
AcDbCircle
 10
3371.5
 20
1251.3622
 30
0.0
 40
50.0
  0
TEXT
  5
DA
330
17
100
AcDbEntity
  8
FLOOR_0_PAINTINGS
 62
1
100
AcDbText
 10
3371.5
 20
1351.3622
 30
0.0
 40
100.0
  1
0_0689
100
AcDbText
  0
LINE
  5
DB
330
17
100
AcDbEntity
  8
FLOOR_0_WALLS
 62
5
100
AcDbLine
 10
3737.0
 20
1387.8622
 30
0.0
 11
3752.0
 21
1387.8622
 31
0.0
  0
LINE
  5
DC
330
17
100
AcDbEntity
  8
FLOOR_0_WALLS
 62
5
100
AcDbLine
 10
3737.0
 20
1562.8622
 30
0.0
 11
3752.0
 21
1562.8622
 31
0.0
  0
LINE
  5
DD
330
17
100
AcDbEntity
  8
FLOOR_0_WALLS
 62
5
100
AcDbLine
 10
3739.5
 20
1385.3622
 30
0.0
 11
3739.5
 21
1565.3622
 31
0.0
  0
CIRCLE
  5
DE
330
17
100
AcDbEntity
  8
FLOOR_0_PAINTINGS
 62
1
100
AcDbCircle
 10
3739.5
 20
1385.3622
 30
0.0
 40
50.0
  0
TEXT
  5
DF
330
17
100
AcDbEntity
  8
FLOOR_0_PAINTINGS
 62
1
100
AcDbText
 10
3739.5
 20
1485.3622
 30
0.0
 40
100.0
  1
0_0675
100
AcDbText
  0
LINE
  5
E0
330
17
100
AcDbEntity
  8
FLOOR_0_WALLS
 62
5
100
AcDbLine
 10
3749.5
 20
1565.3622
 30
0.0
 11
3749.5
 21
1385.3622
 31
0.0
  0
CIRCLE
  5
E1
330
17
100
AcDbEntity
  8
FLOOR_0_PAINTINGS
 62
1
100
AcDbCircle
 10
3749.5
 20
1565.3622
 30
0.0
 40
50.0
  0
TEXT
  5
E2
330
17
100
AcDbEntity
  8
FLOOR_0_PAINTINGS
 62
1
100
AcDbText
 10
3749.5
 20
1665.3622
 30
0.0
 40
100.0
  1
0_0772
100
AcDbText
  0
LINE
  5
E3
330
17
100
AcDbEntity
  8
FLOOR_0_WALLS
 62
5
100
AcDbLine
 10
3749.5076
 20
2239.3968
 30
0.0
 11
3749.5076
 21
1719.3968
 31
0.0
  0
CIRCLE
  5
E4
330
17
100
AcDbEntity
  8
FLOOR_0_PAINTINGS
 62
1
100
AcDbCircle
 10
3749.5076
 20
2239.3968
 30
0.0
 40
50.0
  0
TEXT
  5
E5
330
17
100
AcDbEntity
  8
FLOOR_0_PAINTINGS
 62
1
100
AcDbText
 10
3749.5076
 20
2339.3968
 30
0.0
 40
100.0
  1
0_0783
100
AcDbText
  0
CIRCLE
  5
E6
330
17
100
AcDbEntity
  8
FLOOR_0_PAINTINGS
 62
1
100
AcDbCircle
 10
3749.5076
 20
2239.3968
 30
0.0
 40
50.0
  0
TEXT
  5
E7
330
17
100
AcDbEntity
  8
FLOOR_0_PAINTINGS
 62
1
100
AcDbText
 10
3749.5076
 20
2339.3968
 30
0.0
 40
100.0
  1
0_0776
100
AcDbText
  0
LINE
  5
E8
330
17
100
AcDbEntity
  8
FLOOR_0_WALLS
 62
5
100
AcDbLine
 10
4208.0
 20
1953.8622
 30
0.0
 11
3871.0
 21
1953.8622
 31
0.0
  0
CIRCLE
  5
E9
330
17
100
AcDbEntity
  8
FLOOR_0_PAINTINGS
 62
1
100
AcDbCircle
 10
4208.0
 20
1953.8622
 30
0.0
 40
50.0
  0
TEXT
  5
EA
330
17
100
AcDbEntity
  8
FLOOR_0_PAINTINGS
 62
1
100
AcDbText
 10
4208.0
 20
2053.8622
 30
0.0
 40
100.0
  1
0_0779
100
AcDbText
  0
LINE
  5
EB
330
17
100
AcDbEntity
  8
FLOOR_0_WALLS
 62
5
100
AcDbLine
 10
3871.0
 20
1963.8622
 30
0.0
 11
4208.0
 21
1963.8622
 31
0.0
  0
CIRCLE
  5
EC
330
17
100
AcDbEntity
  8
FLOOR_0_PAINTINGS
 62
1
100
AcDbCircle
 10
3871.0
 20
1963.8622
 30
0.0
 40
50.0
  0
TEXT
  5
ED
330
17
100
AcDbEntity
  8
FLOOR_0_PAINTINGS
 62
1
100
AcDbText
 10
3871.0
 20
2063.8622
 30
0.0
 40
100.0
  1
0_0787
100
AcDbText
  0
CIRCLE
  5
EE
330
17
100
AcDbEntity
  8
FLOOR_0_PAINTINGS
 62
1
100
AcDbCircle
 10
3871.0
 20
1963.8622
 30
0.0
 40
50.0
  0
TEXT
  5
EF
330
17
100
AcDbEntity
  8
FLOOR_0_PAINTINGS
 62
1
100
AcDbText
 10
3871.0
 20
2063.8622
 30
0.0
 40
100.0
  1
0_0785
100
AcDbText
  0
LINE
  5
F0
330
17
100
AcDbEntity
  8
FLOOR_0_WALLS
 62
5
100
AcDbLine
 10
3873.5
 20
1951.3622
 30
0.0
 11
3873.5
 21
1966.3622
 31
0.0
  0
LINE
  5
F1
330
17
100
AcDbEntity
  8
FLOOR_0_WALLS
 62
5
100
AcDbLine
 10
3909.0
 20
745.8622
 30
0.0
 11
3932.0
 21
745.8622
 31
0.0
  0
LINE
  5
F2
330
17
100
AcDbEntity
  8
FLOOR_0_WALLS
 62
5
100
AcDbLine
 10
3909.0
 20
1002.8622
 30
0.0
 11
3932.0
 21
1002.8622
 31
0.0
  0
LINE
  5
F3
330
17
100
AcDbEntity
  8
FLOOR_0_WALLS
 62
5
100
AcDbLine
 10
3911.5
 20
743.3622
 30
0.0
 11
3911.5
 21
1005.3622
 31
0.0
  0
CIRCLE
  5
F4
330
17
100
AcDbEntity
  8
FLOOR_0_PAINTINGS
 62
1
100
AcDbCircle
 10
3911.5
 20
743.3622
 30
0.0
 40
50.0
  0
TEXT
  5
F5
330
17
100
AcDbEntity
  8
FLOOR_0_PAINTINGS
 62
1
100
AcDbText
 10
3911.5
 20
843.3622
 30
0.0
 40
100.0
  1
0_0678
100
AcDbText
  0
LINE
  5
F6
330
17
100
AcDbEntity
  8
FLOOR_0_WALLS
 62
5
100
AcDbLine
 10
3929.5
 20
1005.3622
 30
0.0
 11
3929.5
 21
743.3622
 31
0.0
  0
CIRCLE
  5
F7
330
17
100
AcDbEntity
  8
FLOOR_0_PAINTINGS
 62
1
100
AcDbCircle
 10
3929.5
 20
1005.3622
 30
0.0
 40
50.0
  0
TEXT
  5
F8
330
17
100
AcDbEntity
  8
FLOOR_0_PAINTINGS
 62
1
100
AcDbText
 10
3929.5
 20
1105.3622
 30
0.0
 40
100.0
  1
0_0718
100
AcDbText
  0
LINE
  5
F9
330
17
100
AcDbEntity
  8
FLOOR_0_WALLS
 62
5
100
AcDbLine
 10
4005.0076
 20
2440.8966
 30
0.0
 11
4028.0076
 21
2440.8966
 31
0.0
  0
LINE
  5
FA
330
17
100
AcDbEntity
  8
FLOOR_0_WALLS
 62
5
100
AcDbLine
 10
4025.5076
 20
2438.3966
 30
0.0
 11
4025.5076
 21
2796.3965
 31
0.0
  0
LINE
  5
FB
330
17
100
AcDbEntity
  8
FLOOR_0_WALLS
 62
5
100
AcDbLine
 10
4028.0076
 20
2798.8965
 30
0.0
 11
4193.0076
 21
2798.8965
 31
0.0
  0
LINE
  5
FC
330
17
100
AcDbEntity
  8
FLOOR_0_WALLS
 62
5
100
AcDbLine
 10
4193.0076
 20
2798.8965
 30
0.0
 11
4246.0076
 21
2798.8965
 31
0.0
  0
LINE
  5
FD
330
17
100
AcDbEntity
  8
FLOOR_0_WALLS
 62
5
100
AcDbLine
 10
4205.5
 20
1951.3622
 30
0.0
 11
4205.5
 21
1966.3622
 31
0.0
  0
LINE
  5
FE
330
17
100
AcDbEntity
  8
FLOOR_0_WALLS
 62
5
100
AcDbLine
 10
4246.0076
 20
2440.8966
 30
0.0
 11
4269.0076
 21
2440.8966
 31
0.0
  0
LINE
  5
FF
330
17
100
AcDbEntity
  8
FLOOR_0_WALLS
 62
5
100
AcDbLine
 10
4248.5076
 20
2438.3966
 30
0.0
 11
4248.5076
 21
2796.3965
 31
0.0
  0
LINE
  5
100
330
17
100
AcDbEntity
  8
FLOOR_0_WALLS
 62
5
100
AcDbLine
 10
4731.0
 20
971.8622
 30
0.0
 11
4249.0
 21
971.8622
 31
0.0
  0
CIRCLE
  5
101
330
17
100
AcDbEntity
  8
FLOOR_0_PAINTINGS
 62
1
100
AcDbCircle
 10
4731.0
 20
971.8622
 30
0.0
 40
50.0
  0
TEXT
  5
102
330
17
100
AcDbEntity
  8
FLOOR_0_PAINTINGS
 62
1
100
AcDbText
 10
4731.0
 20
1071.8622
 30
0.0
 40
100.0
  1
0_0729
100
AcDbText
  0
CIRCLE
  5
103
330
17
100
AcDbEntity
  8
FLOOR_0_PAINTINGS
 62
1
100
AcDbCircle
 10
4731.0
 20
971.8622
 30
0.0
 40
50.0
  0
TEXT
  5
104
330
17
100
AcDbEntity
  8
FLOOR_0_PAINTINGS
 62
1
100
AcDbText
 10
4731.0
 20
1071.8622
 30
0.0
 40
100.0
  1
0_0938
100
AcDbText
  0
CIRCLE
  5
105
330
17
100
AcDbEntity
  8
FLOOR_0_PAINTINGS
 62
1
100
AcDbCircle
 10
4731.0
 20
971.8622
 30
0.0
 40
50.0
  0
TEXT
  5
106
330
17
100
AcDbEntity
  8
FLOOR_0_PAINTINGS
 62
1
100
AcDbText
 10
4731.0
 20
1071.8622
 30
0.0
 40
100.0
  1
0_0724
100
AcDbText
  0
LINE
  5
107
330
17
100
AcDbEntity
  8
FLOOR_0_WALLS
 62
5
100
AcDbLine
 10
4249.0
 20
981.8622
 30
0.0
 11
4731.0
 21
981.8622
 31
0.0
  0
CIRCLE
  5
108
330
17
100
AcDbEntity
  8
FLOOR_0_PAINTINGS
 62
1
100
AcDbCircle
 10
4249.0
 20
981.8622
 30
0.0
 40
50.0
  0
TEXT
  5
109
330
17
100
AcDbEntity
  8
FLOOR_0_PAINTINGS
 62
1
100
AcDbText
 10
4249.0
 20
1081.8622
 30
0.0
 40
100.0
  1
0_0826
100
AcDbText
  0
LINE
  5
10A
330
17
100
AcDbEntity
  8
FLOOR_0_WALLS
 62
5
100
AcDbLine
 10
4251.5
 20
969.3622
 30
0.0
 11
4251.5
 21
984.3622
 31
0.0
  0
LINE
  5
10B
330
17
100
AcDbEntity
  8
FLOOR_0_WALLS
 62
5
100
AcDbLine
 10
4261.0
 20
2057.8622
 30
0.0
 11
4276.0
 21
2057.8622
 31
0.0
  0
LINE
  5
10C
330
17
100
AcDbEntity
  8
FLOOR_0_WALLS
 62
5
100
AcDbLine
 10
4261.0
 20
2233.8622
 30
0.0
 11
4276.0
 21
2233.8622
 31
0.0
  0
LINE
  5
10D
330
17
100
AcDbEntity
  8
FLOOR_0_WALLS
 62
5
100
AcDbLine
 10
4263.5
 20
2055.3622
 30
0.0
 11
4263.5
 21
2236.3622
 31
0.0
  0
CIRCLE
  5
10E
330
17
100
AcDbEntity
  8
FLOOR_0_PAINTINGS
 62
1
100
AcDbCircle
 10
4263.5
 20
2055.3622
 30
0.0
 40
50.0
  0
TEXT
  5
10F
330
17
100
AcDbEntity
  8
FLOOR_0_PAINTINGS
 62
1
100
AcDbText
 10
4263.5
 20
2155.3622
 30
0.0
 40
100.0
  1
0_0789
100
AcDbText
  0
LINE
  5
110
330
17
100
AcDbEntity
  8
FLOOR_0_WALLS
 62
5
100
AcDbLine
 10
4273.5
 20
2236.3622
 30
0.0
 11
4273.5
 21
2055.3622
 31
0.0
  0
CIRCLE
  5
111
330
17
100
AcDbEntity
  8
FLOOR_0_PAINTINGS
 62
1
100
AcDbCircle
 10
4273.5
 20
2236.3622
 30
0.0
 40
50.0
  0
TEXT
  5
112
330
17
100
AcDbEntity
  8
FLOOR_0_PAINTINGS
 62
1
100
AcDbText
 10
4273.5
 20
2336.3622
 30
0.0
 40
100.0
  1
0_0334
100
AcDbText
  0
LINE
  5
113
330
17
100
AcDbEntity
  8
FLOOR_0_WALLS
 62
5
100
AcDbLine
 10
4303.0
 20
1557.8622
 30
0.0
 11
4318.0
 21
1557.8622
 31
0.0
  0
LINE
  5
114
330
17
100
AcDbEntity
  8
FLOOR_0_WALLS
 62
5
100
AcDbLine
 10
4303.0
 20
1853.8622
 30
0.0
 11
4318.0
 21
1853.8622
 31
0.0
  0
LINE
  5
115
330
17
100
AcDbEntity
  8
FLOOR_0_WALLS
 62
5
100
AcDbLine
 10
4305.5
 20
1555.3622
 30
0.0
 11
4305.5
 21
1856.3622
 31
0.0
  0
CIRCLE
  5
116
330
17
100
AcDbEntity
  8
FLOOR_0_PAINTINGS
 62
1
100
AcDbCircle
 10
4305.5
 20
1555.3622
 30
0.0
 40
50.0
  0
TEXT
  5
117
330
17
100
AcDbEntity
  8
FLOOR_0_PAINTINGS
 62
1
100
AcDbText
 10
4305.5
 20
1655.3622
 30
0.0
 40
100.0
  1
0_0781
100
AcDbText
  0
LINE
  5
118
330
17
100
AcDbEntity
  8
FLOOR_0_WALLS
 62
5
100
AcDbLine
 10
4307.0
 20
571.8622
 30
0.0
 11
4322.0
 21
571.8622
 31
0.0
  0
LINE
  5
119
330
17
100
AcDbEntity
  8
FLOOR_0_WALLS
 62
5
100
AcDbLine
 10
4307.0
 20
846.8622
 30
0.0
 11
4322.0
 21
846.8622
 31
0.0
  0
LINE
  5
11A
330
17
100
AcDbEntity
  8
FLOOR_0_WALLS
 62
5
100
AcDbLine
 10
4309.5
 20
569.3622
 30
0.0
 11
4309.5
 21
849.3622
 31
0.0
  0
CIRCLE
  5
11B
330
17
100
AcDbEntity
  8
FLOOR_0_PAINTINGS
 62
1
100
AcDbCircle
 10
4309.5
 20
569.3622
 30
0.0
 40
50.0
  0
TEXT
  5
11C
330
17
100
AcDbEntity
  8
FLOOR_0_PAINTINGS
 62
1
100
AcDbText
 10
4309.5
 20
669.3622
 30
0.0
 40
100.0
  1
0_0720
100
AcDbText
  0
LINE
  5
11D
330
17
100
AcDbEntity
  8
FLOOR_0_WALLS
 62
5
100
AcDbLine
 10
4315.5
 20
1856.3622
 30
0.0
 11
4315.5
 21
1555.3622
 31
0.0
  0
CIRCLE
  5
11E
330
17
100
AcDbEntity
  8
FLOOR_0_PAINTINGS
 62
1
100
AcDbCircle
 10
4315.5
 20
1856.3622
 30
0.0
 40
50.0
  0
TEXT
  5
11F
330
17
100
AcDbEntity
  8
FLOOR_0_PAINTINGS
 62
1
100
AcDbText
 10
4315.5
 20
1956.3622
 30
0.0
 40
100.0
  1
0_0813
100
AcDbText
  0
CIRCLE
  5
120
330
17
100
AcDbEntity
  8
FLOOR_0_PAINTINGS
 62
1
100
AcDbCircle
 10
4315.5
 20
1856.3622
 30
0.0
 40
50.0
  0
TEXT
  5
121
330
17
100
AcDbEntity
  8
FLOOR_0_PAINTINGS
 62
1
100
AcDbText
 10
4315.5
 20
1956.3622
 30
0.0
 40
100.0
  1
0_0815
100
AcDbText
  0
LINE
  5
122
330
17
100
AcDbEntity
  8
FLOOR_0_WALLS
 62
5
100
AcDbLine
 10
4319.5
 20
849.3622
 30
0.0
 11
4319.5
 21
569.3622
 31
0.0
  0
CIRCLE
  5
123
330
17
100
AcDbEntity
  8
FLOOR_0_PAINTINGS
 62
1
100
AcDbCircle
 10
4319.5
 20
849.3622
 30
0.0
 40
50.0
  0
TEXT
  5
124
330
17
100
AcDbEntity
  8
FLOOR_0_PAINTINGS
 62
1
100
AcDbText
 10
4319.5
 20
949.3622
 30
0.0
 40
100.0
  1
0_0375
100
AcDbText
  0
LINE
  5
125
330
17
100
AcDbEntity
  8
FLOOR_0_WALLS
 62
5
100
AcDbLine
 10
4906.0
 20
2031.8622
 30
0.0
 11
4486.0
 21
2031.8622
 31
0.0
  0
CIRCLE
  5
126
330
17
100
AcDbEntity
  8
FLOOR_0_PAINTINGS
 62
1
100
AcDbCircle
 10
4906.0
 20
2031.8622
 30
0.0
 40
50.0
  0
TEXT
  5
127
330
17
100
AcDbEntity
  8
FLOOR_0_PAINTINGS
 62
1
100
AcDbText
 10
4906.0
 20
2131.8622
 30
0.0
 40
100.0
  1
0_0821
100
AcDbText
  0
CIRCLE
  5
128
330
17
100
AcDbEntity
  8
FLOOR_0_PAINTINGS
 62
1
100
AcDbCircle
 10
4906.0
 20
2031.8622
 30
0.0
 40
50.0
  0
TEXT
  5
129
330
17
100
AcDbEntity
  8
FLOOR_0_PAINTINGS
 62
1
100
AcDbText
 10
4906.0
 20
2131.8622
 30
0.0
 40
100.0
  1
0_0817
100
AcDbText
  0
LINE
  5
12A
330
17
100
AcDbEntity
  8
FLOOR_0_WALLS
 62
5
100
AcDbLine
 10
4486.0
 20
2041.8622
 30
0.0
 11
4906.0
 21
2041.8622
 31
0.0
  0
CIRCLE
  5
12B
330
17
100
AcDbEntity
  8
FLOOR_0_PAINTINGS
 62
1
100
AcDbCircle
 10
4486.0
 20
2041.8622
 30
0.0
 40
50.0
  0
TEXT
  5
12C
330
17
100
AcDbEntity
  8
FLOOR_0_PAINTINGS
 62
1
100
AcDbText
 10
4486.0
 20
2141.8622
 30
0.0
 40
100.0
  1
0_0801
100
AcDbText
  0
CIRCLE
  5
12D
330
17
100
AcDbEntity
  8
FLOOR_0_PAINTINGS
 62
1
100
AcDbCircle
 10
4486.0
 20
2041.8622
 30
0.0
 40
50.0
  0
TEXT
  5
12E
330
17
100
AcDbEntity
  8
FLOOR_0_PAINTINGS
 62
1
100
AcDbText
 10
4486.0
 20
2141.8622
 30
0.0
 40
100.0
  1
0_0803
100
AcDbText
  0
CIRCLE
  5
12F
330
17
100
AcDbEntity
  8
FLOOR_0_PAINTINGS
 62
1
100
AcDbCircle
 10
4486.0
 20
2041.8622
 30
0.0
 40
50.0
  0
TEXT
  5
130
330
17
100
AcDbEntity
  8
FLOOR_0_PAINTINGS
 62
1
100
AcDbText
 10
4486.0
 20
2141.8622
 30
0.0
 40
100.0
  1
0_0337
100
AcDbText
  0
LINE
  5
131
330
17
100
AcDbEntity
  8
FLOOR_0_WALLS
 62
5
100
AcDbLine
 10
4728.0
 20
1693.8622
 30
0.0
 11
4487.0
 21
1693.8622
 31
0.0
  0
CIRCLE
  5
132
330
17
100
AcDbEntity
  8
FLOOR_0_PAINTINGS
 62
1
100
AcDbCircle
 10
4728.0
 20
1693.8622
 30
0.0
 40
50.0
  0
TEXT
  5
133
330
17
100
AcDbEntity
  8
FLOOR_0_PAINTINGS
 62
1
100
AcDbText
 10
4728.0
 20
1793.8622
 30
0.0
 40
100.0
  1
0_0829
100
AcDbText
  0
LINE
  5
134
330
17
100
AcDbEntity
  8
FLOOR_0_WALLS
 62
5
100
AcDbLine
 10
4487.0
 20
1703.8622
 30
0.0
 11
4728.0
 21
1703.8622
 31
0.0
  0
CIRCLE
  5
135
330
17
100
AcDbEntity
  8
FLOOR_0_PAINTINGS
 62
1
100
AcDbCircle
 10
4487.0
 20
1703.8622
 30
0.0
 40
50.0
  0
TEXT
  5
136
330
17
100
AcDbEntity
  8
FLOOR_0_PAINTINGS
 62
1
100
AcDbText
 10
4487.0
 20
1803.8622
 30
0.0
 40
100.0
  1
0_0819
100
AcDbText
  0
LINE
  5
137
330
17
100
AcDbEntity
  8
FLOOR_0_WALLS
 62
5
100
AcDbLine
 10
4488.5
 20
2029.3622
 30
0.0
 11
4488.5
 21
2044.3622
 31
0.0
  0
LINE
  5
138
330
17
100
AcDbEntity
  8
FLOOR_0_WALLS
 62
5
100
AcDbLine
 10
4489.5
 20
1691.3622
 30
0.0
 11
4489.5
 21
1706.3622
 31
0.0
  0
LINE
  5
139
330
17
100
AcDbEntity
  8
FLOOR_0_WALLS
 62
5
100
AcDbLine
 10
4725.5
 20
1691.3622
 30
0.0
 11
4725.5
 21
1706.3622
 31
0.0
  0
LINE
  5
13A
330
17
100
AcDbEntity
  8
FLOOR_0_WALLS
 62
5
100
AcDbLine
 10
4728.5
 20
969.3622
 30
0.0
 11
4728.5
 21
984.3622
 31
0.0
  0
LINE
  5
13B
330
17
100
AcDbEntity
  8
FLOOR_0_WALLS
 62
5
100
AcDbLine
 10
5294.0
 20
699.8895
 30
0.0
 11
4874.0
 21
699.8895
 31
0.0
  0
CIRCLE
  5
13C
330
17
100
AcDbEntity
  8
FLOOR_0_PAINTINGS
 62
1
100
AcDbCircle
 10
5294.0
 20
699.8895
 30
0.0
 40
50.0
  0
TEXT
  5
13D
330
17
100
AcDbEntity
  8
FLOOR_0_PAINTINGS
 62
1
100
AcDbText
 10
5294.0
 20
799.8895
 30
0.0
 40
100.0
  1
0_0742
100
AcDbText
  0
CIRCLE
  5
13E
330
17
100
AcDbEntity
  8
FLOOR_0_PAINTINGS
 62
1
100
AcDbCircle
 10
5294.0
 20
699.8895
 30
0.0
 40
50.0
  0
TEXT
  5
13F
330
17
100
AcDbEntity
  8
FLOOR_0_PAINTINGS
 62
1
100
AcDbText
 10
5294.0
 20
799.8895
 30
0.0
 40
100.0
  1
0_0741
100
AcDbText
  0
CIRCLE
  5
140
330
17
100
AcDbEntity
  8
FLOOR_0_PAINTINGS
 62
1
100
AcDbCircle
 10
5294.0
 20
699.8895
 30
0.0
 40
50.0
  0
TEXT
  5
141
330
17
100
AcDbEntity
  8
FLOOR_0_PAINTINGS
 62
1
100
AcDbText
 10
5294.0
 20
799.8895
 30
0.0
 40
100.0
  1
0_0739
100
AcDbText
  0
CIRCLE
  5
142
330
17
100
AcDbEntity
  8
FLOOR_0_PAINTINGS
 62
1
100
AcDbCircle
 10
5294.0
 20
699.8895
 30
0.0
 40
50.0
  0
TEXT
  5
143
330
17
100
AcDbEntity
  8
FLOOR_0_PAINTINGS
 62
1
100
AcDbText
 10
5294.0
 20
799.8895
 30
0.0
 40
100.0
  1
0_0737
100
AcDbText
  0
CIRCLE
  5
144
330
17
100
AcDbEntity
  8
FLOOR_0_PAINTINGS
 62
1
100
AcDbCircle
 10
5294.0
 20
699.8895
 30
0.0
 40
50.0
  0
TEXT
  5
145
330
17
100
AcDbEntity
  8
FLOOR_0_PAINTINGS
 62
1
100
AcDbText
 10
5294.0
 20
799.8895
 30
0.0
 40
100.0
  1
0_0735
100
AcDbText
  0
CIRCLE
  5
146
330
17
100
AcDbEntity
  8
FLOOR_0_PAINTINGS
 62
1
100
AcDbCircle
 10
5294.0
 20
699.8895
 30
0.0
 40
50.0
  0
TEXT
  5
147
330
17
100
AcDbEntity
  8
FLOOR_0_PAINTINGS
 62
1
100
AcDbText
 10
5294.0
 20
799.8895
 30
0.0
 40
100.0
  1
0_0733
100
AcDbText
  0
CIRCLE
  5
148
330
17
100
AcDbEntity
  8
FLOOR_0_PAINTINGS
 62
1
100
AcDbCircle
 10
5294.0
 20
699.8895
 30
0.0
 40
50.0
  0
TEXT
  5
149
330
17
100
AcDbEntity
  8
FLOOR_0_PAINTINGS
 62
1
100
AcDbText
 10
5294.0
 20
799.8895
 30
0.0
 40
100.0
  1
0_0731
100
AcDbText
  0
LINE
  5
14A
330
17
100
AcDbEntity
  8
FLOOR_0_WALLS
 62
5
100
AcDbLine
 10
4874.0
 20
710.00678
 30
0.0
 11
5294.0
 21
710.00678
 31
0.0
  0
CIRCLE
  5
14B
330
17
100
AcDbEntity
  8
FLOOR_0_PAINTINGS
 62
1
100
AcDbCircle
 10
4874.0
 20
710.00678
 30
0.0
 40
50.0
  0
TEXT
  5
14C
330
17
100
AcDbEntity
  8
FLOOR_0_PAINTINGS
 62
1
100
AcDbText
 10
4874.0
 20
810.00678
 30
0.0
 40
100.0
  1
0_0749
100
AcDbText
  0
CIRCLE
  5
14D
330
17
100
AcDbEntity
  8
FLOOR_0_PAINTINGS
 62
1
100
AcDbCircle
 10
4874.0
 20
710.00678
 30
0.0
 40
50.0
  0
TEXT
  5
14E
330
17
100
AcDbEntity
  8
FLOOR_0_PAINTINGS
 62
1
100
AcDbText
 10
4874.0
 20
810.00678
 30
0.0
 40
100.0
  1
0_0751
100
AcDbText
  0
CIRCLE
  5
14F
330
17
100
AcDbEntity
  8
FLOOR_0_PAINTINGS
 62
1
100
AcDbCircle
 10
4874.0
 20
710.00678
 30
0.0
 40
50.0
  0
TEXT
  5
150
330
17
100
AcDbEntity
  8
FLOOR_0_PAINTINGS
 62
1
100
AcDbText
 10
4874.0
 20
810.00678
 30
0.0
 40
100.0
  1
0_0753
100
AcDbText
  0
CIRCLE
  5
151
330
17
100
AcDbEntity
  8
FLOOR_0_PAINTINGS
 62
1
100
AcDbCircle
 10
4874.0
 20
710.00678
 30
0.0
 40
50.0
  0
TEXT
  5
152
330
17
100
AcDbEntity
  8
FLOOR_0_PAINTINGS
 62
1
100
AcDbText
 10
4874.0
 20
810.00678
 30
0.0
 40
100.0
  1
0_0755
100
AcDbText
  0
CIRCLE
  5
153
330
17
100
AcDbEntity
  8
FLOOR_0_PAINTINGS
 62
1
100
AcDbCircle
 10
4874.0
 20
710.00678
 30
0.0
 40
50.0
  0
TEXT
  5
154
330
17
100
AcDbEntity
  8
FLOOR_0_PAINTINGS
 62
1
100
AcDbText
 10
4874.0
 20
810.00678
 30
0.0
 40
100.0
  1
0_0757
100
AcDbText
  0
LINE
  5
155
330
17
100
AcDbEntity
  8
FLOOR_0_WALLS
 62
5
100
AcDbLine
 10
4876.5
 20
697.3622
 30
0.0
 11
4876.5
 21
712.3622
 31
0.0
  0
LINE
  5
156
330
17
100
AcDbEntity
  8
FLOOR_0_WALLS
 62
5
100
AcDbLine
 10
4903.5
 20
2029.3622
 30
0.0
 11
4903.5
 21
2044.3622
 31
0.0
  0
LINE
  5
157
330
17
100
AcDbEntity
  8
FLOOR_0_WALLS
 62
5
100
AcDbLine
 10
5023.0
 20
2057.8622
 30
0.0
 11
5038.0
 21
2057.8622
 31
0.0
  0
LINE
  5
158
330
17
100
AcDbEntity
  8
FLOOR_0_WALLS
 62
5
100
AcDbLine
 10
5023.0
 20
2233.8622
 30
0.0
 11
5038.0
 21
2233.8622
 31
0.0
  0
LINE
  5
159
330
17
100
AcDbEntity
  8
FLOOR_0_WALLS
 62
5
100
AcDbLine
 10
5025.5
 20
2055.3622
 30
0.0
 11
5025.5
 21
2236.3622
 31
0.0
  0
CIRCLE
  5
15A
330
17
100
AcDbEntity
  8
FLOOR_0_PAINTINGS
 62
1
100
AcDbCircle
 10
5025.5
 20
2055.3622
 30
0.0
 40
50.0
  0
TEXT
  5
15B
330
17
100
AcDbEntity
  8
FLOOR_0_PAINTINGS
 62
1
100
AcDbText
 10
5025.5
 20
2155.3622
 30
0.0
 40
100.0
  1
0_0807
100
AcDbText
  0
CIRCLE
  5
15C
330
17
100
AcDbEntity
  8
FLOOR_0_PAINTINGS
 62
1
100
AcDbCircle
 10
5025.5
 20
2055.3622
 30
0.0
 40
50.0
  0
TEXT
  5
15D
330
17
100
AcDbEntity
  8
FLOOR_0_PAINTINGS
 62
1
100
AcDbText
 10
5025.5
 20
2155.3622
 30
0.0
 40
100.0
  1
0_0809
100
AcDbText
  0
LINE
  5
15E
330
17
100
AcDbEntity
  8
FLOOR_0_WALLS
 62
5
100
AcDbLine
 10
5035.5
 20
2236.3622
 30
0.0
 11
5035.5
 21
2055.3622
 31
0.0
  0
CIRCLE
  5
15F
330
17
100
AcDbEntity
  8
FLOOR_0_PAINTINGS
 62
1
100
AcDbCircle
 10
5035.5
 20
2236.3622
 30
0.0
 40
50.0
  0
TEXT
  5
160
330
17
100
AcDbEntity
  8
FLOOR_0_PAINTINGS
 62
1
100
AcDbText
 10
5035.5
 20
2336.3622
 30
0.0
 40
100.0
  1
0_0962
100
AcDbText
  0
LINE
  5
161
330
17
100
AcDbEntity
  8
FLOOR_0_WALLS
 62
5
100
AcDbLine
 10
5071.0076
 20
2440.8966
 30
0.0
 11
5094.0076
 21
2440.8966
 31
0.0
  0
LINE
  5
162
330
17
100
AcDbEntity
  8
FLOOR_0_WALLS
 62
5
100
AcDbLine
 10
5091.5076
 20
2438.3966
 30
0.0
 11
5091.5076
 21
2796.3965
 31
0.0
  0
LINE
  5
163
330
17
100
AcDbEntity
  8
FLOOR_0_WALLS
 62
5
100
AcDbLine
 10
5094.0076
 20
2798.8965
 30
0.0
 11
5259.0076
 21
2798.8965
 31
0.0
  0
LINE
  5
164
330
17
100
AcDbEntity
  8
FLOOR_0_WALLS
 62
5
100
AcDbLine
 10
5146.0
 20
1663.8622
 30
0.0
 11
5161.0
 21
1663.8622
 31
0.0
  0
LINE
  5
165
330
17
100
AcDbEntity
  8
FLOOR_0_WALLS
 62
5
100
AcDbLine
 10
5146.0
 20
1999.8622
 30
0.0
 11
5161.0
 21
1999.8622
 31
0.0
  0
LINE
  5
166
330
17
100
AcDbEntity
  8
FLOOR_0_WALLS
 62
5
100
AcDbLine
 10
5148.5
 20
1661.3622
 30
0.0
 11
5148.5
 21
2002.3622
 31
0.0
  0
CIRCLE
  5
167
330
17
100
AcDbEntity
  8
FLOOR_0_PAINTINGS
 62
1
100
AcDbCircle
 10
5148.5
 20
1661.3622
 30
0.0
 40
50.0
  0
TEXT
  5
168
330
17
100
AcDbEntity
  8
FLOOR_0_PAINTINGS
 62
1
100
AcDbText
 10
5148.5
 20
1761.3622
 30
0.0
 40
100.0
  1
0_0824
100
AcDbText
  0
LINE
  5
169
330
17
100
AcDbEntity
  8
FLOOR_0_WALLS
 62
5
100
AcDbLine
 10
5158.5
 20
2002.3622
 30
0.0
 11
5158.5
 21
1661.3622
 31
0.0
  0
CIRCLE
  5
16A
330
17
100
AcDbEntity
  8
FLOOR_0_PAINTINGS
 62
1
100
AcDbCircle
 10
5158.5
 20
2002.3622
 30
0.0
 40
50.0
  0
TEXT
  5
16B
330
17
100
AcDbEntity
  8
FLOOR_0_PAINTINGS
 62
1
100
AcDbText
 10
5158.5
 20
2102.3622
 30
0.0
 40
100.0
  1
0_0841
100
AcDbText
  0
LINE
  5
16C
330
17
100
AcDbEntity
  8
FLOOR_0_WALLS
 62
5
100
AcDbLine
 10
5259.0076
 20
2798.8965
 30
0.0
 11
5312.0076
 21
2798.8965
 31
0.0
  0
LINE
  5
16D
330
17
100
AcDbEntity
  8
FLOOR_0_WALLS
 62
5
100
AcDbLine
 10
5291.5
 20
697.3622
 30
0.0
 11
5291.5
 21
712.3622
 31
0.0
  0
LINE
  5
16E
330
17
100
AcDbEntity
  8
FLOOR_0_WALLS
 62
5
100
AcDbLine
 10
6108.0
 20
1916.8622
 30
0.0
 11
5301.0
 21
1916.8622
 31
0.0
  0
CIRCLE
  5
16F
330
17
100
AcDbEntity
  8
FLOOR_0_PAINTINGS
 62
1
100
AcDbCircle
 10
6108.0
 20
1916.8622
 30
0.0
 40
50.0
  0
TEXT
  5
170
330
17
100
AcDbEntity
  8
FLOOR_0_PAINTINGS
 62
1
100
AcDbText
 10
6108.0
 20
2016.8622
 30
0.0
 40
100.0
  1
0_0869
100
AcDbText
  0
CIRCLE
  5
171
330
17
100
AcDbEntity
  8
FLOOR_0_PAINTINGS
 62
1
100
AcDbCircle
 10
6108.0
 20
1916.8622
 30
0.0
 40
50.0
  0
TEXT
  5
172
330
17
100
AcDbEntity
  8
FLOOR_0_PAINTINGS
 62
1
100
AcDbText
 10
6108.0
 20
2016.8622
 30
0.0
 40
100.0
  1
0_0843
100
AcDbText
  0
LINE
  5
173
330
17
100
AcDbEntity
  8
FLOOR_0_WALLS
 62
5
100
AcDbLine
 10
5301.0
 20
1926.8622
 30
0.0
 11
6108.0
 21
1926.8622
 31
0.0
  0
CIRCLE
  5
174
330
17
100
AcDbEntity
  8
FLOOR_0_PAINTINGS
 62
1
100
AcDbCircle
 10
5301.0
 20
1926.8622
 30
0.0
 40
50.0
  0
TEXT
  5
175
330
17
100
AcDbEntity
  8
FLOOR_0_PAINTINGS
 62
1
100
AcDbText
 10
5301.0
 20
2026.8622
 30
0.0
 40
100.0
  1
0_0347
100
AcDbText
  0
CIRCLE
  5
176
330
17
100
AcDbEntity
  8
FLOOR_0_PAINTINGS
 62
1
100
AcDbCircle
 10
5301.0
 20
1926.8622
 30
0.0
 40
50.0
  0
TEXT
  5
177
330
17
100
AcDbEntity
  8
FLOOR_0_PAINTINGS
 62
1
100
AcDbText
 10
5301.0
 20
2026.8622
 30
0.0
 40
100.0
  1
0_0958
100
AcDbText
  0
CIRCLE
  5
178
330
17
100
AcDbEntity
  8
FLOOR_0_PAINTINGS
 62
1
100
AcDbCircle
 10
5301.0
 20
1926.8622
 30
0.0
 40
50.0
  0
TEXT
  5
179
330
17
100
AcDbEntity
  8
FLOOR_0_PAINTINGS
 62
1
100
AcDbText
 10
5301.0
 20
2026.8622
 30
0.0
 40
100.0
  1
0_0350
100
AcDbText
  0
CIRCLE
  5
17A
330
17
100
AcDbEntity
  8
FLOOR_0_PAINTINGS
 62
1
100
AcDbCircle
 10
5301.0
 20
1926.8622
 30
0.0
 40
50.0
  0
TEXT
  5
17B
330
17
100
AcDbEntity
  8
FLOOR_0_PAINTINGS
 62
1
100
AcDbText
 10
5301.0
 20
2026.8622
 30
0.0
 40
100.0
  1
0_0960
100
AcDbText
  0
CIRCLE
  5
17C
330
17
100
AcDbEntity
  8
FLOOR_0_PAINTINGS
 62
1
100
AcDbCircle
 10
5301.0
 20
1926.8622
 30
0.0
 40
50.0
  0
TEXT
  5
17D
330
17
100
AcDbEntity
  8
FLOOR_0_PAINTINGS
 62
1
100
AcDbText
 10
5301.0
 20
2026.8622
 30
0.0
 40
100.0
  1
0_0353
100
AcDbText
  0
CIRCLE
  5
17E
330
17
100
AcDbEntity
  8
FLOOR_0_PAINTINGS
 62
1
100
AcDbCircle
 10
5301.0
 20
1926.8622
 30
0.0
 40
50.0
  0
TEXT
  5
17F
330
17
100
AcDbEntity
  8
FLOOR_0_PAINTINGS
 62
1
100
AcDbText
 10
5301.0
 20
2026.8622
 30
0.0
 40
100.0
  1
0_0356
100
AcDbText
  0
CIRCLE
  5
180
330
17
100
AcDbEntity
  8
FLOOR_0_PAINTINGS
 62
1
100
AcDbCircle
 10
5301.0
 20
1926.8622
 30
0.0
 40
50.0
  0
TEXT
  5
181
330
17
100
AcDbEntity
  8
FLOOR_0_PAINTINGS
 62
1
100
AcDbText
 10
5301.0
 20
2026.8622
 30
0.0
 40
100.0
  1
0_0967
100
AcDbText
  0
LINE
  5
182
330
17
100
AcDbEntity
  8
FLOOR_0_WALLS
 62
5
100
AcDbLine
 10
5303.5
 20
1914.3622
 30
0.0
 11
5303.5
 21
1929.3622
 31
0.0
  0
LINE
  5
183
330
17
100
AcDbEntity
  8
FLOOR_0_WALLS
 62
5
100
AcDbLine
 10
5306.0
 20
1374.8622
 30
0.0
 11
5321.0
 21
1374.8622
 31
0.0
  0
LINE
  5
184
330
17
100
AcDbEntity
  8
FLOOR_0_WALLS
 62
5
100
AcDbLine
 10
5306.0
 20
1549.8622
 30
0.0
 11
5321.0
 21
1549.8622
 31
0.0
  0
LINE
  5
185
330
17
100
AcDbEntity
  8
FLOOR_0_WALLS
 62
5
100
AcDbLine
 10
5308.5
 20
1372.3622
 30
0.0
 11
5308.5
 21
1552.3622
 31
0.0
  0
CIRCLE
  5
186
330
17
100
AcDbEntity
  8
FLOOR_0_PAINTINGS
 62
1
100
AcDbCircle
 10
5308.5
 20
1372.3622
 30
0.0
 40
50.0
  0
TEXT
  5
187
330
17
100
AcDbEntity
  8
FLOOR_0_PAINTINGS
 62
1
100
AcDbText
 10
5308.5
 20
1472.3622
 30
0.0
 40
100.0
  1
0_0833
100
AcDbText
  0
CIRCLE
  5
188
330
17
100
AcDbEntity
  8
FLOOR_0_PAINTINGS
 62
1
100
AcDbCircle
 10
5308.5
 20
1372.3622
 30
0.0
 40
50.0
  0
TEXT
  5
189
330
17
100
AcDbEntity
  8
FLOOR_0_PAINTINGS
 62
1
100
AcDbText
 10
5308.5
 20
1472.3622
 30
0.0
 40
100.0
  1
0_0831
100
AcDbText
  0
LINE
  5
18A
330
17
100
AcDbEntity
  8
FLOOR_0_WALLS
 62
5
100
AcDbLine
 10
5312.0076
 20
2440.8966
 30
0.0
 11
5335.0076
 21
2440.8966
 31
0.0
  0
LINE
  5
18B
330
17
100
AcDbEntity
  8
FLOOR_0_WALLS
 62
5
100
AcDbLine
 10
5314.5076
 20
2438.3966
 30
0.0
 11
5314.5076
 21
2796.3965
 31
0.0
  0
LINE
  5
18C
330
17
100
AcDbEntity
  8
FLOOR_0_WALLS
 62
5
100
AcDbLine
 10
5318.5
 20
1552.3622
 30
0.0
 11
5318.5
 21
1372.3622
 31
0.0
  0
CIRCLE
  5
18D
330
17
100
AcDbEntity
  8
FLOOR_0_PAINTINGS
 62
1
100
AcDbCircle
 10
5318.5
 20
1552.3622
 30
0.0
 40
50.0
  0
TEXT
  5
18E
330
17
100
AcDbEntity
  8
FLOOR_0_PAINTINGS
 62
1
100
AcDbText
 10
5318.5
 20
1652.3622
 30
0.0
 40
100.0
  1
0_0853
100
AcDbText
  0
CIRCLE
  5
18F
330
17
100
AcDbEntity
  8
FLOOR_0_PAINTINGS
 62
1
100
AcDbCircle
 10
5318.5
 20
1552.3622
 30
0.0
 40
50.0
  0
TEXT
  5
190
330
17
100
AcDbEntity
  8
FLOOR_0_PAINTINGS
 62
1
100
AcDbText
 10
5318.5
 20
1652.3622
 30
0.0
 40
100.0
  1
0_0855
100
AcDbText
  0
LINE
  5
191
330
17
100
AcDbEntity
  8
FLOOR_0_WALLS
 62
5
100
AcDbLine
 10
5413.0
 20
604.8622
 30
0.0
 11
5428.0
 21
604.8622
 31
0.0
  0
LINE
  5
192
330
17
100
AcDbEntity
  8
FLOOR_0_WALLS
 62
5
100
AcDbLine
 10
5413.0
 20
1021.8622
 30
0.0
 11
5428.0
 21
1021.8622
 31
0.0
  0
LINE
  5
193
330
17
100
AcDbEntity
  8
FLOOR_0_WALLS
 62
5
100
AcDbLine
 10
5415.5
 20
602.3622
 30
0.0
 11
5415.5
 21
1024.3622
 31
0.0
  0
CIRCLE
  5
194
330
17
100
AcDbEntity
  8
FLOOR_0_PAINTINGS
 62
1
100
AcDbCircle
 10
5415.5
 20
602.3622
 30
0.0
 40
50.0
  0
TEXT
  5
195
330
17
100
AcDbEntity
  8
FLOOR_0_PAINTINGS
 62
1
100
AcDbText
 10
5415.5
 20
702.3622
 30
0.0
 40
100.0
  1
0_0767
100
AcDbText
  0
CIRCLE
  5
196
330
17
100
AcDbEntity
  8
FLOOR_0_PAINTINGS
 62
1
100
AcDbCircle
 10
5415.5
 20
602.3622
 30
0.0
 40
50.0
  0
TEXT
  5
197
330
17
100
AcDbEntity
  8
FLOOR_0_PAINTINGS
 62
1
100
AcDbText
 10
5415.5
 20
702.3622
 30
0.0
 40
100.0
  1
0_0765
100
AcDbText
  0
CIRCLE
  5
198
330
17
100
AcDbEntity
  8
FLOOR_0_PAINTINGS
 62
1
100
AcDbCircle
 10
5415.5
 20
602.3622
 30
0.0
 40
50.0
  0
TEXT
  5
199
330
17
100
AcDbEntity
  8
FLOOR_0_PAINTINGS
 62
1
100
AcDbText
 10
5415.5
 20
702.3622
 30
0.0
 40
100.0
  1
0_0763
100
AcDbText
  0
CIRCLE
  5
19A
330
17
100
AcDbEntity
  8
FLOOR_0_PAINTINGS
 62
1
100
AcDbCircle
 10
5415.5
 20
602.3622
 30
0.0
 40
50.0
  0
TEXT
  5
19B
330
17
100
AcDbEntity
  8
FLOOR_0_PAINTINGS
 62
1
100
AcDbText
 10
5415.5
 20
702.3622
 30
0.0
 40
100.0
  1
0_0761
100
AcDbText
  0
CIRCLE
  5
19C
330
17
100
AcDbEntity
  8
FLOOR_0_PAINTINGS
 62
1
100
AcDbCircle
 10
5415.5
 20
602.3622
 30
0.0
 40
50.0
  0
TEXT
  5
19D
330
17
100
AcDbEntity
  8
FLOOR_0_PAINTINGS
 62
1
100
AcDbText
 10
5415.5
 20
702.3622
 30
0.0
 40
100.0
  1
0_0759
100
AcDbText
  0
LINE
  5
19E
330
17
100
AcDbEntity
  8
FLOOR_0_WALLS
 62
5
100
AcDbLine
 10
5425.5
 20
1024.3622
 30
0.0
 11
5425.5
 21
602.3622
 31
0.0
  0
CIRCLE
  5
19F
330
17
100
AcDbEntity
  8
FLOOR_0_PAINTINGS
 62
1
100
AcDbCircle
 10
5425.5
 20
1024.3622
 30
0.0
 40
50.0
  0
TEXT
  5
1A0
330
17
100
AcDbEntity
  8
FLOOR_0_PAINTINGS
 62
1
100
AcDbText
 10
5425.5
 20
1124.3622
 30
0.0
 40
100.0
  1
0_0875
100
AcDbText
  0
CIRCLE
  5
1A1
330
17
100
AcDbEntity
  8
FLOOR_0_PAINTINGS
 62
1
100
AcDbCircle
 10
5425.5
 20
1024.3622
 30
0.0
 40
50.0
  0
TEXT
  5
1A2
330
17
100
AcDbEntity
  8
FLOOR_0_PAINTINGS
 62
1
100
AcDbText
 10
5425.5
 20
1124.3622
 30
0.0
 40
100.0
  1
0_0877
100
AcDbText
  0
CIRCLE
  5
1A3
330
17
100
AcDbEntity
  8
FLOOR_0_PAINTINGS
 62
1
100
AcDbCircle
 10
5425.5
 20
1024.3622
 30
0.0
 40
50.0
  0
TEXT
  5
1A4
330
17
100
AcDbEntity
  8
FLOOR_0_PAINTINGS
 62
1
100
AcDbText
 10
5425.5
 20
1124.3622
 30
0.0
 40
100.0
  1
0_0879
100
AcDbText
  0
LINE
  5
1A5
330
17
100
AcDbEntity
  8
FLOOR_0_WALLS
 62
5
100
AcDbLine
 10
5954.0
 20
531.8622
 30
0.0
 11
5533.0
 21
531.8622
 31
0.0
  0
CIRCLE
  5
1A6
330
17
100
AcDbEntity
  8
FLOOR_0_PAINTINGS
 62
1
100
AcDbCircle
 10
5954.0
 20
531.8622
 30
0.0
 40
50.0
  0
TEXT
  5
1A7
330
17
100
AcDbEntity
  8
FLOOR_0_PAINTINGS
 62
1
100
AcDbText
 10
5954.0
 20
631.8622
 30
0.0
 40
100.0
  1
0_0894
100
AcDbText
  0
LINE
  5
1A8
330
17
100
AcDbEntity
  8
FLOOR_0_WALLS
 62
5
100
AcDbLine
 10
5533.0
 20
541.8622
 30
0.0
 11
5954.0
 21
541.8622
 31
0.0
  0
CIRCLE
  5
1A9
330
17
100
AcDbEntity
  8
FLOOR_0_PAINTINGS
 62
1
100
AcDbCircle
 10
5533.0
 20
541.8622
 30
0.0
 40
50.0
  0
TEXT
  5
1AA
330
17
100
AcDbEntity
  8
FLOOR_0_PAINTINGS
 62
1
100
AcDbText
 10
5533.0
 20
641.8622
 30
0.0
 40
100.0
  1
0_0881
100
AcDbText
  0
CIRCLE
  5
1AB
330
17
100
AcDbEntity
  8
FLOOR_0_PAINTINGS
 62
1
100
AcDbCircle
 10
5533.0
 20
541.8622
 30
0.0
 40
50.0
  0
TEXT
  5
1AC
330
17
100
AcDbEntity
  8
FLOOR_0_PAINTINGS
 62
1
100
AcDbText
 10
5533.0
 20
641.8622
 30
0.0
 40
100.0
  1
0_0883
100
AcDbText
  0
CIRCLE
  5
1AD
330
17
100
AcDbEntity
  8
FLOOR_0_PAINTINGS
 62
1
100
AcDbCircle
 10
5533.0
 20
541.8622
 30
0.0
 40
50.0
  0
TEXT
  5
1AE
330
17
100
AcDbEntity
  8
FLOOR_0_PAINTINGS
 62
1
100
AcDbText
 10
5533.0
 20
641.8622
 30
0.0
 40
100.0
  1
0_0885
100
AcDbText
  0
CIRCLE
  5
1AF
330
17
100
AcDbEntity
  8
FLOOR_0_PAINTINGS
 62
1
100
AcDbCircle
 10
5533.0
 20
541.8622
 30
0.0
 40
50.0
  0
TEXT
  5
1B0
330
17
100
AcDbEntity
  8
FLOOR_0_PAINTINGS
 62
1
100
AcDbText
 10
5533.0
 20
641.8622
 30
0.0
 40
100.0
  1
0_0887
100
AcDbText
  0
LINE
  5
1B1
330
17
100
AcDbEntity
  8
FLOOR_0_WALLS
 62
5
100
AcDbLine
 10
5535.5
 20
529.3622
 30
0.0
 11
5535.5
 21
544.3622
 31
0.0
  0
LINE
  5
1B2
330
17
100
AcDbEntity
  8
FLOOR_0_WALLS
 62
5
100
AcDbLine
 10
6016.0
 20
972.8622
 30
0.0
 11
5737.0
 21
972.8622
 31
0.0
  0
CIRCLE
  5
1B3
330
17
100
AcDbEntity
  8
FLOOR_0_PAINTINGS
 62
1
100
AcDbCircle
 10
6016.0
 20
972.8622
 30
0.0
 40
50.0
  0
TEXT
  5
1B4
330
17
100
AcDbEntity
  8
FLOOR_0_PAINTINGS
 62
1
100
AcDbText
 10
6016.0
 20
1072.8622
 30
0.0
 40
100.0
  1
0_0439
100
AcDbText
  0
LINE
  5
1B5
330
17
100
AcDbEntity
  8
FLOOR_0_WALLS
 62
5
100
AcDbLine
 10
5737.0
 20
982.8622
 30
0.0
 11
6016.0
 21
982.8622
 31
0.0
  0
CIRCLE
  5
1B6
330
17
100
AcDbEntity
  8
FLOOR_0_PAINTINGS
 62
1
100
AcDbCircle
 10
5737.0
 20
982.8622
 30
0.0
 40
50.0
  0
TEXT
  5
1B7
330
17
100
AcDbEntity
  8
FLOOR_0_PAINTINGS
 62
1
100
AcDbText
 10
5737.0
 20
1082.8622
 30
0.0
 40
100.0
  1
0_0859
100
AcDbText
  0
LINE
  5
1B8
330
17
100
AcDbEntity
  8
FLOOR_0_WALLS
 62
5
100
AcDbLine
 10
5739.5
 20
970.3622
 30
0.0
 11
5739.5
 21
985.3622
 31
0.0
  0
LINE
  5
1B9
330
17
100
AcDbEntity
  8
FLOOR_0_WALLS
 62
5
100
AcDbLine
 10
5777.0
 20
1323.8622
 30
0.0
 11
5792.0
 21
1323.8622
 31
0.0
  0
LINE
  5
1BA
330
17
100
AcDbEntity
  8
FLOOR_0_WALLS
 62
5
100
AcDbLine
 10
5777.0
 20
1706.8622
 30
0.0
 11
5792.0
 21
1706.8622
 31
0.0
  0
LINE
  5
1BB
330
17
100
AcDbEntity
  8
FLOOR_0_WALLS
 62
5
100
AcDbLine
 10
5779.5
 20
1321.3622
 30
0.0
 11
5779.5
 21
1709.3622
 31
0.0
  0
CIRCLE
  5
1BC
330
17
100
AcDbEntity
  8
FLOOR_0_PAINTINGS
 62
1
100
AcDbCircle
 10
5779.5
 20
1321.3622
 30
0.0
 40
50.0
  0
TEXT
  5
1BD
330
17
100
AcDbEntity
  8
FLOOR_0_PAINTINGS
 62
1
100
AcDbText
 10
5779.5
 20
1421.3622
 30
0.0
 40
100.0
  1
0_0851
100
AcDbText
  0
CIRCLE
  5
1BE
330
17
100
AcDbEntity
  8
FLOOR_0_PAINTINGS
 62
1
100
AcDbCircle
 10
5779.5
 20
1321.3622
 30
0.0
 40
50.0
  0
TEXT
  5
1BF
330
17
100
AcDbEntity
  8
FLOOR_0_PAINTINGS
 62
1
100
AcDbText
 10
5779.5
 20
1421.3622
 30
0.0
 40
100.0
  1
0_0848
100
AcDbText
  0
CIRCLE
  5
1C0
330
17
100
AcDbEntity
  8
FLOOR_0_PAINTINGS
 62
1
100
AcDbCircle
 10
5779.5
 20
1321.3622
 30
0.0
 40
50.0
  0
TEXT
  5
1C1
330
17
100
AcDbEntity
  8
FLOOR_0_PAINTINGS
 62
1
100
AcDbText
 10
5779.5
 20
1421.3622
 30
0.0
 40
100.0
  1
0_0847
100
AcDbText
  0
CIRCLE
  5
1C2
330
17
100
AcDbEntity
  8
FLOOR_0_PAINTINGS
 62
1
100
AcDbCircle
 10
5779.5
 20
1321.3622
 30
0.0
 40
50.0
  0
TEXT
  5
1C3
330
17
100
AcDbEntity
  8
FLOOR_0_PAINTINGS
 62
1
100
AcDbText
 10
5779.5
 20
1421.3622
 30
0.0
 40
100.0
  1
0_0845
100
AcDbText
  0
LINE
  5
1C4
330
17
100
AcDbEntity
  8
FLOOR_0_WALLS
 62
5
100
AcDbLine
 10
5789.5
 20
1709.3622
 30
0.0
 11
5789.5
 21
1321.3622
 31
0.0
  0
CIRCLE
  5
1C5
330
17
100
AcDbEntity
  8
FLOOR_0_PAINTINGS
 62
1
100
AcDbCircle
 10
5789.5
 20
1709.3622
 30
0.0
 40
50.0
  0
TEXT
  5
1C6
330
17
100
AcDbEntity
  8
FLOOR_0_PAINTINGS
 62
1
100
AcDbText
 10
5789.5
 20
1809.3622
 30
0.0
 40
100.0
  1
0_0861
100
AcDbText
  0
LINE
  5
1C7
330
17
100
AcDbEntity
  8
FLOOR_0_WALLS
 62
5
100
AcDbLine
 10
5951.5
 20
529.3622
 30
0.0
 11
5951.5
 21
544.3622
 31
0.0
  0
LINE
  5
1C8
330
17
100
AcDbEntity
  8
FLOOR_0_WALLS
 62
5
100
AcDbLine
 10
6013.5
 20
970.3622
 30
0.0
 11
6013.5
 21
985.3622
 31
0.0
  0
LINE
  5
1C9
330
17
100
AcDbEntity
  8
FLOOR_0_WALLS
 62
5
100
AcDbLine
 10
6093.0
 20
2000.8622
 30
0.0
 11
6108.0
 21
2000.8622
 31
0.0
  0
LINE
  5
1CA
330
17
100
AcDbEntity
  8
FLOOR_0_WALLS
 62
5
100
AcDbLine
 10
6093.0
 20
2195.8622
 30
0.0
 11
6108.0
 21
2195.8622
 31
0.0
  0
LINE
  5
1CB
330
17
100
AcDbEntity
  8
FLOOR_0_WALLS
 62
5
100
AcDbLine
 10
6095.5
 20
1998.3622
 30
0.0
 11
6095.5
 21
2198.3622
 31
0.0
  0
CIRCLE
  5
1CC
330
17
100
AcDbEntity
  8
FLOOR_0_PAINTINGS
 62
1
100
AcDbCircle
 10
6095.5
 20
1998.3622
 30
0.0
 40
50.0
  0
TEXT
  5
1CD
330
17
100
AcDbEntity
  8
FLOOR_0_PAINTINGS
 62
1
100
AcDbText
 10
6095.5
 20
2098.3622
 30
0.0
 40
100.0
  1
0_0969
100
AcDbText
  0
LINE
  5
1CE
330
17
100
AcDbEntity
  8
FLOOR_0_WALLS
 62
5
100
AcDbLine
 10
6105.5
 20
1914.3622
 30
0.0
 11
6105.5
 21
1929.3622
 31
0.0
  0
LINE
  5
1CF
330
17
100
AcDbEntity
  8
FLOOR_0_WALLS
 62
5
100
AcDbLine
 10
6105.5
 20
1998.3622
 30
0.0
 11
6105.5
 21
2198.3622
 31
0.0
  0
LINE
  5
1D0
330
17
100
AcDbEntity
  8
FLOOR_0_WALLS
 62
5
100
AcDbLine
 10
6137.0076
 20
2440.8966
 30
0.0
 11
6160.0076
 21
2440.8966
 31
0.0
  0
LINE
  5
1D1
330
17
100
AcDbEntity
  8
FLOOR_0_WALLS
 62
5
100
AcDbLine
 10
6157.5076
 20
2438.3966
 30
0.0
 11
6157.5076
 21
2796.3965
 31
0.0
  0
LINE
  5
1D2
330
17
100
AcDbEntity
  8
FLOOR_0_WALLS
 62
5
100
AcDbLine
 10
6160.0076
 20
2798.8965
 30
0.0
 11
6325.0076
 21
2798.8965
 31
0.0
  0
LINE
  5
1D3
330
17
100
AcDbEntity
  8
FLOOR_0_WALLS
 62
5
100
AcDbLine
 10
6248.0
 20
909.8622
 30
0.0
 11
6263.0
 21
909.8622
 31
0.0
  0
LINE
  5
1D4
330
17
100
AcDbEntity
  8
FLOOR_0_WALLS
 62
5
100
AcDbLine
 10
3371.2301
 20
14.854796000000022
 30
0.0
 11
6250.5
 21
278.3622
 31
0.0
  0
CIRCLE
  5
1D5
330
17
100
AcDbEntity
  8
FLOOR_0_PAINTINGS
 62
1
100
AcDbCircle
 10
3371.2301
 20
14.854796000000022
 30
0.0
 40
50.0
  0
TEXT
  5
1D6
330
17
100
AcDbEntity
  8
FLOOR_0_PAINTINGS
 62
1
100
AcDbText
 10
3371.2301
 20
114.85479600000002
 30
0.0
 40
100.0
  1
0_0692
100
AcDbText
  0
CIRCLE
  5
1D7
330
17
100
AcDbEntity
  8
FLOOR_0_PAINTINGS
 62
1
100
AcDbCircle
 10
3371.2301
 20
14.854796000000022
 30
0.0
 40
50.0
  0
TEXT
  5
1D8
330
17
100
AcDbEntity
  8
FLOOR_0_PAINTINGS
 62
1
100
AcDbText
 10
3371.2301
 20
114.85479600000002
 30
0.0
 40
100.0
  1
0_0694
100
AcDbText
  0
CIRCLE
  5
1D9
330
17
100
AcDbEntity
  8
FLOOR_0_PAINTINGS
 62
1
100
AcDbCircle
 10
3371.2301
 20
14.854796000000022
 30
0.0
 40
50.0
  0
TEXT
  5
1DA
330
17
100
AcDbEntity
  8
FLOOR_0_PAINTINGS
 62
1
100
AcDbText
 10
3371.2301
 20
114.85479600000002
 30
0.0
 40
100.0
  1
0_0696
100
AcDbText
  0
CIRCLE
  5
1DB
330
17
100
AcDbEntity
  8
FLOOR_0_PAINTINGS
 62
1
100
AcDbCircle
 10
3371.2301
 20
14.854796000000022
 30
0.0
 40
50.0
  0
TEXT
  5
1DC
330
17
100
AcDbEntity
  8
FLOOR_0_PAINTINGS
 62
1
100
AcDbText
 10
3371.2301
 20
114.85479600000002
 30
0.0
 40
100.0
  1
0_0699
100
AcDbText
  0
CIRCLE
  5
1DD
330
17
100
AcDbEntity
  8
FLOOR_0_PAINTINGS
 62
1
100
AcDbCircle
 10
3371.2301
 20
14.854796000000022
 30
0.0
 40
50.0
  0
TEXT
  5
1DE
330
17
100
AcDbEntity
  8
FLOOR_0_PAINTINGS
 62
1
100
AcDbText
 10
3371.2301
 20
114.85479600000002
 30
0.0
 40
100.0
  1
0_0701
100
AcDbText
  0
CIRCLE
  5
1DF
330
17
100
AcDbEntity
  8
FLOOR_0_PAINTINGS
 62
1
100
AcDbCircle
 10
3371.2301
 20
14.854796000000022
 30
0.0
 40
50.0
  0
TEXT
  5
1E0
330
17
100
AcDbEntity
  8
FLOOR_0_PAINTINGS
 62
1
100
AcDbText
 10
3371.2301
 20
114.85479600000002
 30
0.0
 40
100.0
  1
0_0703
100
AcDbText
  0
CIRCLE
  5
1E1
330
17
100
AcDbEntity
  8
FLOOR_0_PAINTINGS
 62
1
100
AcDbCircle
 10
3371.2301
 20
14.854796000000022
 30
0.0
 40
50.0
  0
TEXT
  5
1E2
330
17
100
AcDbEntity
  8
FLOOR_0_PAINTINGS
 62
1
100
AcDbText
 10
3371.2301
 20
114.85479600000002
 30
0.0
 40
100.0
  1
0_0705
100
AcDbText
  0
CIRCLE
  5
1E3
330
17
100
AcDbEntity
  8
FLOOR_0_PAINTINGS
 62
1
100
AcDbCircle
 10
3371.2301
 20
14.854796000000022
 30
0.0
 40
50.0
  0
TEXT
  5
1E4
330
17
100
AcDbEntity
  8
FLOOR_0_PAINTINGS
 62
1
100
AcDbText
 10
3371.2301
 20
114.85479600000002
 30
0.0
 40
100.0
  1
0_0707
100
AcDbText
  0
CIRCLE
  5
1E5
330
17
100
AcDbEntity
  8
FLOOR_0_PAINTINGS
 62
1
100
AcDbCircle
 10
3371.2301
 20
14.854796000000022
 30
0.0
 40
50.0
  0
TEXT
  5
1E6
330
17
100
AcDbEntity
  8
FLOOR_0_PAINTINGS
 62
1
100
AcDbText
 10
3371.2301
 20
114.85479600000002
 30
0.0
 40
100.0
  1
0_0709
100
AcDbText
  0
LINE
  5
1E7
330
17
100
AcDbEntity
  8
FLOOR_0_WALLS
 62
5
100
AcDbLine
 10
6250.5
 20
278.3622
 30
0.0
 11
6250.5
 21
912.3622
 31
0.0
  0
CIRCLE
  5
1E8
330
17
100
AcDbEntity
  8
FLOOR_0_PAINTINGS
 62
1
100
AcDbCircle
 10
6250.5
 20
278.3622
 30
0.0
 40
50.0
  0
TEXT
  5
1E9
330
17
100
AcDbEntity
  8
FLOOR_0_PAINTINGS
 62
1
100
AcDbText
 10
6250.5
 20
378.3622
 30
0.0
 40
100.0
  1
0_0890
100
AcDbText
  0
LINE
  5
1EA
330
17
100
AcDbEntity
  8
FLOOR_0_WALLS
 62
5
100
AcDbLine
 10
6260.4921
 20
912.3622
 30
0.0
 11
6260.4921
 21
279.3622
 31
0.0
  0
CIRCLE
  5
1EB
330
17
100
AcDbEntity
  8
FLOOR_0_PAINTINGS
 62
1
100
AcDbCircle
 10
6260.4921
 20
912.3622
 30
0.0
 40
50.0
  0
TEXT
  5
1EC
330
17
100
AcDbEntity
  8
FLOOR_0_PAINTINGS
 62
1
100
AcDbText
 10
6260.4921
 20
1012.3622
 30
0.0
 40
100.0
  1
0_0930
100
AcDbText
  0
CIRCLE
  5
1ED
330
17
100
AcDbEntity
  8
FLOOR_0_PAINTINGS
 62
1
100
AcDbCircle
 10
6260.4921
 20
912.3622
 30
0.0
 40
50.0
  0
TEXT
  5
1EE
330
17
100
AcDbEntity
  8
FLOOR_0_PAINTINGS
 62
1
100
AcDbText
 10
6260.4921
 20
1012.3622
 30
0.0
 40
100.0
  1
0_0300
100
AcDbText
  0
CIRCLE
  5
1EF
330
17
100
AcDbEntity
  8
FLOOR_0_PAINTINGS
 62
1
100
AcDbCircle
 10
6260.4921
 20
912.3622
 30
0.0
 40
50.0
  0
TEXT
  5
1F0
330
17
100
AcDbEntity
  8
FLOOR_0_PAINTINGS
 62
1
100
AcDbText
 10
6260.4921
 20
1012.3622
 30
0.0
 40
100.0
  1
0_0301
100
AcDbText
  0
CIRCLE
  5
1F1
330
17
100
AcDbEntity
  8
FLOOR_0_PAINTINGS
 62
1
100
AcDbCircle
 10
6260.4921
 20
912.3622
 30
0.0
 40
50.0
  0
TEXT
  5
1F2
330
17
100
AcDbEntity
  8
FLOOR_0_PAINTINGS
 62
1
100
AcDbText
 10
6260.4921
 20
1012.3622
 30
0.0
 40
100.0
  1
0_0302
100
AcDbText
  0
CIRCLE
  5
1F3
330
17
100
AcDbEntity
  8
FLOOR_0_PAINTINGS
 62
1
100
AcDbCircle
 10
6260.4921
 20
912.3622
 30
0.0
 40
50.0
  0
TEXT
  5
1F4
330
17
100
AcDbEntity
  8
FLOOR_0_PAINTINGS
 62
1
100
AcDbText
 10
6260.4921
 20
1012.3622
 30
0.0
 40
100.0
  1
0_0912
100
AcDbText
  0
CIRCLE
  5
1F5
330
17
100
AcDbEntity
  8
FLOOR_0_PAINTINGS
 62
1
100
AcDbCircle
 10
6260.4921
 20
912.3622
 30
0.0
 40
50.0
  0
TEXT
  5
1F6
330
17
100
AcDbEntity
  8
FLOOR_0_PAINTINGS
 62
1
100
AcDbText
 10
6260.4921
 20
1012.3622
 30
0.0
 40
100.0
  1
0_0924
100
AcDbText
  0
CIRCLE
  5
1F7
330
17
100
AcDbEntity
  8
FLOOR_0_PAINTINGS
 62
1
100
AcDbCircle
 10
6260.4921
 20
912.3622
 30
0.0
 40
50.0
  0
TEXT
  5
1F8
330
17
100
AcDbEntity
  8
FLOOR_0_PAINTINGS
 62
1
100
AcDbText
 10
6260.4921
 20
1012.3622
 30
0.0
 40
100.0
  1
0_0922
100
AcDbText
  0
CIRCLE
  5
1F9
330
17
100
AcDbEntity
  8
FLOOR_0_PAINTINGS
 62
1
100
AcDbCircle
 10
6260.4921
 20
912.3622
 30
0.0
 40
50.0
  0
TEXT
  5
1FA
330
17
100
AcDbEntity
  8
FLOOR_0_PAINTINGS
 62
1
100
AcDbText
 10
6260.4921
 20
1012.3622
 30
0.0
 40
100.0
  1
0_0303
100
AcDbText
  0
LINE
  5
1FB
330
17
100
AcDbEntity
  8
FLOOR_0_WALLS
 62
5
100
AcDbLine
 10
6325.0076
 20
2798.8965
 30
0.0
 11
6378.0076
 21
2798.8965
 31
0.0
  0
LINE
  5
1FC
330
17
100
AcDbEntity
  8
FLOOR_0_WALLS
 62
5
100
AcDbLine
 10
6378.0076
 20
2440.8966
 30
0.0
 11
6401.0076
 21
2440.8966
 31
0.0
  0
LINE
  5
1FD
330
17
100
AcDbEntity
  8
FLOOR_0_WALLS
 62
5
100
AcDbLine
 10
6380.5076
 20
2438.3966
 30
0.0
 11
6380.5076
 21
2796.3965
 31
0.0
  0
LINE
  5
1FE
330
17
100
AcDbEntity
  8
FLOOR_0_WALLS
 62
5
100
AcDbLine
 10
6835.0
 20
1021.8622
 30
0.0
 11
6455.0
 21
1021.8622
 31
0.0
  0
CIRCLE
  5
1FF
330
17
100
AcDbEntity
  8
FLOOR_0_PAINTINGS
 62
1
100
AcDbCircle
 10
6835.0
 20
1021.8622
 30
0.0
 40
50.0
  0
TEXT
  5
200
330
17
100
AcDbEntity
  8
FLOOR_0_PAINTINGS
 62
1
100
AcDbText
 10
6835.0
 20
1121.8622
 30
0.0
 40
100.0
  1
0_0305
100
AcDbText
  0
CIRCLE
  5
201
330
17
100
AcDbEntity
  8
FLOOR_0_PAINTINGS
 62
1
100
AcDbCircle
 10
6835.0
 20
1021.8622
 30
0.0
 40
50.0
  0
TEXT
  5
202
330
17
100
AcDbEntity
  8
FLOOR_0_PAINTINGS
 62
1
100
AcDbText
 10
6835.0
 20
1121.8622
 30
0.0
 40
100.0
  1
0_0948
100
AcDbText
  0
CIRCLE
  5
203
330
17
100
AcDbEntity
  8
FLOOR_0_PAINTINGS
 62
1
100
AcDbCircle
 10
6835.0
 20
1021.8622
 30
0.0
 40
50.0
  0
TEXT
  5
204
330
17
100
AcDbEntity
  8
FLOOR_0_PAINTINGS
 62
1
100
AcDbText
 10
6835.0
 20
1121.8622
 30
0.0
 40
100.0
  1
0_0950
100
AcDbText
  0
CIRCLE
  5
205
330
17
100
AcDbEntity
  8
FLOOR_0_PAINTINGS
 62
1
100
AcDbCircle
 10
6835.0
 20
1021.8622
 30
0.0
 40
50.0
  0
TEXT
  5
206
330
17
100
AcDbEntity
  8
FLOOR_0_PAINTINGS
 62
1
100
AcDbText
 10
6835.0
 20
1121.8622
 30
0.0
 40
100.0
  1
0_0306
100
AcDbText
  0
LINE
  5
207
330
17
100
AcDbEntity
  8
FLOOR_0_WALLS
 62
5
100
AcDbLine
 10
6455.0
 20
1031.8622
 30
0.0
 11
6835.0
 21
1031.8622
 31
0.0
  0
CIRCLE
  5
208
330
17
100
AcDbEntity
  8
FLOOR_0_PAINTINGS
 62
1
100
AcDbCircle
 10
6455.0
 20
1031.8622
 30
0.0
 40
50.0
  0
TEXT
  5
209
330
17
100
AcDbEntity
  8
FLOOR_0_PAINTINGS
 62
1
100
AcDbText
 10
6455.0
 20
1131.8622
 30
0.0
 40
100.0
  1
0_0865
100
AcDbText
  0
LINE
  5
20A
330
17
100
AcDbEntity
  8
FLOOR_0_WALLS
 62
5
100
AcDbLine
 10
6457.5
 20
1019.3622
 30
0.0
 11
6457.5
 21
1034.3622
 31
0.0
  0
LINE
  5
20B
330
17
100
AcDbEntity
  8
FLOOR_0_WALLS
 62
5
100
AcDbLine
 10
6505.5308
 20
1357.7368
 30
0.0
 11
6410.5308
 21
2049.7367999999997
 31
0.0
  0
LINE
  5
20C
330
17
100
AcDbEntity
  8
FLOOR_0_WALLS
 62
5
100
AcDbLine
 10
6837.5076
 20
1357.3966
 30
0.0
 11
6837.5076
 21
2054.3966
 31
0.0
  0
LINE
  5
20D
330
17
100
AcDbEntity
  8
FLOOR_0_WALLS
 62
5
100
AcDbLine
 10
6837.5076
 20
332.39673
 30
0.0
 11
6837.5076
 21
1019.3966
 31
0.0
  0
CIRCLE
  5
20E
330
17
100
AcDbEntity
  8
FLOOR_0_PAINTINGS
 62
1
100
AcDbCircle
 10
6837.5076
 20
332.39673
 30
0.0
 40
50.0
  0
TEXT
  5
20F
330
17
100
AcDbEntity
  8
FLOOR_0_PAINTINGS
 62
1
100
AcDbText
 10
6837.5076
 20
432.39673
 30
0.0
 40
100.0
  1
0_0932
100
AcDbText
  0
CIRCLE
  5
210
330
17
100
AcDbEntity
  8
FLOOR_0_PAINTINGS
 62
1
100
AcDbCircle
 10
6837.5076
 20
332.39673
 30
0.0
 40
50.0
  0
TEXT
  5
211
330
17
100
AcDbEntity
  8
FLOOR_0_PAINTINGS
 62
1
100
AcDbText
 10
6837.5076
 20
432.39673
 30
0.0
 40
100.0
  1
0_0934
100
AcDbText
  0
CIRCLE
  5
212
330
17
100
AcDbEntity
  8
FLOOR_0_PAINTINGS
 62
1
100
AcDbCircle
 10
6837.5076
 20
332.39673
 30
0.0
 40
50.0
  0
TEXT
  5
213
330
17
100
AcDbEntity
  8
FLOOR_0_PAINTINGS
 62
1
100
AcDbText
 10
6837.5076
 20
432.39673
 30
0.0
 40
100.0
  1
0_0940
100
AcDbText
  0
CIRCLE
  5
214
330
17
100
AcDbEntity
  8
FLOOR_0_PAINTINGS
 62
1
100
AcDbCircle
 10
6837.5076
 20
332.39673
 30
0.0
 40
50.0
  0
TEXT
  5
215
330
17
100
AcDbEntity
  8
FLOOR_0_PAINTINGS
 62
1
100
AcDbText
 10
6837.5076
 20
432.39673
 30
0.0
 40
100.0
  1
0_0304
100
AcDbText
  0
CIRCLE
  5
216
330
17
100
AcDbEntity
  8
FLOOR_0_PAINTINGS
 62
1
100
AcDbCircle
 10
6837.5076
 20
332.39673
 30
0.0
 40
50.0
  0
TEXT
  5
217
330
17
100
AcDbEntity
  8
FLOOR_0_PAINTINGS
 62
1
100
AcDbText
 10
6837.5076
 20
432.39673
 30
0.0
 40
100.0
  1
0_0726
100
AcDbText
  0
CIRCLE
  5
218
330
17
100
AcDbEntity
  8
FLOOR_0_PAINTINGS
 62
1
100
AcDbCircle
 10
6837.5076
 20
332.39673
 30
0.0
 40
50.0
  0
TEXT
  5
219
330
17
100
AcDbEntity
  8
FLOOR_0_PAINTINGS
 62
1
100
AcDbText
 10
6837.5076
 20
432.39673
 30
0.0
 40
100.0
  1
0_0942
100
AcDbText
  0
LINE
  5
21A
330
17
100
AcDbEntity
  8
FLOOR_0_WALLS
 62
5
100
AcDbLine
 10
6837.5076
 20
1034.3966
 30
0.0
 11
6837.5076
 21
1357.3966
 31
0.0
  0
LINE
  5
21B
330
17
100
AcDbEntity
  8
FLOOR_0_WALLS
 62
5
100
AcDbLine
 10
6260.4921
 20
279.3622
 30
0.0
 11
6837.7699
 21
334.86961
 31
0.0
  0
CIRCLE
  5
21C
330
17
100
AcDbEntity
  8
FLOOR_0_PAINTINGS
 62
1
100
AcDbCircle
 10
6260.4921
 20
279.3622
 30
0.0
 40
50.0
  0
TEXT
  5
21D
330
17
100
AcDbEntity
  8
FLOOR_0_PAINTINGS
 62
1
100
AcDbText
 10
6260.4921
 20
379.3622
 30
0.0
 40
100.0
  1
0_0920
100
AcDbText
  0
CIRCLE
  5
21E
330
17
100
AcDbEntity
  8
FLOOR_0_PAINTINGS
 62
1
100
AcDbCircle
 10
6260.4921
 20
279.3622
 30
0.0
 40
50.0
  0
TEXT
  5
21F
330
17
100
AcDbEntity
  8
FLOOR_0_PAINTINGS
 62
1
100
AcDbText
 10
6260.4921
 20
379.3622
 30
0.0
 40
100.0
  1
0_0918
100
AcDbText
  0
CIRCLE
  5
220
330
17
100
AcDbEntity
  8
FLOOR_0_PAINTINGS
 62
1
100
AcDbCircle
 10
6260.4921
 20
279.3622
 30
0.0
 40
50.0
  0
TEXT
  5
221
330
17
100
AcDbEntity
  8
FLOOR_0_PAINTINGS
 62
1
100
AcDbText
 10
6260.4921
 20
379.3622
 30
0.0
 40
100.0
  1
0_0900
100
AcDbText
  0
CIRCLE
  5
222
330
17
100
AcDbEntity
  8
FLOOR_0_PAINTINGS
 62
1
100
AcDbCircle
 10
6260.4921
 20
279.3622
 30
0.0
 40
50.0
  0
TEXT
  5
223
330
17
100
AcDbEntity
  8
FLOOR_0_PAINTINGS
 62
1
100
AcDbText
 10
6260.4921
 20
379.3622
 30
0.0
 40
100.0
  1
0_0902
100
AcDbText
  0
CIRCLE
  5
224
330
17
100
AcDbEntity
  8
FLOOR_0_PAINTINGS
 62
1
100
AcDbCircle
 10
6260.4921
 20
279.3622
 30
0.0
 40
50.0
  0
TEXT
  5
225
330
17
100
AcDbEntity
  8
FLOOR_0_PAINTINGS
 62
1
100
AcDbText
 10
6260.4921
 20
379.3622
 30
0.0
 40
100.0
  1
0_0906
100
AcDbText
  0
CIRCLE
  5
226
330
17
100
AcDbEntity
  8
FLOOR_0_PAINTINGS
 62
1
100
AcDbCircle
 10
6260.4921
 20
279.3622
 30
0.0
 40
50.0
  0
TEXT
  5
227
330
17
100
AcDbEntity
  8
FLOOR_0_PAINTINGS
 62
1
100
AcDbText
 10
6260.4921
 20
379.3622
 30
0.0
 40
100.0
  1
0_0908
100
AcDbText
  0
LINE
  5
22A
330
17
100
AcDbEntity
  8
FLOOR_1_WALLS
 62
6
100
AcDbLine
 10
2.5
 20
5105.3382
 30
0.0
 11
2.5
 21
5139.3382
 31
0.0
  0
LINE
  5
22B
330
17
100
AcDbEntity
  8
FLOOR_1_WALLS
 62
6
100
AcDbLine
 10
2.5
 20
5474.3382
 30
0.0
 11
2.5
 21
5337.3382
 31
0.0
  0
CIRCLE
  5
22C
330
17
100
AcDbEntity
  8
FLOOR_1_PAINTINGS
 62
1
100
AcDbCircle
 10
2.5
 20
5474.3382
 30
0.0
 40
50.0
  0
TEXT
  5
22D
330
17
100
AcDbEntity
  8
FLOOR_1_PAINTINGS
 62
1
100
AcDbText
 10
2.5
 20
5574.3382
 30
0.0
 40
100.0
  1
1_0395
100
AcDbText
  0
LINE
  5
22E
330
17
100
AcDbEntity
  8
FLOOR_1_WALLS
 62
6
100
AcDbLine
 10
2.5
 20
5764.3382
 30
0.0
 11
2.5
 21
5671.3382
 31
0.0
  0
LINE
  5
22F
330
17
100
AcDbEntity
  8
FLOOR_1_WALLS
 62
6
100
AcDbLine
 10
104.0
 20
5766.8382
 30
0.0
 11
5.0
 21
5766.8382
 31
0.0
  0
LINE
  5
230
330
17
100
AcDbEntity
  8
FLOOR_1_WALLS
 62
6
100
AcDbLine
 10
5.0
 20
5102.8382
 30
0.0
 11
578.0
 21
5102.8382
 31
0.0
  0
CIRCLE
  5
231
330
17
100
AcDbEntity
  8
FLOOR_1_PAINTINGS
 62
1
100
AcDbCircle
 10
5.0
 20
5102.8382
 30
0.0
 40
50.0
  0
TEXT
  5
232
330
17
100
AcDbEntity
  8
FLOOR_1_PAINTINGS
 62
1
100
AcDbText
 10
5.0
 20
5202.8382
 30
0.0
 40
100.0
  1
1_0391
100
AcDbText
  0
CIRCLE
  5
233
330
17
100
AcDbEntity
  8
FLOOR_1_PAINTINGS
 62
1
100
AcDbCircle
 10
5.0
 20
5102.8382
 30
0.0
 40
50.0
  0
TEXT
  5
234
330
17
100
AcDbEntity
  8
FLOOR_1_PAINTINGS
 62
1
100
AcDbText
 10
5.0
 20
5202.8382
 30
0.0
 40
100.0
  1
1_0393
100
AcDbText
  0
CIRCLE
  5
235
330
17
100
AcDbEntity
  8
FLOOR_1_PAINTINGS
 62
1
100
AcDbCircle
 10
5.0
 20
5102.8382
 30
0.0
 40
50.0
  0
TEXT
  5
236
330
17
100
AcDbEntity
  8
FLOOR_1_PAINTINGS
 62
1
100
AcDbText
 10
5.0
 20
5202.8382
 30
0.0
 40
100.0
  1
1_0389
100
AcDbText
  0
LINE
  5
237
330
17
100
AcDbEntity
  8
FLOOR_1_WALLS
 62
6
100
AcDbLine
 10
23.5
 20
3377.3378
 30
0.0
 11
23.5
 21
2570.3378
 31
0.0
  0
CIRCLE
  5
238
330
17
100
AcDbEntity
  8
FLOOR_1_PAINTINGS
 62
1
100
AcDbCircle
 10
23.5
 20
3377.3378
 30
0.0
 40
50.0
  0
TEXT
  5
239
330
17
100
AcDbEntity
  8
FLOOR_1_PAINTINGS
 62
1
100
AcDbText
 10
23.5
 20
3477.3378
 30
0.0
 40
100.0
  1
1_0235
100
AcDbText
  0
CIRCLE
  5
23A
330
17
100
AcDbEntity
  8
FLOOR_1_PAINTINGS
 62
1
100
AcDbCircle
 10
23.5
 20
3377.3378
 30
0.0
 40
50.0
  0
TEXT
  5
23B
330
17
100
AcDbEntity
  8
FLOOR_1_PAINTINGS
 62
1
100
AcDbText
 10
23.5
 20
3477.3378
 30
0.0
 40
100.0
  1
1_0230
100
AcDbText
  0
LINE
  5
23C
330
17
100
AcDbEntity
  8
FLOOR_1_WALLS
 62
6
100
AcDbLine
 10
26.0
 20
2567.8378
 30
0.0
 11
1018.0
 21
2567.8378
 31
0.0
  0
CIRCLE
  5
23D
330
17
100
AcDbEntity
  8
FLOOR_1_PAINTINGS
 62
1
100
AcDbCircle
 10
26.0
 20
2567.8378
 30
0.0
 40
50.0
  0
TEXT
  5
23E
330
17
100
AcDbEntity
  8
FLOOR_1_PAINTINGS
 62
1
100
AcDbText
 10
26.0
 20
2667.8378
 30
0.0
 40
100.0
  1
1_0228
100
AcDbText
  0
CIRCLE
  5
23F
330
17
100
AcDbEntity
  8
FLOOR_1_PAINTINGS
 62
1
100
AcDbCircle
 10
26.0
 20
2567.8378
 30
0.0
 40
50.0
  0
TEXT
  5
240
330
17
100
AcDbEntity
  8
FLOOR_1_PAINTINGS
 62
1
100
AcDbText
 10
26.0
 20
2667.8378
 30
0.0
 40
100.0
  1
1_6003
100
AcDbText
  0
CIRCLE
  5
241
330
17
100
AcDbEntity
  8
FLOOR_1_PAINTINGS
 62
1
100
AcDbCircle
 10
26.0
 20
2567.8378
 30
0.0
 40
50.0
  0
TEXT
  5
242
330
17
100
AcDbEntity
  8
FLOOR_1_PAINTINGS
 62
1
100
AcDbText
 10
26.0
 20
2667.8378
 30
0.0
 40
100.0
  1
1_0222
100
AcDbText
  0
CIRCLE
  5
243
330
17
100
AcDbEntity
  8
FLOOR_1_PAINTINGS
 62
1
100
AcDbCircle
 10
26.0
 20
2567.8378
 30
0.0
 40
50.0
  0
TEXT
  5
244
330
17
100
AcDbEntity
  8
FLOOR_1_PAINTINGS
 62
1
100
AcDbText
 10
26.0
 20
2667.8378
 30
0.0
 40
100.0
  1
1_0220
100
AcDbText
  0
LINE
  5
245
330
17
100
AcDbEntity
  8
FLOOR_1_WALLS
 62
6
100
AcDbLine
 10
906.00004
 20
3379.8378
 30
0.0
 11
26.0
 21
3379.8378
 31
0.0
  0
CIRCLE
  5
246
330
17
100
AcDbEntity
  8
FLOOR_1_PAINTINGS
 62
1
100
AcDbCircle
 10
906.00004
 20
3379.8378
 30
0.0
 40
50.0
  0
TEXT
  5
247
330
17
100
AcDbEntity
  8
FLOOR_1_PAINTINGS
 62
1
100
AcDbText
 10
906.00004
 20
3479.8378
 30
0.0
 40
100.0
  1
1_0251
100
AcDbText
  0
CIRCLE
  5
248
330
17
100
AcDbEntity
  8
FLOOR_1_PAINTINGS
 62
1
100
AcDbCircle
 10
906.00004
 20
3379.8378
 30
0.0
 40
50.0
  0
TEXT
  5
249
330
17
100
AcDbEntity
  8
FLOOR_1_PAINTINGS
 62
1
100
AcDbText
 10
906.00004
 20
3479.8378
 30
0.0
 40
100.0
  1
1_0249
100
AcDbText
  0
CIRCLE
  5
24A
330
17
100
AcDbEntity
  8
FLOOR_1_PAINTINGS
 62
1
100
AcDbCircle
 10
906.00004
 20
3379.8378
 30
0.0
 40
50.0
  0
TEXT
  5
24B
330
17
100
AcDbEntity
  8
FLOOR_1_PAINTINGS
 62
1
100
AcDbText
 10
906.00004
 20
3479.8378
 30
0.0
 40
100.0
  1
1_0247
100
AcDbText
  0
CIRCLE
  5
24C
330
17
100
AcDbEntity
  8
FLOOR_1_PAINTINGS
 62
1
100
AcDbCircle
 10
906.00004
 20
3379.8378
 30
0.0
 40
50.0
  0
TEXT
  5
24D
330
17
100
AcDbEntity
  8
FLOOR_1_PAINTINGS
 62
1
100
AcDbText
 10
906.00004
 20
3479.8378
 30
0.0
 40
100.0
  1
1_0245
100
AcDbText
  0
CIRCLE
  5
24E
330
17
100
AcDbEntity
  8
FLOOR_1_PAINTINGS
 62
1
100
AcDbCircle
 10
906.00004
 20
3379.8378
 30
0.0
 40
50.0
  0
TEXT
  5
24F
330
17
100
AcDbEntity
  8
FLOOR_1_PAINTINGS
 62
1
100
AcDbText
 10
906.00004
 20
3479.8378
 30
0.0
 40
100.0
  1
1_0243
100
AcDbText
  0
CIRCLE
  5
250
330
17
100
AcDbEntity
  8
FLOOR_1_PAINTINGS
 62
1
100
AcDbCircle
 10
906.00004
 20
3379.8378
 30
0.0
 40
50.0
  0
TEXT
  5
251
330
17
100
AcDbEntity
  8
FLOOR_1_PAINTINGS
 62
1
100
AcDbText
 10
906.00004
 20
3479.8378
 30
0.0
 40
100.0
  1
1_0241
100
AcDbText
  0
CIRCLE
  5
252
330
17
100
AcDbEntity
  8
FLOOR_1_PAINTINGS
 62
1
100
AcDbCircle
 10
906.00004
 20
3379.8378
 30
0.0
 40
50.0
  0
TEXT
  5
253
330
17
100
AcDbEntity
  8
FLOOR_1_PAINTINGS
 62
1
100
AcDbText
 10
906.00004
 20
3479.8378
 30
0.0
 40
100.0
  1
1_0239
100
AcDbText
  0
CIRCLE
  5
254
330
17
100
AcDbEntity
  8
FLOOR_1_PAINTINGS
 62
1
100
AcDbCircle
 10
906.00004
 20
3379.8378
 30
0.0
 40
50.0
  0
TEXT
  5
255
330
17
100
AcDbEntity
  8
FLOOR_1_PAINTINGS
 62
1
100
AcDbText
 10
906.00004
 20
3479.8378
 30
0.0
 40
100.0
  1
1_0237
100
AcDbText
  0
LINE
  5
256
330
17
100
AcDbEntity
  8
FLOOR_1_WALLS
 62
6
100
AcDbLine
 10
210.0
 20
4450.8564
 30
0.0
 11
572.0
 21
4450.8564
 31
0.0
  0
CIRCLE
  5
257
330
17
100
AcDbEntity
  8
FLOOR_1_PAINTINGS
 62
1
100
AcDbCircle
 10
210.0
 20
4450.8564
 30
0.0
 40
50.0
  0
TEXT
  5
258
330
17
100
AcDbEntity
  8
FLOOR_1_PAINTINGS
 62
1
100
AcDbText
 10
210.0
 20
4550.8564
 30
0.0
 40
100.0
  1
1_5852
100
AcDbText
  0
LINE
  5
259
330
17
100
AcDbEntity
  8
FLOOR_1_WALLS
 62
6
100
AcDbLine
 10
497.0
 20
5766.8313
 30
0.0
 11
314.0
 21
5766.8313
 31
0.0
  0
CIRCLE
  5
25A
330
17
100
AcDbEntity
  8
FLOOR_1_PAINTINGS
 62
1
100
AcDbCircle
 10
497.0
 20
5766.8313
 30
0.0
 40
50.0
  0
TEXT
  5
25B
330
17
100
AcDbEntity
  8
FLOOR_1_PAINTINGS
 62
1
100
AcDbText
 10
497.0
 20
5866.8313
 30
0.0
 40
100.0
  1
1_5845
100
AcDbText
  0
LINE
  5
25C
330
17
100
AcDbEntity
  8
FLOOR_1_WALLS
 62
6
100
AcDbLine
 10
577.93624
 20
4566.8533
 30
0.0
 11
209.94324
 21
4566.8533
 31
0.0
  0
LINE
  5
25D
330
17
100
AcDbEntity
  8
FLOOR_1_WALLS
 62
6
100
AcDbLine
 10
577.93624
 20
4986.8533
 30
0.0
 11
200.0
 21
4986.8533
 31
0.0
  0
LINE
  5
25E
330
17
100
AcDbEntity
  8
FLOOR_1_WALLS
 62
6
100
AcDbLine
 10
580.43624
 20
4984.3533
 30
0.0
 11
580.43624
 21
4569.3533
 31
0.0
  0
LINE
  5
25F
330
17
100
AcDbEntity
  8
FLOOR_1_WALLS
 62
6
100
AcDbLine
 10
693.93624
 20
5102.8382
 30
0.0
 11
738.0
 21
5102.8382
 31
0.0
  0
LINE
  5
260
330
17
100
AcDbEntity
  8
FLOOR_1_WALLS
 62
6
100
AcDbLine
 10
694.0
 20
4450.7738
 30
0.0
 11
571.93624
 21
4450.7738
 31
0.0
  0
LINE
  5
261
330
17
100
AcDbEntity
  8
FLOOR_1_WALLS
 62
6
100
AcDbLine
 10
696.43624
 20
4979.3533
 30
0.0
 11
696.43624
 21
5105.3533
 31
0.0
  0
LINE
  5
262
330
17
100
AcDbEntity
  8
FLOOR_1_WALLS
 62
6
100
AcDbLine
 10
696.5
 20
4453.3564
 30
0.0
 11
696.5
 21
4574.3564
 31
0.0
  0
LINE
  5
263
330
17
100
AcDbEntity
  8
FLOOR_1_WALLS
 62
6
100
AcDbLine
 10
696.5
 20
4574.3564
 30
0.0
 11
696.5
 21
4979.3564
 31
0.0
  0
CIRCLE
  5
264
330
17
100
AcDbEntity
  8
FLOOR_1_PAINTINGS
 62
1
100
AcDbCircle
 10
696.5
 20
4574.3564
 30
0.0
 40
50.0
  0
TEXT
  5
265
330
17
100
AcDbEntity
  8
FLOOR_1_PAINTINGS
 62
1
100
AcDbText
 10
696.5
 20
4674.3564
 30
0.0
 40
100.0
  1
1_5854
100
AcDbText
  0
LINE
  5
266
330
17
100
AcDbEntity
  8
FLOOR_1_WALLS
 62
6
100
AcDbLine
 10
707.0
 20
5766.8382
 30
0.0
 11
738.0
 21
5766.8382
 31
0.0
  0
LINE
  5
267
330
17
100
AcDbEntity
  8
FLOOR_1_WALLS
 62
6
100
AcDbLine
 10
738.0
 20
5509.8382
 30
0.0
 11
808.0
 21
5509.8382
 31
0.0
  0
LINE
  5
268
330
17
100
AcDbEntity
  8
FLOOR_1_WALLS
 62
6
100
AcDbLine
 10
738.0
 20
5656.8382
 30
0.0
 11
808.0
 21
5656.8382
 31
0.0
  0
LINE
  5
269
330
17
100
AcDbEntity
  8
FLOOR_1_WALLS
 62
6
100
AcDbLine
 10
740.5
 20
5654.3382
 30
0.0
 11
740.5
 21
5764.3382
 31
0.0
  0
CIRCLE
  5
26A
330
17
100
AcDbEntity
  8
FLOOR_1_PAINTINGS
 62
1
100
AcDbCircle
 10
740.5
 20
5654.3382
 30
0.0
 40
50.0
  0
TEXT
  5
26B
330
17
100
AcDbEntity
  8
FLOOR_1_PAINTINGS
 62
1
100
AcDbText
 10
740.5
 20
5754.3382
 30
0.0
 40
100.0
  1
1_5846
100
AcDbText
  0
LINE
  5
26C
330
17
100
AcDbEntity
  8
FLOOR_1_WALLS
 62
6
100
AcDbLine
 10
740.5
 20
5105.3382
 30
0.0
 11
740.5
 21
5512.3382
 31
0.0
  0
CIRCLE
  5
26D
330
17
100
AcDbEntity
  8
FLOOR_1_PAINTINGS
 62
1
100
AcDbCircle
 10
740.5
 20
5105.3382
 30
0.0
 40
50.0
  0
TEXT
  5
26E
330
17
100
AcDbEntity
  8
FLOOR_1_PAINTINGS
 62
1
100
AcDbText
 10
740.5
 20
5205.3382
 30
0.0
 40
100.0
  1
1_0387
100
AcDbText
  0
CIRCLE
  5
26F
330
17
100
AcDbEntity
  8
FLOOR_1_PAINTINGS
 62
1
100
AcDbCircle
 10
740.5
 20
5105.3382
 30
0.0
 40
50.0
  0
TEXT
  5
270
330
17
100
AcDbEntity
  8
FLOOR_1_PAINTINGS
 62
1
100
AcDbText
 10
740.5
 20
5205.3382
 30
0.0
 40
100.0
  1
1_0385
100
AcDbText
  0
LINE
  5
271
330
17
100
AcDbEntity
  8
FLOOR_1_WALLS
 62
6
100
AcDbLine
 10
805.378
 20
5654.3382
 30
0.0
 11
805.378
 21
5764.3382
 31
0.0
  0
LINE
  5
272
330
17
100
AcDbEntity
  8
FLOOR_1_WALLS
 62
6
100
AcDbLine
 10
805.5
 20
5512.3382
 30
0.0
 11
805.5
 21
4442.3382
 31
0.0
  0
CIRCLE
  5
273
330
17
100
AcDbEntity
  8
FLOOR_1_PAINTINGS
 62
1
100
AcDbCircle
 10
805.5
 20
5512.3382
 30
0.0
 40
50.0
  0
TEXT
  5
274
330
17
100
AcDbEntity
  8
FLOOR_1_PAINTINGS
 62
1
100
AcDbText
 10
805.5
 20
5612.3382
 30
0.0
 40
100.0
  1
1_0368
100
AcDbText
  0
CIRCLE
  5
275
330
17
100
AcDbEntity
  8
FLOOR_1_PAINTINGS
 62
1
100
AcDbCircle
 10
805.5
 20
5512.3382
 30
0.0
 40
50.0
  0
TEXT
  5
276
330
17
100
AcDbEntity
  8
FLOOR_1_PAINTINGS
 62
1
100
AcDbText
 10
805.5
 20
5612.3382
 30
0.0
 40
100.0
  1
1_0373
100
AcDbText
  0
CIRCLE
  5
277
330
17
100
AcDbEntity
  8
FLOOR_1_PAINTINGS
 62
1
100
AcDbCircle
 10
805.5
 20
5512.3382
 30
0.0
 40
50.0
  0
TEXT
  5
278
330
17
100
AcDbEntity
  8
FLOOR_1_PAINTINGS
 62
1
100
AcDbText
 10
805.5
 20
5612.3382
 30
0.0
 40
100.0
  1
1_0375
100
AcDbText
  0
LINE
  5
279
330
17
100
AcDbEntity
  8
FLOOR_1_WALLS
 62
6
100
AcDbLine
 10
808.0
 20
5766.8382
 30
0.0
 11
893.00004
 21
5766.8382
 31
0.0
  0
LINE
  5
27A
330
17
100
AcDbEntity
  8
FLOOR_1_WALLS
 62
6
100
AcDbLine
 10
900.00004
 20
4439.8382
 30
0.0
 11
1969.0
 21
4439.8382
 31
0.0
  0
CIRCLE
  5
27B
330
17
100
AcDbEntity
  8
FLOOR_1_PAINTINGS
 62
1
100
AcDbCircle
 10
900.00004
 20
4439.8382
 30
0.0
 40
50.0
  0
TEXT
  5
27C
330
17
100
AcDbEntity
  8
FLOOR_1_PAINTINGS
 62
1
100
AcDbText
 10
900.00004
 20
4539.8382
 30
0.0
 40
100.0
  1
1_0377
100
AcDbText
  0
CIRCLE
  5
27D
330
17
100
AcDbEntity
  8
FLOOR_1_PAINTINGS
 62
1
100
AcDbCircle
 10
900.00004
 20
4439.8382
 30
0.0
 40
50.0
  0
TEXT
  5
27E
330
17
100
AcDbEntity
  8
FLOOR_1_PAINTINGS
 62
1
100
AcDbText
 10
900.00004
 20
4539.8382
 30
0.0
 40
100.0
  1
1_0370
100
AcDbText
  0
CIRCLE
  5
27F
330
17
100
AcDbEntity
  8
FLOOR_1_PAINTINGS
 62
1
100
AcDbCircle
 10
900.00004
 20
4439.8382
 30
0.0
 40
50.0
  0
TEXT
  5
280
330
17
100
AcDbEntity
  8
FLOOR_1_PAINTINGS
 62
1
100
AcDbText
 10
900.00004
 20
4539.8382
 30
0.0
 40
100.0
  1
1_5848
100
AcDbText
  0
LINE
  5
281
330
17
100
AcDbEntity
  8
FLOOR_1_WALLS
 62
6
100
AcDbLine
 10
1018.0
 20
2958.8383
 30
0.0
 11
1232.0
 21
2958.8383
 31
0.0
  0
LINE
  5
282
330
17
100
AcDbEntity
  8
FLOOR_1_WALLS
 62
6
100
AcDbLine
 10
1020.5
 20
2570.3378
 30
0.0
 11
1020.5
 21
2790.3378
 31
0.0
  0
CIRCLE
  5
283
330
17
100
AcDbEntity
  8
FLOOR_1_PAINTINGS
 62
1
100
AcDbCircle
 10
1020.5
 20
2570.3378
 30
0.0
 40
50.0
  0
TEXT
  5
284
330
17
100
AcDbEntity
  8
FLOOR_1_PAINTINGS
 62
1
100
AcDbText
 10
1020.5
 20
2670.3378
 30
0.0
 40
100.0
  1
1_0218
100
AcDbText
  0
LINE
  5
285
330
17
100
AcDbEntity
  8
FLOOR_1_WALLS
 62
6
100
AcDbLine
 10
1020.5
 20
2961.3378
 30
0.0
 11
1020.5
 21
3377.3621999999996
 31
0.0
  0
CIRCLE
  5
286
330
17
100
AcDbEntity
  8
FLOOR_1_PAINTINGS
 62
1
100
AcDbCircle
 10
1020.5
 20
2961.3378
 30
0.0
 40
50.0
  0
TEXT
  5
287
330
17
100
AcDbEntity
  8
FLOOR_1_PAINTINGS
 62
1
100
AcDbText
 10
1020.5
 20
3061.3378
 30
0.0
 40
100.0
  1
1_0255
100
AcDbText
  0
CIRCLE
  5
288
330
17
100
AcDbEntity
  8
FLOOR_1_PAINTINGS
 62
1
100
AcDbCircle
 10
1020.5
 20
2961.3378
 30
0.0
 40
50.0
  0
TEXT
  5
289
330
17
100
AcDbEntity
  8
FLOOR_1_PAINTINGS
 62
1
100
AcDbText
 10
1020.5
 20
3061.3378
 30
0.0
 40
100.0
  1
1_0253
100
AcDbText
  0
LINE
  5
28A
330
17
100
AcDbEntity
  8
FLOOR_1_WALLS
 62
6
100
AcDbLine
 10
1284.0
 20
5766.8382
 30
0.0
 11
1102.0
 21
5766.8382
 31
0.0
  0
CIRCLE
  5
28B
330
17
100
AcDbEntity
  8
FLOOR_1_PAINTINGS
 62
1
100
AcDbCircle
 10
1284.0
 20
5766.8382
 30
0.0
 40
50.0
  0
TEXT
  5
28C
330
17
100
AcDbEntity
  8
FLOOR_1_PAINTINGS
 62
1
100
AcDbText
 10
1284.0
 20
5866.8382
 30
0.0
 40
100.0
  1
1_0365
100
AcDbText
  0
LINE
  5
28D
330
17
100
AcDbEntity
  8
FLOOR_1_WALLS
 62
6
100
AcDbLine
 10
1229.5
 20
2646.3378000000002
 30
0.0
 11
1229.5
 21
1306.3378
 31
0.0
  0
CIRCLE
  5
28E
330
17
100
AcDbEntity
  8
FLOOR_1_PAINTINGS
 62
1
100
AcDbCircle
 10
1229.5
 20
2646.3378000000002
 30
0.0
 40
50.0
  0
TEXT
  5
28F
330
17
100
AcDbEntity
  8
FLOOR_1_PAINTINGS
 62
1
100
AcDbText
 10
1229.5
 20
2746.3378000000002
 30
0.0
 40
100.0
  1
1_0191
100
AcDbText
  0
CIRCLE
  5
290
330
17
100
AcDbEntity
  8
FLOOR_1_PAINTINGS
 62
1
100
AcDbCircle
 10
1229.5
 20
2646.3378000000002
 30
0.0
 40
50.0
  0
TEXT
  5
291
330
17
100
AcDbEntity
  8
FLOOR_1_PAINTINGS
 62
1
100
AcDbText
 10
1229.5
 20
2746.3378000000002
 30
0.0
 40
100.0
  1
1_0189
100
AcDbText
  0
CIRCLE
  5
292
330
17
100
AcDbEntity
  8
FLOOR_1_PAINTINGS
 62
1
100
AcDbCircle
 10
1229.5
 20
2646.3378000000002
 30
0.0
 40
50.0
  0
TEXT
  5
293
330
17
100
AcDbEntity
  8
FLOOR_1_PAINTINGS
 62
1
100
AcDbText
 10
1229.5
 20
2746.3378000000002
 30
0.0
 40
100.0
  1
1_0187
100
AcDbText
  0
LINE
  5
294
330
17
100
AcDbEntity
  8
FLOOR_1_WALLS
 62
6
100
AcDbLine
 10
1229.5
 20
4246.3382
 30
0.0
 11
1229.5
 21
2956.3378
 31
0.0
  0
CIRCLE
  5
295
330
17
100
AcDbEntity
  8
FLOOR_1_PAINTINGS
 62
1
100
AcDbCircle
 10
1229.5
 20
4246.3382
 30
0.0
 40
50.0
  0
TEXT
  5
296
330
17
100
AcDbEntity
  8
FLOOR_1_PAINTINGS
 62
1
100
AcDbText
 10
1229.5
 20
4346.3382
 30
0.0
 40
100.0
  1
1_0283
100
AcDbText
  0
CIRCLE
  5
297
330
17
100
AcDbEntity
  8
FLOOR_1_PAINTINGS
 62
1
100
AcDbCircle
 10
1229.5
 20
4246.3382
 30
0.0
 40
50.0
  0
TEXT
  5
298
330
17
100
AcDbEntity
  8
FLOOR_1_PAINTINGS
 62
1
100
AcDbText
 10
1229.5
 20
4346.3382
 30
0.0
 40
100.0
  1
1_5858
100
AcDbText
  0
CIRCLE
  5
299
330
17
100
AcDbEntity
  8
FLOOR_1_PAINTINGS
 62
1
100
AcDbCircle
 10
1229.5
 20
4246.3382
 30
0.0
 40
50.0
  0
TEXT
  5
29A
330
17
100
AcDbEntity
  8
FLOOR_1_PAINTINGS
 62
1
100
AcDbText
 10
1229.5
 20
4346.3382
 30
0.0
 40
100.0
  1
1_0272
100
AcDbText
  0
CIRCLE
  5
29B
330
17
100
AcDbEntity
  8
FLOOR_1_PAINTINGS
 62
1
100
AcDbCircle
 10
1229.5
 20
4246.3382
 30
0.0
 40
50.0
  0
TEXT
  5
29C
330
17
100
AcDbEntity
  8
FLOOR_1_PAINTINGS
 62
1
100
AcDbText
 10
1229.5
 20
4346.3382
 30
0.0
 40
100.0
  1
1_0287
100
AcDbText
  0
CIRCLE
  5
29D
330
17
100
AcDbEntity
  8
FLOOR_1_PAINTINGS
 62
1
100
AcDbCircle
 10
1229.5
 20
4246.3382
 30
0.0
 40
50.0
  0
TEXT
  5
29E
330
17
100
AcDbEntity
  8
FLOOR_1_PAINTINGS
 62
1
100
AcDbText
 10
1229.5
 20
4346.3382
 30
0.0
 40
100.0
  1
1_0270
100
AcDbText
  0
LINE
  5
29F
330
17
100
AcDbEntity
  8
FLOOR_1_WALLS
 62
6
100
AcDbLine
 10
1230.5173
 20
2644.4154
 30
0.0
 11
1021.3433
 21
2788.3437
 31
0.0
  0
LINE
  5
2A0
330
17
100
AcDbEntity
  8
FLOOR_1_WALLS
 62
6
100
AcDbLine
 10
1231.9362
 20
1303.8533
 30
0.0
 11
1688.9362
 21
1303.8533
 31
0.0
  0
CIRCLE
  5
2A1
330
17
100
AcDbEntity
  8
FLOOR_1_PAINTINGS
 62
1
100
AcDbCircle
 10
1231.9362
 20
1303.8533
 30
0.0
 40
50.0
  0
TEXT
  5
2A2
330
17
100
AcDbEntity
  8
FLOOR_1_PAINTINGS
 62
1
100
AcDbText
 10
1231.9362
 20
1403.8533
 30
0.0
 40
100.0
  1
1_0160
100
AcDbText
  0
CIRCLE
  5
2A3
330
17
100
AcDbEntity
  8
FLOOR_1_PAINTINGS
 62
1
100
AcDbCircle
 10
1231.9362
 20
1303.8533
 30
0.0
 40
50.0
  0
TEXT
  5
2A4
330
17
100
AcDbEntity
  8
FLOOR_1_PAINTINGS
 62
1
100
AcDbText
 10
1231.9362
 20
1403.8533
 30
0.0
 40
100.0
  1
1_5860
100
AcDbText
  0
LINE
  5
2A5
330
17
100
AcDbEntity
  8
FLOOR_1_WALLS
 62
6
100
AcDbLine
 10
2105.0
 20
4248.8382
 30
0.0
 11
1232.0
 21
4248.8382
 31
0.0
  0
CIRCLE
  5
2A6
330
17
100
AcDbEntity
  8
FLOOR_1_PAINTINGS
 62
1
100
AcDbCircle
 10
2105.0
 20
4248.8382
 30
0.0
 40
50.0
  0
TEXT
  5
2A7
330
17
100
AcDbEntity
  8
FLOOR_1_PAINTINGS
 62
1
100
AcDbText
 10
2105.0
 20
4348.8382
 30
0.0
 40
100.0
  1
1_0276
100
AcDbText
  0
CIRCLE
  5
2A8
330
17
100
AcDbEntity
  8
FLOOR_1_PAINTINGS
 62
1
100
AcDbCircle
 10
2105.0
 20
4248.8382
 30
0.0
 40
50.0
  0
TEXT
  5
2A9
330
17
100
AcDbEntity
  8
FLOOR_1_PAINTINGS
 62
1
100
AcDbText
 10
2105.0
 20
4348.8382
 30
0.0
 40
100.0
  1
1_0278
100
AcDbText
  0
CIRCLE
  5
2AA
330
17
100
AcDbEntity
  8
FLOOR_1_PAINTINGS
 62
1
100
AcDbCircle
 10
2105.0
 20
4248.8382
 30
0.0
 40
50.0
  0
TEXT
  5
2AB
330
17
100
AcDbEntity
  8
FLOOR_1_PAINTINGS
 62
1
100
AcDbText
 10
2105.0
 20
4348.8382
 30
0.0
 40
100.0
  1
1_0280
100
AcDbText
  0
LINE
  5
2AC
330
17
100
AcDbEntity
  8
FLOOR_1_WALLS
 62
6
100
AcDbLine
 10
1236.5
 20
1097.3379
 30
0.0
 11
1236.5
 21
416.33792
 31
0.0
  0
CIRCLE
  5
2AD
330
17
100
AcDbEntity
  8
FLOOR_1_PAINTINGS
 62
1
100
AcDbCircle
 10
1236.5
 20
1097.3379
 30
0.0
 40
50.0
  0
TEXT
  5
2AE
330
17
100
AcDbEntity
  8
FLOOR_1_PAINTINGS
 62
1
100
AcDbText
 10
1236.5
 20
1197.3379
 30
0.0
 40
100.0
  1
1_5874
100
AcDbText
  0
LINE
  5
2AF
330
17
100
AcDbEntity
  8
FLOOR_1_WALLS
 62
6
100
AcDbLine
 10
1236.5
 20
1102.3379
 30
0.0
 11
1236.5
 21
1278.3378
 31
0.0
  0
LINE
  5
2B0
330
17
100
AcDbEntity
  8
FLOOR_1_WALLS
 62
6
100
AcDbLine
 10
1688.9362
 20
1280.8533
 30
0.0
 11
1238.9362
 21
1280.8533
 31
0.0
  0
CIRCLE
  5
2B1
330
17
100
AcDbEntity
  8
FLOOR_1_PAINTINGS
 62
1
100
AcDbCircle
 10
1688.9362
 20
1280.8533
 30
0.0
 40
50.0
  0
TEXT
  5
2B2
330
17
100
AcDbEntity
  8
FLOOR_1_PAINTINGS
 62
1
100
AcDbText
 10
1688.9362
 20
1380.8533
 30
0.0
 40
100.0
  1
1_0210
100
AcDbText
  0
CIRCLE
  5
2B3
330
17
100
AcDbEntity
  8
FLOOR_1_PAINTINGS
 62
1
100
AcDbCircle
 10
1688.9362
 20
1280.8533
 30
0.0
 40
50.0
  0
TEXT
  5
2B4
330
17
100
AcDbEntity
  8
FLOOR_1_PAINTINGS
 62
1
100
AcDbText
 10
1688.9362
 20
1380.8533
 30
0.0
 40
100.0
  1
1_0212
100
AcDbText
  0
LINE
  5
2B5
330
17
100
AcDbEntity
  8
FLOOR_1_WALLS
 62
6
100
AcDbLine
 10
1239.0
 20
413.83792
 30
0.0
 11
2311.0
 21
413.83792
 31
0.0
  0
LINE
  5
2B6
330
17
100
AcDbEntity
  8
FLOOR_1_WALLS
 62
6
100
AcDbLine
 10
1239.0
 20
1099.8379
 30
0.0
 11
1664.0
 21
1099.8379
 31
0.0
  0
LINE
  5
2B7
330
17
100
AcDbEntity
  8
FLOOR_1_WALLS
 62
6
100
AcDbLine
 10
1405.0
 20
620.85641
 30
0.0
 11
1550.0
 21
620.85641
 31
0.0
  0
LINE
  5
2B8
330
17
100
AcDbEntity
  8
FLOOR_1_WALLS
 62
6
100
AcDbLine
 10
1407.5
 20
890.33892
 30
0.0
 11
1407.5
 21
618.3564100000001
 31
0.0
  0
LINE
  5
2B9
330
17
100
AcDbEntity
  8
FLOOR_1_WALLS
 62
6
100
AcDbLine
 10
1443.0
 20
2852.8378
 30
0.0
 11
2278.0
 21
2852.8378
 31
0.0
  0
CIRCLE
  5
2BA
330
17
100
AcDbEntity
  8
FLOOR_1_PAINTINGS
 62
1
100
AcDbCircle
 10
1443.0
 20
2852.8378
 30
0.0
 40
50.0
  0
TEXT
  5
2BB
330
17
100
AcDbEntity
  8
FLOOR_1_PAINTINGS
 62
1
100
AcDbText
 10
1443.0
 20
2952.8378
 30
0.0
 40
100.0
  1
1_0266
100
AcDbText
  0
LINE
  5
2BC
330
17
100
AcDbEntity
  8
FLOOR_1_WALLS
 62
6
100
AcDbLine
 10
2278.0
 20
2820.8378
 30
0.0
 11
1443.0
 21
2820.8378
 31
0.0
  0
CIRCLE
  5
2BD
330
17
100
AcDbEntity
  8
FLOOR_1_PAINTINGS
 62
1
100
AcDbCircle
 10
2278.0
 20
2820.8378
 30
0.0
 40
50.0
  0
TEXT
  5
2BE
330
17
100
AcDbEntity
  8
FLOOR_1_PAINTINGS
 62
1
100
AcDbText
 10
2278.0
 20
2920.8378
 30
0.0
 40
100.0
  1
1_5862
100
AcDbText
  0
CIRCLE
  5
2BF
330
17
100
AcDbEntity
  8
FLOOR_1_PAINTINGS
 62
1
100
AcDbCircle
 10
2278.0
 20
2820.8378
 30
0.0
 40
50.0
  0
TEXT
  5
2C0
330
17
100
AcDbEntity
  8
FLOOR_1_PAINTINGS
 62
1
100
AcDbText
 10
2278.0
 20
2920.8378
 30
0.0
 40
100.0
  1
1_5864
100
AcDbText
  0
CIRCLE
  5
2C1
330
17
100
AcDbEntity
  8
FLOOR_1_PAINTINGS
 62
1
100
AcDbCircle
 10
2278.0
 20
2820.8378
 30
0.0
 40
50.0
  0
TEXT
  5
2C2
330
17
100
AcDbEntity
  8
FLOOR_1_PAINTINGS
 62
1
100
AcDbText
 10
2278.0
 20
2920.8378
 30
0.0
 40
100.0
  1
1_5866
100
AcDbText
  0
LINE
  5
2C3
330
17
100
AcDbEntity
  8
FLOOR_1_WALLS
 62
6
100
AcDbLine
 10
1445.5
 20
2818.3378
 30
0.0
 11
1445.5
 21
2855.3378
 31
0.0
  0
LINE
  5
2C4
330
17
100
AcDbEntity
  8
FLOOR_1_WALLS
 62
6
100
AcDbLine
 10
1675.0
 20
5766.8382
 30
0.0
 11
1493.0
 21
5766.8382
 31
0.0
  0
CIRCLE
  5
2C5
330
17
100
AcDbEntity
  8
FLOOR_1_PAINTINGS
 62
1
100
AcDbCircle
 10
1675.0
 20
5766.8382
 30
0.0
 40
50.0
  0
TEXT
  5
2C6
330
17
100
AcDbEntity
  8
FLOOR_1_PAINTINGS
 62
1
100
AcDbText
 10
1675.0
 20
5866.8382
 30
0.0
 40
100.0
  1
1_0363
100
AcDbText
  0
LINE
  5
2C7
330
17
100
AcDbEntity
  8
FLOOR_1_WALLS
 62
6
100
AcDbLine
 10
1549.9362
 20
620.85339
 30
0.0
 11
1664.0
 21
620.85339
 31
0.0
  0
LINE
  5
2C8
330
17
100
AcDbEntity
  8
FLOOR_1_WALLS
 62
6
100
AcDbLine
 10
1661.5
 20
618.37141
 30
0.0
 11
1661.5
 21
928.35641
 31
0.0
  0
LINE
  5
2C9
330
17
100
AcDbEntity
  8
FLOOR_1_WALLS
 62
6
100
AcDbLine
 10
1661.5
 20
928.33792
 30
0.0
 11
1661.5
 21
1102.3379
 31
0.0
  0
LINE
  5
2CA
330
17
100
AcDbEntity
  8
FLOOR_1_WALLS
 62
6
100
AcDbLine
 10
1686.4362
 20
1278.3533
 30
0.0
 11
1686.4362
 21
1306.3533
 31
0.0
  0
LINE
  5
2CB
330
17
100
AcDbEntity
  8
FLOOR_1_WALLS
 62
6
100
AcDbLine
 10
1828.0
 20
1303.8378
 30
0.0
 11
2278.0
 21
1303.8378
 31
0.0
  0
CIRCLE
  5
2CC
330
17
100
AcDbEntity
  8
FLOOR_1_PAINTINGS
 62
1
100
AcDbCircle
 10
1828.0
 20
1303.8378
 30
0.0
 40
50.0
  0
TEXT
  5
2CD
330
17
100
AcDbEntity
  8
FLOOR_1_PAINTINGS
 62
1
100
AcDbText
 10
1828.0
 20
1403.8378
 30
0.0
 40
100.0
  1
1_0178
100
AcDbText
  0
LINE
  5
2CE
330
17
100
AcDbEntity
  8
FLOOR_1_WALLS
 62
6
100
AcDbLine
 10
1830.4362
 20
1278.3533
 30
0.0
 11
1830.4362
 21
1306.3533
 31
0.0
  0
LINE
  5
2CF
330
17
100
AcDbEntity
  8
FLOOR_1_WALLS
 62
6
100
AcDbLine
 10
1884.0
 20
5766.8382
 30
0.0
 11
1969.0
 21
5766.8382
 31
0.0
  0
LINE
  5
2D0
330
17
100
AcDbEntity
  8
FLOOR_1_WALLS
 62
6
100
AcDbLine
 10
1890.0
 20
620.85339
 30
0.0
 11
1999.9362
 21
620.85339
 31
0.0
  0
LINE
  5
2D1
330
17
100
AcDbEntity
  8
FLOOR_1_WALLS
 62
6
100
AcDbLine
 10
1890.0
 20
1099.8379
 30
0.0
 11
2315.0
 21
1099.8379
 31
0.0
  0
LINE
  5
2D2
330
17
100
AcDbEntity
  8
FLOOR_1_WALLS
 62
6
100
AcDbLine
 10
1892.5
 20
618.37141
 30
0.0
 11
1892.5
 21
928.35641
 31
0.0
  0
LINE
  5
2D3
330
17
100
AcDbEntity
  8
FLOOR_1_WALLS
 62
6
100
AcDbLine
 10
1892.5
 20
928.33792
 30
0.0
 11
1892.5
 21
1102.3379
 31
0.0
  0
LINE
  5
2D4
330
17
100
AcDbEntity
  8
FLOOR_1_WALLS
 62
6
100
AcDbLine
 10
1969.0
 20
5665.8382
 30
0.0
 11
2039.0
 21
5665.8382
 31
0.0
  0
LINE
  5
2D5
330
17
100
AcDbEntity
  8
FLOOR_1_WALLS
 62
6
100
AcDbLine
 10
1969.0
 20
5518.8382
 30
0.0
 11
2039.0
 21
5518.8382
 31
0.0
  0
LINE
  5
2D6
330
17
100
AcDbEntity
  8
FLOOR_1_WALLS
 62
6
100
AcDbLine
 10
1971.5
 20
5663.3382
 30
0.0
 11
1971.5
 21
5764.3382
 31
0.0
  0
LINE
  5
2D7
330
17
100
AcDbEntity
  8
FLOOR_1_WALLS
 62
6
100
AcDbLine
 10
1971.5
 20
4442.3382
 30
0.0
 11
1971.5
 21
5521.3382
 31
0.0
  0
CIRCLE
  5
2D8
330
17
100
AcDbEntity
  8
FLOOR_1_PAINTINGS
 62
1
100
AcDbCircle
 10
1971.5
 20
4442.3382
 30
0.0
 40
50.0
  0
TEXT
  5
2D9
330
17
100
AcDbEntity
  8
FLOOR_1_PAINTINGS
 62
1
100
AcDbText
 10
1971.5
 20
4542.3382
 30
0.0
 40
100.0
  1
1_0379
100
AcDbText
  0
LINE
  5
2DA
330
17
100
AcDbEntity
  8
FLOOR_1_WALLS
 62
6
100
AcDbLine
 10
2000.0
 20
620.85641
 30
0.0
 11
2145.0
 21
620.85641
 31
0.0
  0
LINE
  5
2DB
330
17
100
AcDbEntity
  8
FLOOR_1_WALLS
 62
6
100
AcDbLine
 10
2036.5
 20
5082.3382
 30
0.0
 11
2036.5
 21
4439.3382
 31
0.0
  0
CIRCLE
  5
2DC
330
17
100
AcDbEntity
  8
FLOOR_1_PAINTINGS
 62
1
100
AcDbCircle
 10
2036.5
 20
5082.3382
 30
0.0
 40
50.0
  0
TEXT
  5
2DD
330
17
100
AcDbEntity
  8
FLOOR_1_PAINTINGS
 62
1
100
AcDbText
 10
2036.5
 20
5182.3382
 30
0.0
 40
100.0
  1
1_0305
100
AcDbText
  0
CIRCLE
  5
2DE
330
17
100
AcDbEntity
  8
FLOOR_1_PAINTINGS
 62
1
100
AcDbCircle
 10
2036.5
 20
5082.3382
 30
0.0
 40
50.0
  0
TEXT
  5
2DF
330
17
100
AcDbEntity
  8
FLOOR_1_PAINTINGS
 62
1
100
AcDbText
 10
2036.5
 20
5182.3382
 30
0.0
 40
100.0
  1
1_0303
100
AcDbText
  0
CIRCLE
  5
2E0
330
17
100
AcDbEntity
  8
FLOOR_1_PAINTINGS
 62
1
100
AcDbCircle
 10
2036.5
 20
5082.3382
 30
0.0
 40
50.0
  0
TEXT
  5
2E1
330
17
100
AcDbEntity
  8
FLOOR_1_PAINTINGS
 62
1
100
AcDbText
 10
2036.5
 20
5182.3382
 30
0.0
 40
100.0
  1
1_0301
100
AcDbText
  0
LINE
  5
2E2
330
17
100
AcDbEntity
  8
FLOOR_1_WALLS
 62
6
100
AcDbLine
 10
2036.5
 20
5521.3382
 30
0.0
 11
2036.5
 21
5111.3382
 31
0.0
  0
CIRCLE
  5
2E3
330
17
100
AcDbEntity
  8
FLOOR_1_PAINTINGS
 62
1
100
AcDbCircle
 10
2036.5
 20
5521.3382
 30
0.0
 40
50.0
  0
TEXT
  5
2E4
330
17
100
AcDbEntity
  8
FLOOR_1_PAINTINGS
 62
1
100
AcDbText
 10
2036.5
 20
5621.3382
 30
0.0
 40
100.0
  1
1_0335
100
AcDbText
  0
CIRCLE
  5
2E5
330
17
100
AcDbEntity
  8
FLOOR_1_PAINTINGS
 62
1
100
AcDbCircle
 10
2036.5
 20
5521.3382
 30
0.0
 40
50.0
  0
TEXT
  5
2E6
330
17
100
AcDbEntity
  8
FLOOR_1_PAINTINGS
 62
1
100
AcDbText
 10
2036.5
 20
5621.3382
 30
0.0
 40
100.0
  1
1_0333
100
AcDbText
  0
LINE
  5
2E7
330
17
100
AcDbEntity
  8
FLOOR_1_WALLS
 62
6
100
AcDbLine
 10
2036.5
 20
5764.3382
 30
0.0
 11
2036.5
 21
5663.3382
 31
0.0
  0
CIRCLE
  5
2E8
330
17
100
AcDbEntity
  8
FLOOR_1_PAINTINGS
 62
1
100
AcDbCircle
 10
2036.5
 20
5764.3382
 30
0.0
 40
50.0
  0
TEXT
  5
2E9
330
17
100
AcDbEntity
  8
FLOOR_1_PAINTINGS
 62
1
100
AcDbText
 10
2036.5
 20
5864.3382
 30
0.0
 40
100.0
  1
1_0360
100
AcDbText
  0
LINE
  5
2EA
330
17
100
AcDbEntity
  8
FLOOR_1_WALLS
 62
6
100
AcDbLine
 10
2039.0
 20
5084.8382
 30
0.0
 11
2110.0
 21
5084.8382
 31
0.0
  0
LINE
  5
2EB
330
17
100
AcDbEntity
  8
FLOOR_1_WALLS
 62
6
100
AcDbLine
 10
2039.0
 20
4436.8382
 30
0.0
 11
2105.0
 21
4436.8382
 31
0.0
  0
LINE
  5
2EC
330
17
100
AcDbEntity
  8
FLOOR_1_WALLS
 62
6
100
AcDbLine
 10
2039.0
 20
5108.8382
 30
0.0
 11
2110.0
 21
5108.8382
 31
0.0
  0
LINE
  5
2ED
330
17
100
AcDbEntity
  8
FLOOR_1_WALLS
 62
6
100
AcDbLine
 10
2039.0
 20
5766.8382
 30
0.0
 11
2068.0
 21
5766.8382
 31
0.0
  0
LINE
  5
2EE
330
17
100
AcDbEntity
  8
FLOOR_1_WALLS
 62
6
100
AcDbLine
 10
2102.5
 20
4246.3382
 30
0.0
 11
2102.5
 21
4439.3382
 31
0.0
  0
LINE
  5
2EF
330
17
100
AcDbEntity
  8
FLOOR_1_WALLS
 62
6
100
AcDbLine
 10
2107.5
 20
5082.3382
 30
0.0
 11
2107.5
 21
5111.3382
 31
0.0
  0
LINE
  5
2F0
330
17
100
AcDbEntity
  8
FLOOR_1_WALLS
 62
6
100
AcDbLine
 10
2142.5
 20
890.33892
 30
0.0
 11
2142.5
 21
618.3564100000001
 31
0.0
  0
LINE
  5
2F1
330
17
100
AcDbEntity
  8
FLOOR_1_WALLS
 62
6
100
AcDbLine
 10
2775.0
 20
5084.8382
 30
0.0
 11
2252.0
 21
5084.8382
 31
0.0
  0
CIRCLE
  5
2F2
330
17
100
AcDbEntity
  8
FLOOR_1_PAINTINGS
 62
1
100
AcDbCircle
 10
2775.0
 20
5084.8382
 30
0.0
 40
50.0
  0
TEXT
  5
2F3
330
17
100
AcDbEntity
  8
FLOOR_1_PAINTINGS
 62
1
100
AcDbText
 10
2775.0
 20
5184.8382
 30
0.0
 40
100.0
  1
1_0311
100
AcDbText
  0
CIRCLE
  5
2F4
330
17
100
AcDbEntity
  8
FLOOR_1_PAINTINGS
 62
1
100
AcDbCircle
 10
2775.0
 20
5084.8382
 30
0.0
 40
50.0
  0
TEXT
  5
2F5
330
17
100
AcDbEntity
  8
FLOOR_1_PAINTINGS
 62
1
100
AcDbText
 10
2775.0
 20
5184.8382
 30
0.0
 40
100.0
  1
1_0313
100
AcDbText
  0
CIRCLE
  5
2F6
330
17
100
AcDbEntity
  8
FLOOR_1_PAINTINGS
 62
1
100
AcDbCircle
 10
2775.0
 20
5084.8382
 30
0.0
 40
50.0
  0
TEXT
  5
2F7
330
17
100
AcDbEntity
  8
FLOOR_1_PAINTINGS
 62
1
100
AcDbText
 10
2775.0
 20
5184.8382
 30
0.0
 40
100.0
  1
1_5850
100
AcDbText
  0
CIRCLE
  5
2F8
330
17
100
AcDbEntity
  8
FLOOR_1_PAINTINGS
 62
1
100
AcDbCircle
 10
2775.0
 20
5084.8382
 30
0.0
 40
50.0
  0
TEXT
  5
2F9
330
17
100
AcDbEntity
  8
FLOOR_1_PAINTINGS
 62
1
100
AcDbText
 10
2775.0
 20
5184.8382
 30
0.0
 40
100.0
  1
1_0309
100
AcDbText
  0
CIRCLE
  5
2FA
330
17
100
AcDbEntity
  8
FLOOR_1_PAINTINGS
 62
1
100
AcDbCircle
 10
2775.0
 20
5084.8382
 30
0.0
 40
50.0
  0
TEXT
  5
2FB
330
17
100
AcDbEntity
  8
FLOOR_1_PAINTINGS
 62
1
100
AcDbText
 10
2775.0
 20
5184.8382
 30
0.0
 40
100.0
  1
1_0307
100
AcDbText
  0
LINE
  5
2FC
330
17
100
AcDbEntity
  8
FLOOR_1_WALLS
 62
6
100
AcDbLine
 10
2252.0
 20
5108.8382
 30
0.0
 11
2774.0
 21
5108.8382
 31
0.0
  0
CIRCLE
  5
2FD
330
17
100
AcDbEntity
  8
FLOOR_1_PAINTINGS
 62
1
100
AcDbCircle
 10
2252.0
 20
5108.8382
 30
0.0
 40
50.0
  0
TEXT
  5
2FE
330
17
100
AcDbEntity
  8
FLOOR_1_PAINTINGS
 62
1
100
AcDbText
 10
2252.0
 20
5208.8382
 30
0.0
 40
100.0
  1
1_0339
100
AcDbText
  0
CIRCLE
  5
2FF
330
17
100
AcDbEntity
  8
FLOOR_1_PAINTINGS
 62
1
100
AcDbCircle
 10
2252.0
 20
5108.8382
 30
0.0
 40
50.0
  0
TEXT
  5
300
330
17
100
AcDbEntity
  8
FLOOR_1_PAINTINGS
 62
1
100
AcDbText
 10
2252.0
 20
5208.8382
 30
0.0
 40
100.0
  1
1_0337
100
AcDbText
  0
CIRCLE
  5
301
330
17
100
AcDbEntity
  8
FLOOR_1_PAINTINGS
 62
1
100
AcDbCircle
 10
2252.0
 20
5108.8382
 30
0.0
 40
50.0
  0
TEXT
  5
302
330
17
100
AcDbEntity
  8
FLOOR_1_PAINTINGS
 62
1
100
AcDbText
 10
2252.0
 20
5208.8382
 30
0.0
 40
100.0
  1
1_0341
100
AcDbText
  0
LINE
  5
303
330
17
100
AcDbEntity
  8
FLOOR_1_WALLS
 62
6
100
AcDbLine
 10
2254.5
 20
5082.3382
 30
0.0
 11
2254.5
 21
5111.3382
 31
0.0
  0
LINE
  5
304
330
17
100
AcDbEntity
  8
FLOOR_1_WALLS
 62
6
100
AcDbLine
 10
2460.0
 20
5766.8382
 30
0.0
 11
2277.0
 21
5766.8382
 31
0.0
  0
CIRCLE
  5
305
330
17
100
AcDbEntity
  8
FLOOR_1_PAINTINGS
 62
1
100
AcDbCircle
 10
2460.0
 20
5766.8382
 30
0.0
 40
50.0
  0
TEXT
  5
306
330
17
100
AcDbEntity
  8
FLOOR_1_PAINTINGS
 62
1
100
AcDbText
 10
2460.0
 20
5866.8382
 30
0.0
 40
100.0
  1
1_0358
100
AcDbText
  0
LINE
  5
307
330
17
100
AcDbEntity
  8
FLOOR_1_WALLS
 62
6
100
AcDbLine
 10
2278.0
 20
2472.8378
 30
0.0
 11
2381.0
 21
2472.8378
 31
0.0
  0
LINE
  5
308
330
17
100
AcDbEntity
  8
FLOOR_1_WALLS
 62
6
100
AcDbLine
 10
2278.0
 20
2203.8378
 30
0.0
 11
2381.0
 21
2203.8378
 31
0.0
  0
LINE
  5
309
330
17
100
AcDbEntity
  8
FLOOR_1_WALLS
 62
6
100
AcDbLine
 10
2278.0
 20
4430.8382
 30
0.0
 11
2775.0
 21
4430.8382
 31
0.0
  0
CIRCLE
  5
30A
330
17
100
AcDbEntity
  8
FLOOR_1_PAINTINGS
 62
1
100
AcDbCircle
 10
2278.0
 20
4430.8382
 30
0.0
 40
50.0
  0
TEXT
  5
30B
330
17
100
AcDbEntity
  8
FLOOR_1_PAINTINGS
 62
1
100
AcDbText
 10
2278.0
 20
4530.8382
 30
0.0
 40
100.0
  1
1_0328
100
AcDbText
  0
CIRCLE
  5
30C
330
17
100
AcDbEntity
  8
FLOOR_1_PAINTINGS
 62
1
100
AcDbCircle
 10
2278.0
 20
4430.8382
 30
0.0
 40
50.0
  0
TEXT
  5
30D
330
17
100
AcDbEntity
  8
FLOOR_1_PAINTINGS
 62
1
100
AcDbText
 10
2278.0
 20
4530.8382
 30
0.0
 40
100.0
  1
1_0326
100
AcDbText
  0
CIRCLE
  5
30E
330
17
100
AcDbEntity
  8
FLOOR_1_PAINTINGS
 62
1
100
AcDbCircle
 10
2278.0
 20
4430.8382
 30
0.0
 40
50.0
  0
TEXT
  5
30F
330
17
100
AcDbEntity
  8
FLOOR_1_PAINTINGS
 62
1
100
AcDbText
 10
2278.0
 20
4530.8382
 30
0.0
 40
100.0
  1
1_0324
100
AcDbText
  0
CIRCLE
  5
310
330
17
100
AcDbEntity
  8
FLOOR_1_PAINTINGS
 62
1
100
AcDbCircle
 10
2278.0
 20
4430.8382
 30
0.0
 40
50.0
  0
TEXT
  5
311
330
17
100
AcDbEntity
  8
FLOOR_1_PAINTINGS
 62
1
100
AcDbText
 10
2278.0
 20
4530.8382
 30
0.0
 40
100.0
  1
1_0322
100
AcDbText
  0
CIRCLE
  5
312
330
17
100
AcDbEntity
  8
FLOOR_1_PAINTINGS
 62
1
100
AcDbCircle
 10
2278.0
 20
4430.8382
 30
0.0
 40
50.0
  0
TEXT
  5
313
330
17
100
AcDbEntity
  8
FLOOR_1_PAINTINGS
 62
1
100
AcDbText
 10
2278.0
 20
4530.8382
 30
0.0
 40
100.0
  1
1_0320
100
AcDbText
  0
LINE
  5
314
330
17
100
AcDbEntity
  8
FLOOR_1_WALLS
 62
6
100
AcDbLine
 10
2280.5
 20
1306.3378
 30
0.0
 11
2280.5
 21
2206.3378000000002
 31
0.0
  0
CIRCLE
  5
315
330
17
100
AcDbEntity
  8
FLOOR_1_PAINTINGS
 62
1
100
AcDbCircle
 10
2280.5
 20
1306.3378
 30
0.0
 40
50.0
  0
TEXT
  5
316
330
17
100
AcDbEntity
  8
FLOOR_1_PAINTINGS
 62
1
100
AcDbText
 10
2280.5
 20
1406.3378
 30
0.0
 40
100.0
  1
1_0193
100
AcDbText
  0
CIRCLE
  5
317
330
17
100
AcDbEntity
  8
FLOOR_1_PAINTINGS
 62
1
100
AcDbCircle
 10
2280.5
 20
1306.3378
 30
0.0
 40
50.0
  0
TEXT
  5
318
330
17
100
AcDbEntity
  8
FLOOR_1_PAINTINGS
 62
1
100
AcDbText
 10
2280.5
 20
1406.3378
 30
0.0
 40
100.0
  1
1_0172
100
AcDbText
  0
CIRCLE
  5
319
330
17
100
AcDbEntity
  8
FLOOR_1_PAINTINGS
 62
1
100
AcDbCircle
 10
2280.5
 20
1306.3378
 30
0.0
 40
50.0
  0
TEXT
  5
31A
330
17
100
AcDbEntity
  8
FLOOR_1_PAINTINGS
 62
1
100
AcDbText
 10
2280.5
 20
1406.3378
 30
0.0
 40
100.0
  1
1_0174
100
AcDbText
  0
CIRCLE
  5
31B
330
17
100
AcDbEntity
  8
FLOOR_1_PAINTINGS
 62
1
100
AcDbCircle
 10
2280.5
 20
1306.3378
 30
0.0
 40
50.0
  0
TEXT
  5
31C
330
17
100
AcDbEntity
  8
FLOOR_1_PAINTINGS
 62
1
100
AcDbText
 10
2280.5
 20
1406.3378
 30
0.0
 40
100.0
  1
1_0176
100
AcDbText
  0
LINE
  5
31D
330
17
100
AcDbEntity
  8
FLOOR_1_WALLS
 62
6
100
AcDbLine
 10
2280.5
 20
2470.3378
 30
0.0
 11
2280.5
 21
2818.3378
 31
0.0
  0
CIRCLE
  5
31E
330
17
100
AcDbEntity
  8
FLOOR_1_PAINTINGS
 62
1
100
AcDbCircle
 10
2280.5
 20
2470.3378
 30
0.0
 40
50.0
  0
TEXT
  5
31F
330
17
100
AcDbEntity
  8
FLOOR_1_PAINTINGS
 62
1
100
AcDbText
 10
2280.5
 20
2570.3378
 30
0.0
 40
100.0
  1
1_0135
100
AcDbText
  0
CIRCLE
  5
320
330
17
100
AcDbEntity
  8
FLOOR_1_PAINTINGS
 62
1
100
AcDbCircle
 10
2280.5
 20
2470.3378
 30
0.0
 40
50.0
  0
TEXT
  5
321
330
17
100
AcDbEntity
  8
FLOOR_1_PAINTINGS
 62
1
100
AcDbText
 10
2280.5
 20
2570.3378
 30
0.0
 40
100.0
  1
1_0137
100
AcDbText
  0
LINE
  5
322
330
17
100
AcDbEntity
  8
FLOOR_1_WALLS
 62
6
100
AcDbLine
 10
2280.5
 20
2942.3378
 30
0.0
 11
2280.5
 21
4433.3382
 31
0.0
  0
CIRCLE
  5
323
330
17
100
AcDbEntity
  8
FLOOR_1_PAINTINGS
 62
1
100
AcDbCircle
 10
2280.5
 20
2942.3378
 30
0.0
 40
50.0
  0
TEXT
  5
324
330
17
100
AcDbEntity
  8
FLOOR_1_PAINTINGS
 62
1
100
AcDbText
 10
2280.5
 20
3042.3378
 30
0.0
 40
100.0
  1
1_0268
100
AcDbText
  0
CIRCLE
  5
325
330
17
100
AcDbEntity
  8
FLOOR_1_PAINTINGS
 62
1
100
AcDbCircle
 10
2280.5
 20
2942.3378
 30
0.0
 40
50.0
  0
TEXT
  5
326
330
17
100
AcDbEntity
  8
FLOOR_1_PAINTINGS
 62
1
100
AcDbText
 10
2280.5
 20
3042.3378
 30
0.0
 40
100.0
  1
1_5868
100
AcDbText
  0
CIRCLE
  5
327
330
17
100
AcDbEntity
  8
FLOOR_1_PAINTINGS
 62
1
100
AcDbCircle
 10
2280.5
 20
2942.3378
 30
0.0
 40
50.0
  0
TEXT
  5
328
330
17
100
AcDbEntity
  8
FLOOR_1_PAINTINGS
 62
1
100
AcDbText
 10
2280.5
 20
3042.3378
 30
0.0
 40
100.0
  1
1_5870
100
AcDbText
  0
CIRCLE
  5
329
330
17
100
AcDbEntity
  8
FLOOR_1_PAINTINGS
 62
1
100
AcDbCircle
 10
2280.5
 20
2942.3378
 30
0.0
 40
50.0
  0
TEXT
  5
32A
330
17
100
AcDbEntity
  8
FLOOR_1_PAINTINGS
 62
1
100
AcDbText
 10
2280.5
 20
3042.3378
 30
0.0
 40
100.0
  1
1_5872
100
AcDbText
  0
CIRCLE
  5
32B
330
17
100
AcDbEntity
  8
FLOOR_1_PAINTINGS
 62
1
100
AcDbCircle
 10
2280.5
 20
2942.3378
 30
0.0
 40
50.0
  0
TEXT
  5
32C
330
17
100
AcDbEntity
  8
FLOOR_1_PAINTINGS
 62
1
100
AcDbText
 10
2280.5
 20
3042.3378
 30
0.0
 40
100.0
  1
1_0274
100
AcDbText
  0
LINE
  5
32D
330
17
100
AcDbEntity
  8
FLOOR_1_WALLS
 62
6
100
AcDbLine
 10
2313.5
 20
416.33792
 30
0.0
 11
2313.5
 21
1097.3379
 31
0.0
  0
CIRCLE
  5
32E
330
17
100
AcDbEntity
  8
FLOOR_1_PAINTINGS
 62
1
100
AcDbCircle
 10
2313.5
 20
416.33792
 30
0.0
 40
50.0
  0
TEXT
  5
32F
330
17
100
AcDbEntity
  8
FLOOR_1_PAINTINGS
 62
1
100
AcDbText
 10
2313.5
 20
516.3379199999999
 30
0.0
 40
100.0
  1
1_5876
100
AcDbText
  0
LINE
  5
330
330
17
100
AcDbEntity
  8
FLOOR_1_WALLS
 62
6
100
AcDbLine
 10
2315.0
 20
1129.8378
 30
0.0
 11
2390.0
 21
1129.8378
 31
0.0
  0
LINE
  5
331
330
17
100
AcDbEntity
  8
FLOOR_1_WALLS
 62
6
100
AcDbLine
 10
2317.5
 20
1102.3379
 30
0.0
 11
2317.5
 21
1132.3378
 31
0.0
  0
LINE
  5
332
330
17
100
AcDbEntity
  8
FLOOR_1_WALLS
 62
6
100
AcDbLine
 10
2376.0
 20
1749.8378
 30
0.0
 11
4899.0
 21
1749.8378
 31
0.0
  0
CIRCLE
  5
333
330
17
100
AcDbEntity
  8
FLOOR_1_PAINTINGS
 62
1
100
AcDbCircle
 10
2376.0
 20
1749.8378
 30
0.0
 40
50.0
  0
TEXT
  5
334
330
17
100
AcDbEntity
  8
FLOOR_1_PAINTINGS
 62
1
100
AcDbText
 10
2376.0
 20
1849.8378
 30
0.0
 40
100.0
  1
1_0103
100
AcDbText
  0
CIRCLE
  5
335
330
17
100
AcDbEntity
  8
FLOOR_1_PAINTINGS
 62
1
100
AcDbCircle
 10
2376.0
 20
1749.8378
 30
0.0
 40
50.0
  0
TEXT
  5
336
330
17
100
AcDbEntity
  8
FLOOR_1_PAINTINGS
 62
1
100
AcDbText
 10
2376.0
 20
1849.8378
 30
0.0
 40
100.0
  1
1_0095
100
AcDbText
  0
CIRCLE
  5
337
330
17
100
AcDbEntity
  8
FLOOR_1_PAINTINGS
 62
1
100
AcDbCircle
 10
2376.0
 20
1749.8378
 30
0.0
 40
50.0
  0
TEXT
  5
338
330
17
100
AcDbEntity
  8
FLOOR_1_PAINTINGS
 62
1
100
AcDbText
 10
2376.0
 20
1849.8378
 30
0.0
 40
100.0
  1
1_0097
100
AcDbText
  0
CIRCLE
  5
339
330
17
100
AcDbEntity
  8
FLOOR_1_PAINTINGS
 62
1
100
AcDbCircle
 10
2376.0
 20
1749.8378
 30
0.0
 40
50.0
  0
TEXT
  5
33A
330
17
100
AcDbEntity
  8
FLOOR_1_PAINTINGS
 62
1
100
AcDbText
 10
2376.0
 20
1849.8378
 30
0.0
 40
100.0
  1
1_5884
100
AcDbText
  0
CIRCLE
  5
33B
330
17
100
AcDbEntity
  8
FLOOR_1_PAINTINGS
 62
1
100
AcDbCircle
 10
2376.0
 20
1749.8378
 30
0.0
 40
50.0
  0
TEXT
  5
33C
330
17
100
AcDbEntity
  8
FLOOR_1_PAINTINGS
 62
1
100
AcDbText
 10
2376.0
 20
1849.8378
 30
0.0
 40
100.0
  1
1_5882
100
AcDbText
  0
CIRCLE
  5
33D
330
17
100
AcDbEntity
  8
FLOOR_1_PAINTINGS
 62
1
100
AcDbCircle
 10
2376.0
 20
1749.8378
 30
0.0
 40
50.0
  0
TEXT
  5
33E
330
17
100
AcDbEntity
  8
FLOOR_1_PAINTINGS
 62
1
100
AcDbText
 10
2376.0
 20
1849.8378
 30
0.0
 40
100.0
  1
1_5886
100
AcDbText
  0
CIRCLE
  5
33F
330
17
100
AcDbEntity
  8
FLOOR_1_PAINTINGS
 62
1
100
AcDbCircle
 10
2376.0
 20
1749.8378
 30
0.0
 40
50.0
  0
TEXT
  5
340
330
17
100
AcDbEntity
  8
FLOOR_1_PAINTINGS
 62
1
100
AcDbText
 10
2376.0
 20
1849.8378
 30
0.0
 40
100.0
  1
1_0084
100
AcDbText
  0
CIRCLE
  5
341
330
17
100
AcDbEntity
  8
FLOOR_1_PAINTINGS
 62
1
100
AcDbCircle
 10
2376.0
 20
1749.8378
 30
0.0
 40
50.0
  0
TEXT
  5
342
330
17
100
AcDbEntity
  8
FLOOR_1_PAINTINGS
 62
1
100
AcDbText
 10
2376.0
 20
1849.8378
 30
0.0
 40
100.0
  1
1_0082
100
AcDbText
  0
CIRCLE
  5
343
330
17
100
AcDbEntity
  8
FLOOR_1_PAINTINGS
 62
1
100
AcDbCircle
 10
2376.0
 20
1749.8378
 30
0.0
 40
50.0
  0
TEXT
  5
344
330
17
100
AcDbEntity
  8
FLOOR_1_PAINTINGS
 62
1
100
AcDbText
 10
2376.0
 20
1849.8378
 30
0.0
 40
100.0
  1
1_0080
100
AcDbText
  0
CIRCLE
  5
345
330
17
100
AcDbEntity
  8
FLOOR_1_PAINTINGS
 62
1
100
AcDbCircle
 10
2376.0
 20
1749.8378
 30
0.0
 40
50.0
  0
TEXT
  5
346
330
17
100
AcDbEntity
  8
FLOOR_1_PAINTINGS
 62
1
100
AcDbText
 10
2376.0
 20
1849.8378
 30
0.0
 40
100.0
  1
1_0113
100
AcDbText
  0
CIRCLE
  5
347
330
17
100
AcDbEntity
  8
FLOOR_1_PAINTINGS
 62
1
100
AcDbCircle
 10
2376.0
 20
1749.8378
 30
0.0
 40
50.0
  0
TEXT
  5
348
330
17
100
AcDbEntity
  8
FLOOR_1_PAINTINGS
 62
1
100
AcDbText
 10
2376.0
 20
1849.8378
 30
0.0
 40
100.0
  1
1_5888
100
AcDbText
  0
CIRCLE
  5
349
330
17
100
AcDbEntity
  8
FLOOR_1_PAINTINGS
 62
1
100
AcDbCircle
 10
2376.0
 20
1749.8378
 30
0.0
 40
50.0
  0
TEXT
  5
34A
330
17
100
AcDbEntity
  8
FLOOR_1_PAINTINGS
 62
1
100
AcDbText
 10
2376.0
 20
1849.8378
 30
0.0
 40
100.0
  1
1_0148
100
AcDbText
  0
CIRCLE
  5
34B
330
17
100
AcDbEntity
  8
FLOOR_1_PAINTINGS
 62
1
100
AcDbCircle
 10
2376.0
 20
1749.8378
 30
0.0
 40
50.0
  0
TEXT
  5
34C
330
17
100
AcDbEntity
  8
FLOOR_1_PAINTINGS
 62
1
100
AcDbText
 10
2376.0
 20
1849.8378
 30
0.0
 40
100.0
  1
1_0139
100
AcDbText
  0
CIRCLE
  5
34D
330
17
100
AcDbEntity
  8
FLOOR_1_PAINTINGS
 62
1
100
AcDbCircle
 10
2376.0
 20
1749.8378
 30
0.0
 40
50.0
  0
TEXT
  5
34E
330
17
100
AcDbEntity
  8
FLOOR_1_PAINTINGS
 62
1
100
AcDbText
 10
2376.0
 20
1849.8378
 30
0.0
 40
100.0
  1
1_0144
100
AcDbText
  0
CIRCLE
  5
34F
330
17
100
AcDbEntity
  8
FLOOR_1_PAINTINGS
 62
1
100
AcDbCircle
 10
2376.0
 20
1749.8378
 30
0.0
 40
50.0
  0
TEXT
  5
350
330
17
100
AcDbEntity
  8
FLOOR_1_PAINTINGS
 62
1
100
AcDbText
 10
2376.0
 20
1849.8378
 30
0.0
 40
100.0
  1
1_5896
100
AcDbText
  0
CIRCLE
  5
351
330
17
100
AcDbEntity
  8
FLOOR_1_PAINTINGS
 62
1
100
AcDbCircle
 10
2376.0
 20
1749.8378
 30
0.0
 40
50.0
  0
TEXT
  5
352
330
17
100
AcDbEntity
  8
FLOOR_1_PAINTINGS
 62
1
100
AcDbText
 10
2376.0
 20
1849.8378
 30
0.0
 40
100.0
  1
1_6000
100
AcDbText
  0
CIRCLE
  5
353
330
17
100
AcDbEntity
  8
FLOOR_1_PAINTINGS
 62
1
100
AcDbCircle
 10
2376.0
 20
1749.8378
 30
0.0
 40
50.0
  0
TEXT
  5
354
330
17
100
AcDbEntity
  8
FLOOR_1_PAINTINGS
 62
1
100
AcDbText
 10
2376.0
 20
1849.8378
 30
0.0
 40
100.0
  1
1_0111
100
AcDbText
  0
CIRCLE
  5
355
330
17
100
AcDbEntity
  8
FLOOR_1_PAINTINGS
 62
1
100
AcDbCircle
 10
2376.0
 20
1749.8378
 30
0.0
 40
50.0
  0
TEXT
  5
356
330
17
100
AcDbEntity
  8
FLOOR_1_PAINTINGS
 62
1
100
AcDbText
 10
2376.0
 20
1849.8378
 30
0.0
 40
100.0
  1
1_5892
100
AcDbText
  0
CIRCLE
  5
357
330
17
100
AcDbEntity
  8
FLOOR_1_PAINTINGS
 62
1
100
AcDbCircle
 10
2376.0
 20
1749.8378
 30
0.0
 40
50.0
  0
TEXT
  5
358
330
17
100
AcDbEntity
  8
FLOOR_1_PAINTINGS
 62
1
100
AcDbText
 10
2376.0
 20
1849.8378
 30
0.0
 40
100.0
  1
1_5894
100
AcDbText
  0
LINE
  5
359
330
17
100
AcDbEntity
  8
FLOOR_1_WALLS
 62
6
100
AcDbLine
 10
2378.5
 20
2206.3378000000002
 30
0.0
 11
2378.5
 21
1747.3378
 31
0.0
  0
CIRCLE
  5
35A
330
17
100
AcDbEntity
  8
FLOOR_1_PAINTINGS
 62
1
100
AcDbCircle
 10
2378.5
 20
2206.3378000000002
 30
0.0
 40
50.0
  0
TEXT
  5
35B
330
17
100
AcDbEntity
  8
FLOOR_1_PAINTINGS
 62
1
100
AcDbText
 10
2378.5
 20
2306.3378000000002
 30
0.0
 40
100.0
  1
1_5880
100
AcDbText
  0
CIRCLE
  5
35C
330
17
100
AcDbEntity
  8
FLOOR_1_PAINTINGS
 62
1
100
AcDbCircle
 10
2378.5
 20
2206.3378000000002
 30
0.0
 40
50.0
  0
TEXT
  5
35D
330
17
100
AcDbEntity
  8
FLOOR_1_PAINTINGS
 62
1
100
AcDbText
 10
2378.5
 20
2306.3378000000002
 30
0.0
 40
100.0
  1
1_5878
100
AcDbText
  0
CIRCLE
  5
35E
330
17
100
AcDbEntity
  8
FLOOR_1_PAINTINGS
 62
1
100
AcDbCircle
 10
2378.5
 20
2206.3378000000002
 30
0.0
 40
50.0
  0
TEXT
  5
35F
330
17
100
AcDbEntity
  8
FLOOR_1_PAINTINGS
 62
1
100
AcDbText
 10
2378.5
 20
2306.3378000000002
 30
0.0
 40
100.0
  1
1_0101
100
AcDbText
  0
LINE
  5
360
330
17
100
AcDbEntity
  8
FLOOR_1_WALLS
 62
6
100
AcDbLine
 10
2389.9362
 20
1280.8533
 30
0.0
 11
1827.9362
 21
1280.8533
 31
0.0
  0
CIRCLE
  5
361
330
17
100
AcDbEntity
  8
FLOOR_1_PAINTINGS
 62
1
100
AcDbCircle
 10
2389.9362
 20
1280.8533
 30
0.0
 40
50.0
  0
TEXT
  5
362
330
17
100
AcDbEntity
  8
FLOOR_1_PAINTINGS
 62
1
100
AcDbText
 10
2389.9362
 20
1380.8533
 30
0.0
 40
100.0
  1
1_0208
100
AcDbText
  0
CIRCLE
  5
363
330
17
100
AcDbEntity
  8
FLOOR_1_PAINTINGS
 62
1
100
AcDbCircle
 10
2389.9362
 20
1280.8533
 30
0.0
 40
50.0
  0
TEXT
  5
364
330
17
100
AcDbEntity
  8
FLOOR_1_PAINTINGS
 62
1
100
AcDbText
 10
2389.9362
 20
1380.8533
 30
0.0
 40
100.0
  1
1_0206
100
AcDbText
  0
LINE
  5
365
330
17
100
AcDbEntity
  8
FLOOR_1_WALLS
 62
6
100
AcDbLine
 10
2507.5
 20
2195.3564
 30
0.0
 11
2507.5
 21
2211.3564
 31
0.0
  0
LINE
  5
366
330
17
100
AcDbEntity
  8
FLOOR_1_WALLS
 62
6
100
AcDbLine
 10
2774.0
 20
5766.8382
 30
0.0
 11
2669.0
 21
5766.8382
 31
0.0
  0
CIRCLE
  5
367
330
17
100
AcDbEntity
  8
FLOOR_1_PAINTINGS
 62
1
100
AcDbCircle
 10
2774.0
 20
5766.8382
 30
0.0
 40
50.0
  0
TEXT
  5
368
330
17
100
AcDbEntity
  8
FLOOR_1_PAINTINGS
 62
1
100
AcDbText
 10
2774.0
 20
5866.8382
 30
0.0
 40
100.0
  1
1_0356
100
AcDbText
  0
LINE
  5
369
330
17
100
AcDbEntity
  8
FLOOR_1_WALLS
 62
6
100
AcDbLine
 10
2769.5
 20
1000.33792
 30
0.0
 11
2769.5
 21
1580.3378
 31
0.0
  0
LINE
  5
36A
330
17
100
AcDbEntity
  8
FLOOR_1_WALLS
 62
6
100
AcDbLine
 10
2772.0
 20
853.83792
 30
0.0
 11
2833.0
 21
853.83792
 31
0.0
  0
LINE
  5
36B
330
17
100
AcDbEntity
  8
FLOOR_1_WALLS
 62
6
100
AcDbLine
 10
2772.0
 20
1582.8378
 30
0.0
 11
2970.0
 21
1582.8378
 31
0.0
  0
LINE
  5
36C
330
17
100
AcDbEntity
  8
FLOOR_1_WALLS
 62
6
100
AcDbLine
 10
2776.491
 20
5352.3382
 30
0.0
 11
2776.491
 21
5496.3382
 31
0.0
  0
CIRCLE
  5
36D
330
17
100
AcDbEntity
  8
FLOOR_1_PAINTINGS
 62
1
100
AcDbCircle
 10
2776.491
 20
5352.3382
 30
0.0
 40
50.0
  0
TEXT
  5
36E
330
17
100
AcDbEntity
  8
FLOOR_1_PAINTINGS
 62
1
100
AcDbText
 10
2776.491
 20
5452.3382
 30
0.0
 40
100.0
  1
1_0345
100
AcDbText
  0
LINE
  5
36F
330
17
100
AcDbEntity
  8
FLOOR_1_WALLS
 62
6
100
AcDbLine
 10
2776.5
 20
5111.3382
 30
0.0
 11
2776.5
 21
5161.3382
 31
0.0
  0
LINE
  5
370
330
17
100
AcDbEntity
  8
FLOOR_1_WALLS
 62
6
100
AcDbLine
 10
2776.5
 20
5687.3382
 30
0.0
 11
2776.5
 21
5764.3382
 31
0.0
  0
CIRCLE
  5
371
330
17
100
AcDbEntity
  8
FLOOR_1_PAINTINGS
 62
1
100
AcDbCircle
 10
2776.5
 20
5687.3382
 30
0.0
 40
50.0
  0
TEXT
  5
372
330
17
100
AcDbEntity
  8
FLOOR_1_PAINTINGS
 62
1
100
AcDbText
 10
2776.5
 20
5787.3382
 30
0.0
 40
100.0
  1
1_0354
100
AcDbText
  0
CIRCLE
  5
373
330
17
100
AcDbEntity
  8
FLOOR_1_PAINTINGS
 62
1
100
AcDbCircle
 10
2776.5
 20
5687.3382
 30
0.0
 40
50.0
  0
TEXT
  5
374
330
17
100
AcDbEntity
  8
FLOOR_1_PAINTINGS
 62
1
100
AcDbText
 10
2776.5
 20
5787.3382
 30
0.0
 40
100.0
  1
1_0352
100
AcDbText
  0
LINE
  5
375
330
17
100
AcDbEntity
  8
FLOOR_1_WALLS
 62
6
100
AcDbLine
 10
2777.5
 20
4433.3382
 30
0.0
 11
2777.5
 21
4495.3382
 31
0.0
  0
LINE
  5
376
330
17
100
AcDbEntity
  8
FLOOR_1_WALLS
 62
6
100
AcDbLine
 10
2777.5
 20
4686.3382
 30
0.0
 11
2777.5
 21
4830.3382
 31
0.0
  0
LINE
  5
377
330
17
100
AcDbEntity
  8
FLOOR_1_WALLS
 62
6
100
AcDbLine
 10
2777.5
 20
5021.3382
 30
0.0
 11
2777.5
 21
5082.3382
 31
0.0
  0
LINE
  5
378
330
17
100
AcDbEntity
  8
FLOOR_1_WALLS
 62
6
100
AcDbLine
 10
2830.5
 20
416.33792
 30
0.0
 11
2830.5
 21
856.3379199999999
 31
0.0
  0
LINE
  5
379
330
17
100
AcDbEntity
  8
FLOOR_1_WALLS
 62
6
100
AcDbLine
 10
2833.0
 20
413.83792
 30
0.0
 11
3175.0
 21
413.83792
 31
0.0
  0
CIRCLE
  5
37A
330
17
100
AcDbEntity
  8
FLOOR_1_PAINTINGS
 62
1
100
AcDbCircle
 10
2833.0
 20
413.83792
 30
0.0
 40
50.0
  0
TEXT
  5
37B
330
17
100
AcDbEntity
  8
FLOOR_1_PAINTINGS
 62
1
100
AcDbText
 10
2833.0
 20
513.8379199999999
 30
0.0
 40
100.0
  1
1_0058
100
AcDbText
  0
LINE
  5
37C
330
17
100
AcDbEntity
  8
FLOOR_1_WALLS
 62
6
100
AcDbLine
 10
2935.9362
 20
2472.8533
 30
0.0
 11
2957.9362
 21
2472.8533
 31
0.0
  0
LINE
  5
37D
330
17
100
AcDbEntity
  8
FLOOR_1_WALLS
 62
6
100
AcDbLine
 10
2954.5
 20
2195.3564
 30
0.0
 11
2954.5
 21
2211.3564
 31
0.0
  0
LINE
  5
37E
330
17
100
AcDbEntity
  8
FLOOR_1_WALLS
 62
6
100
AcDbLine
 10
2955.4362
 20
2470.3534
 30
0.0
 11
2955.4362
 21
2823.3534
 31
0.0
  0
LINE
  5
37F
330
17
100
AcDbEntity
  8
FLOOR_1_WALLS
 62
6
100
AcDbLine
 10
2505.0
 20
2208.8564
 30
0.0
 11
2957.0
 21
2208.8564
 31
0.0
  0
CIRCLE
  5
380
330
17
100
AcDbEntity
  8
FLOOR_1_PAINTINGS
 62
1
100
AcDbCircle
 10
2505.0
 20
2208.8564
 30
0.0
 40
50.0
  0
TEXT
  5
381
330
17
100
AcDbEntity
  8
FLOOR_1_PAINTINGS
 62
1
100
AcDbText
 10
2505.0
 20
2308.8564
 30
0.0
 40
100.0
  1
1_0183
100
AcDbText
  0
CIRCLE
  5
382
330
17
100
AcDbEntity
  8
FLOOR_1_PAINTINGS
 62
1
100
AcDbCircle
 10
2505.0
 20
2208.8564
 30
0.0
 40
50.0
  0
TEXT
  5
383
330
17
100
AcDbEntity
  8
FLOOR_1_PAINTINGS
 62
1
100
AcDbText
 10
2505.0
 20
2308.8564
 30
0.0
 40
100.0
  1
1_0181
100
AcDbText
  0
LINE
  5
384
330
17
100
AcDbEntity
  8
FLOOR_1_WALLS
 62
6
100
AcDbLine
 10
2957.0
 20
2197.8564
 30
0.0
 11
2505.0
 21
2197.8564
 31
0.0
  0
CIRCLE
  5
385
330
17
100
AcDbEntity
  8
FLOOR_1_PAINTINGS
 62
1
100
AcDbCircle
 10
2957.0
 20
2197.8564
 30
0.0
 40
50.0
  0
TEXT
  5
386
330
17
100
AcDbEntity
  8
FLOOR_1_PAINTINGS
 62
1
100
AcDbText
 10
2957.0
 20
2297.8564
 30
0.0
 40
100.0
  1
1_0093
100
AcDbText
  0
CIRCLE
  5
387
330
17
100
AcDbEntity
  8
FLOOR_1_PAINTINGS
 62
1
100
AcDbCircle
 10
2957.0
 20
2197.8564
 30
0.0
 40
50.0
  0
TEXT
  5
388
330
17
100
AcDbEntity
  8
FLOOR_1_PAINTINGS
 62
1
100
AcDbText
 10
2957.0
 20
2297.8564
 30
0.0
 40
100.0
  1
1_0086
100
AcDbText
  0
CIRCLE
  5
389
330
17
100
AcDbEntity
  8
FLOOR_1_PAINTINGS
 62
1
100
AcDbCircle
 10
2957.0
 20
2197.8564
 30
0.0
 40
50.0
  0
TEXT
  5
38A
330
17
100
AcDbEntity
  8
FLOOR_1_PAINTINGS
 62
1
100
AcDbText
 10
2957.0
 20
2297.8564
 30
0.0
 40
100.0
  1
1_0088
100
AcDbText
  0
LINE
  5
38B
330
17
100
AcDbEntity
  8
FLOOR_1_WALLS
 62
6
100
AcDbLine
 10
2958.0
 20
2825.8378
 30
0.0
 11
3583.0
 21
2825.8378
 31
0.0
  0
LINE
  5
38C
330
17
100
AcDbEntity
  8
FLOOR_1_WALLS
 62
6
100
AcDbLine
 10
2964.9362
 20
1213.8533
 30
0.0
 11
3495.9362
 21
1213.8533
 31
0.0
  0
LINE
  5
38D
330
17
100
AcDbEntity
  8
FLOOR_1_WALLS
 62
6
100
AcDbLine
 10
2964.9362
 20
1078.8534
 30
0.0
 11
3495.9362
 21
1078.8534
 31
0.0
  0
LINE
  5
38E
330
17
100
AcDbEntity
  8
FLOOR_1_WALLS
 62
6
100
AcDbLine
 10
2965.0
 20
1437.8378
 30
0.0
 11
4937.0
 21
1437.8378
 31
0.0
  0
LINE
  5
38F
330
17
100
AcDbEntity
  8
FLOOR_1_WALLS
 62
6
100
AcDbLine
 10
2967.4362
 20
1216.3533
 30
0.0
 11
2967.4362
 21
1076.3534
 31
0.0
  0
LINE
  5
390
330
17
100
AcDbEntity
  8
FLOOR_1_WALLS
 62
6
100
AcDbLine
 10
2967.5
 20
1216.3378
 30
0.0
 11
2967.5
 21
1440.3378
 31
0.0
  0
CIRCLE
  5
391
330
17
100
AcDbEntity
  8
FLOOR_1_PAINTINGS
 62
1
100
AcDbCircle
 10
2967.5
 20
1216.3378
 30
0.0
 40
50.0
  0
TEXT
  5
392
330
17
100
AcDbEntity
  8
FLOOR_1_PAINTINGS
 62
1
100
AcDbText
 10
2967.5
 20
1316.3378
 30
0.0
 40
100.0
  1
1_5928
100
AcDbText
  0
LINE
  5
393
330
17
100
AcDbEntity
  8
FLOOR_1_WALLS
 62
6
100
AcDbLine
 10
2970.0
 20
1582.8378
 30
0.0
 11
5381.0
 21
1582.8378
 31
0.0
  0
LINE
  5
394
330
17
100
AcDbEntity
  8
FLOOR_1_WALLS
 62
6
100
AcDbLine
 10
3174.9362
 20
853.85339
 30
0.0
 11
3205.9362
 21
853.85339
 31
0.0
  0
LINE
  5
395
330
17
100
AcDbEntity
  8
FLOOR_1_WALLS
 62
6
100
AcDbLine
 10
3177.4362
 20
416.35339
 30
0.0
 11
3177.4362
 21
856.35339
 31
0.0
  0
LINE
  5
396
330
17
100
AcDbEntity
  8
FLOOR_1_WALLS
 62
6
100
AcDbLine
 10
3205.9362
 20
853.85339
 30
0.0
 11
3549.9362
 21
853.85339
 31
0.0
  0
CIRCLE
  5
397
330
17
100
AcDbEntity
  8
FLOOR_1_PAINTINGS
 62
1
100
AcDbCircle
 10
3205.9362
 20
853.85339
 30
0.0
 40
50.0
  0
TEXT
  5
398
330
17
100
AcDbEntity
  8
FLOOR_1_PAINTINGS
 62
1
100
AcDbText
 10
3205.9362
 20
953.85339
 30
0.0
 40
100.0
  1
1_0078
100
AcDbText
  0
LINE
  5
399
330
17
100
AcDbEntity
  8
FLOOR_1_WALLS
 62
6
100
AcDbLine
 10
3493.4362
 20
1216.3534
 30
0.0
 11
3493.4362
 21
1076.3534
 31
0.0
  0
LINE
  5
39A
330
17
100
AcDbEntity
  8
FLOOR_1_WALLS
 62
6
100
AcDbLine
 10
6118.0
 20
1078.8379
 30
0.0
 11
3496.0
 21
1078.8379
 31
0.0
  0
CIRCLE
  5
39B
330
17
100
AcDbEntity
  8
FLOOR_1_PAINTINGS
 62
1
100
AcDbCircle
 10
6118.0
 20
1078.8379
 30
0.0
 40
50.0
  0
TEXT
  5
39C
330
17
100
AcDbEntity
  8
FLOOR_1_PAINTINGS
 62
1
100
AcDbText
 10
6118.0
 20
1178.8379
 30
0.0
 40
100.0
  1
1_5909
100
AcDbText
  0
CIRCLE
  5
39D
330
17
100
AcDbEntity
  8
FLOOR_1_PAINTINGS
 62
1
100
AcDbCircle
 10
6118.0
 20
1078.8379
 30
0.0
 40
50.0
  0
TEXT
  5
39E
330
17
100
AcDbEntity
  8
FLOOR_1_PAINTINGS
 62
1
100
AcDbText
 10
6118.0
 20
1178.8379
 30
0.0
 40
100.0
  1
1_5911
100
AcDbText
  0
CIRCLE
  5
39F
330
17
100
AcDbEntity
  8
FLOOR_1_PAINTINGS
 62
1
100
AcDbCircle
 10
6118.0
 20
1078.8379
 30
0.0
 40
50.0
  0
TEXT
  5
3A0
330
17
100
AcDbEntity
  8
FLOOR_1_PAINTINGS
 62
1
100
AcDbText
 10
6118.0
 20
1178.8379
 30
0.0
 40
100.0
  1
1_5913
100
AcDbText
  0
CIRCLE
  5
3A1
330
17
100
AcDbEntity
  8
FLOOR_1_PAINTINGS
 62
1
100
AcDbCircle
 10
6118.0
 20
1078.8379
 30
0.0
 40
50.0
  0
TEXT
  5
3A2
330
17
100
AcDbEntity
  8
FLOOR_1_PAINTINGS
 62
1
100
AcDbText
 10
6118.0
 20
1178.8379
 30
0.0
 40
100.0
  1
1_5915
100
AcDbText
  0
CIRCLE
  5
3A3
330
17
100
AcDbEntity
  8
FLOOR_1_PAINTINGS
 62
1
100
AcDbCircle
 10
6118.0
 20
1078.8379
 30
0.0
 40
50.0
  0
TEXT
  5
3A4
330
17
100
AcDbEntity
  8
FLOOR_1_PAINTINGS
 62
1
100
AcDbText
 10
6118.0
 20
1178.8379
 30
0.0
 40
100.0
  1
1_5917
100
AcDbText
  0
LINE
  5
3A5
330
17
100
AcDbEntity
  8
FLOOR_1_WALLS
 62
6
100
AcDbLine
 10
3541.0
 20
1925.8564
 30
0.0
 11
3557.0
 21
1925.8564
 31
0.0
  0
LINE
  5
3A6
330
17
100
AcDbEntity
  8
FLOOR_1_WALLS
 62
6
100
AcDbLine
 10
3541.0
 20
2160.8564
 30
0.0
 11
3557.0
 21
2160.8564
 31
0.0
  0
LINE
  5
3A7
330
17
100
AcDbEntity
  8
FLOOR_1_WALLS
 62
6
100
AcDbLine
 10
3543.5
 20
1923.3564
 30
0.0
 11
3543.5
 21
2163.3563999999997
 31
0.0
  0
CIRCLE
  5
3A8
330
17
100
AcDbEntity
  8
FLOOR_1_PAINTINGS
 62
1
100
AcDbCircle
 10
3543.5
 20
1923.3564
 30
0.0
 40
50.0
  0
TEXT
  5
3A9
330
17
100
AcDbEntity
  8
FLOOR_1_PAINTINGS
 62
1
100
AcDbText
 10
3543.5
 20
2023.3564
 30
0.0
 40
100.0
  1
1_0118
100
AcDbText
  0
CIRCLE
  5
3AA
330
17
100
AcDbEntity
  8
FLOOR_1_PAINTINGS
 62
1
100
AcDbCircle
 10
3543.5
 20
1923.3564
 30
0.0
 40
50.0
  0
TEXT
  5
3AB
330
17
100
AcDbEntity
  8
FLOOR_1_PAINTINGS
 62
1
100
AcDbText
 10
3543.5
 20
2023.3564
 30
0.0
 40
100.0
  1
1_0120
100
AcDbText
  0
LINE
  5
3AC
330
17
100
AcDbEntity
  8
FLOOR_1_WALLS
 62
6
100
AcDbLine
 10
3544.5
 20
2190.3564
 30
0.0
 11
3544.5
 21
2206.3564
 31
0.0
  0
LINE
  5
3AD
330
17
100
AcDbEntity
  8
FLOOR_1_WALLS
 62
6
100
AcDbLine
 10
3547.413
 20
186.33791
 30
0.0
 11
3547.413
 21
730.3379199999999
 31
0.0
  0
LINE
  5
3AE
330
17
100
AcDbEntity
  8
FLOOR_1_WALLS
 62
6
100
AcDbLine
 10
3547.4362
 20
856.35339
 30
0.0
 11
3547.4362
 21
831.35339
 31
0.0
  0
LINE
  5
3AF
330
17
100
AcDbEntity
  8
FLOOR_1_WALLS
 62
6
100
AcDbLine
 10
3550.0
 20
183.83791
 30
0.0
 11
3574.0
 21
183.83791
 31
0.0
  0
LINE
  5
3B0
330
17
100
AcDbEntity
  8
FLOOR_1_WALLS
 62
6
100
AcDbLine
 10
3554.5
 20
2163.3563999999997
 30
0.0
 11
3554.5
 21
1923.3564
 31
0.0
  0
CIRCLE
  5
3B1
330
17
100
AcDbEntity
  8
FLOOR_1_PAINTINGS
 62
1
100
AcDbCircle
 10
3554.5
 20
2163.3563999999997
 30
0.0
 40
50.0
  0
TEXT
  5
3B2
330
17
100
AcDbEntity
  8
FLOOR_1_PAINTINGS
 62
1
100
AcDbText
 10
3554.5
 20
2263.3563999999997
 30
0.0
 40
100.0
  1
1_0152
100
AcDbText
  0
CIRCLE
  5
3B3
330
17
100
AcDbEntity
  8
FLOOR_1_PAINTINGS
 62
1
100
AcDbCircle
 10
3554.5
 20
2163.3563999999997
 30
0.0
 40
50.0
  0
TEXT
  5
3B4
330
17
100
AcDbEntity
  8
FLOOR_1_PAINTINGS
 62
1
100
AcDbText
 10
3554.5
 20
2263.3563999999997
 30
0.0
 40
100.0
  1
1_0150
100
AcDbText
  0
LINE
  5
3B5
330
17
100
AcDbEntity
  8
FLOOR_1_WALLS
 62
6
100
AcDbLine
 10
3574.0
 20
221.83791
 30
0.0
 11
4567.0
 21
221.83791
 31
0.0
  0
CIRCLE
  5
3B6
330
17
100
AcDbEntity
  8
FLOOR_1_PAINTINGS
 62
1
100
AcDbCircle
 10
3574.0
 20
221.83791
 30
0.0
 40
50.0
  0
TEXT
  5
3B7
330
17
100
AcDbEntity
  8
FLOOR_1_PAINTINGS
 62
1
100
AcDbText
 10
3574.0
 20
321.83790999999997
 30
0.0
 40
100.0
  1
1_5775
100
AcDbText
  0
CIRCLE
  5
3B8
330
17
100
AcDbEntity
  8
FLOOR_1_PAINTINGS
 62
1
100
AcDbCircle
 10
3574.0
 20
221.83791
 30
0.0
 40
50.0
  0
TEXT
  5
3B9
330
17
100
AcDbEntity
  8
FLOOR_1_PAINTINGS
 62
1
100
AcDbText
 10
3574.0
 20
321.83790999999997
 30
0.0
 40
100.0
  1
1_0016
100
AcDbText
  0
LINE
  5
3BA
330
17
100
AcDbEntity
  8
FLOOR_1_WALLS
 62
6
100
AcDbLine
 10
3576.5
 20
186.33791
 30
0.0
 11
3576.5
 21
224.33792
 31
0.0
  0
LINE
  5
3BB
330
17
100
AcDbEntity
  8
FLOOR_1_WALLS
 62
6
100
AcDbLine
 10
3582.9362
 20
2472.8533
 30
0.0
 11
3604.9362
 21
2472.8533
 31
0.0
  0
LINE
  5
3BC
330
17
100
AcDbEntity
  8
FLOOR_1_WALLS
 62
6
100
AcDbLine
 10
3585.4362
 20
2470.3533
 30
0.0
 11
3585.4362
 21
2823.3533
 31
0.0
  0
CIRCLE
  5
3BD
330
17
100
AcDbEntity
  8
FLOOR_1_PAINTINGS
 62
1
100
AcDbCircle
 10
3585.4362
 20
2470.3533
 30
0.0
 40
50.0
  0
TEXT
  5
3BE
330
17
100
AcDbEntity
  8
FLOOR_1_PAINTINGS
 62
1
100
AcDbText
 10
3585.4362
 20
2570.3533
 30
0.0
 40
100.0
  1
1_0199
100
AcDbText
  0
CIRCLE
  5
3BF
330
17
100
AcDbEntity
  8
FLOOR_1_PAINTINGS
 62
1
100
AcDbCircle
 10
3585.4362
 20
2470.3533
 30
0.0
 40
50.0
  0
TEXT
  5
3C0
330
17
100
AcDbEntity
  8
FLOOR_1_PAINTINGS
 62
1
100
AcDbText
 10
3585.4362
 20
2570.3533
 30
0.0
 40
100.0
  1
1_0197
100
AcDbText
  0
LINE
  5
3C1
330
17
100
AcDbEntity
  8
FLOOR_1_WALLS
 62
6
100
AcDbLine
 10
3599.5
 20
664.35641
 30
0.0
 11
3599.5
 21
687.35641
 31
0.0
  0
LINE
  5
3C2
330
17
100
AcDbEntity
  8
FLOOR_1_WALLS
 62
6
100
AcDbLine
 10
3997.9362
 20
2472.8533
 30
0.0
 11
4019.9362
 21
2472.8533
 31
0.0
  0
LINE
  5
3C3
330
17
100
AcDbEntity
  8
FLOOR_1_WALLS
 62
6
100
AcDbLine
 10
4017.4362
 20
2823.3533
 30
0.0
 11
4017.4362
 21
2470.3533
 31
0.0
  0
CIRCLE
  5
3C4
330
17
100
AcDbEntity
  8
FLOOR_1_PAINTINGS
 62
1
100
AcDbCircle
 10
4017.4362
 20
2823.3533
 30
0.0
 40
50.0
  0
TEXT
  5
3C5
330
17
100
AcDbEntity
  8
FLOOR_1_PAINTINGS
 62
1
100
AcDbText
 10
4017.4362
 20
2923.3533
 30
0.0
 40
100.0
  1
1_5901
100
AcDbText
  0
LINE
  5
3C6
330
17
100
AcDbEntity
  8
FLOOR_1_WALLS
 62
6
100
AcDbLine
 10
4642.0
 20
2825.8378
 30
0.0
 11
4020.0
 21
2825.8378
 31
0.0
  0
CIRCLE
  5
3C7
330
17
100
AcDbEntity
  8
FLOOR_1_PAINTINGS
 62
1
100
AcDbCircle
 10
4642.0
 20
2825.8378
 30
0.0
 40
50.0
  0
TEXT
  5
3C8
330
17
100
AcDbEntity
  8
FLOOR_1_PAINTINGS
 62
1
100
AcDbText
 10
4642.0
 20
2925.8378
 30
0.0
 40
100.0
  1
1_0053
100
AcDbText
  0
LINE
  5
3C9
330
17
100
AcDbEntity
  8
FLOOR_1_WALLS
 62
6
100
AcDbLine
 10
4020.5
 20
2190.3564
 30
0.0
 11
4020.5
 21
2206.3564
 31
0.0
  0
LINE
  5
3CA
330
17
100
AcDbEntity
  8
FLOOR_1_WALLS
 62
6
100
AcDbLine
 10
3542.0
 20
2203.8564
 30
0.0
 11
4023.0
 21
2203.8564
 31
0.0
  0
CIRCLE
  5
3CB
330
17
100
AcDbEntity
  8
FLOOR_1_PAINTINGS
 62
1
100
AcDbCircle
 10
3542.0
 20
2203.8564
 30
0.0
 40
50.0
  0
TEXT
  5
3CC
330
17
100
AcDbEntity
  8
FLOOR_1_PAINTINGS
 62
1
100
AcDbText
 10
3542.0
 20
2303.8564
 30
0.0
 40
100.0
  1
1_0133
100
AcDbText
  0
CIRCLE
  5
3CD
330
17
100
AcDbEntity
  8
FLOOR_1_PAINTINGS
 62
1
100
AcDbCircle
 10
3542.0
 20
2203.8564
 30
0.0
 40
50.0
  0
TEXT
  5
3CE
330
17
100
AcDbEntity
  8
FLOOR_1_PAINTINGS
 62
1
100
AcDbText
 10
3542.0
 20
2303.8564
 30
0.0
 40
100.0
  1
1_0131
100
AcDbText
  0
LINE
  5
3CF
330
17
100
AcDbEntity
  8
FLOOR_1_WALLS
 62
6
100
AcDbLine
 10
4023.0
 20
2192.8564
 30
0.0
 11
3542.0
 21
2192.8564
 31
0.0
  0
CIRCLE
  5
3D0
330
17
100
AcDbEntity
  8
FLOOR_1_PAINTINGS
 62
1
100
AcDbCircle
 10
4023.0
 20
2192.8564
 30
0.0
 40
50.0
  0
TEXT
  5
3D1
330
17
100
AcDbEntity
  8
FLOOR_1_PAINTINGS
 62
1
100
AcDbText
 10
4023.0
 20
2292.8564
 30
0.0
 40
100.0
  1
1_5905
100
AcDbText
  0
CIRCLE
  5
3D2
330
17
100
AcDbEntity
  8
FLOOR_1_PAINTINGS
 62
1
100
AcDbCircle
 10
4023.0
 20
2192.8564
 30
0.0
 40
50.0
  0
TEXT
  5
3D3
330
17
100
AcDbEntity
  8
FLOOR_1_PAINTINGS
 62
1
100
AcDbText
 10
4023.0
 20
2292.8564
 30
0.0
 40
100.0
  1
1_0158
100
AcDbText
  0
LINE
  5
3D4
330
17
100
AcDbEntity
  8
FLOOR_1_WALLS
 62
6
100
AcDbLine
 10
4142.5
 20
664.35641
 30
0.0
 11
4142.5
 21
687.35641
 31
0.0
  0
LINE
  5
3D5
330
17
100
AcDbEntity
  8
FLOOR_1_WALLS
 62
6
100
AcDbLine
 10
4145.0
 20
684.85641
 30
0.0
 11
3597.0
 21
684.85641
 31
0.0
  0
LINE
  5
3D6
330
17
100
AcDbEntity
  8
FLOOR_1_WALLS
 62
6
100
AcDbLine
 10
4145.0
 20
666.85641
 30
0.0
 11
3597.0
 21
666.85641
 31
0.0
  0
CIRCLE
  5
3D7
330
17
100
AcDbEntity
  8
FLOOR_1_PAINTINGS
 62
1
100
AcDbCircle
 10
4145.0
 20
666.85641
 30
0.0
 40
50.0
  0
TEXT
  5
3D8
330
17
100
AcDbEntity
  8
FLOOR_1_PAINTINGS
 62
1
100
AcDbText
 10
4145.0
 20
766.85641
 30
0.0
 40
100.0
  1
1_5779
100
AcDbText
  0
CIRCLE
  5
3D9
330
17
100
AcDbEntity
  8
FLOOR_1_PAINTINGS
 62
1
100
AcDbCircle
 10
4145.0
 20
666.85641
 30
0.0
 40
50.0
  0
TEXT
  5
3DA
330
17
100
AcDbEntity
  8
FLOOR_1_PAINTINGS
 62
1
100
AcDbText
 10
4145.0
 20
766.85641
 30
0.0
 40
100.0
  1
1_5777
100
AcDbText
  0
LINE
  5
3DB
330
17
100
AcDbEntity
  8
FLOOR_1_WALLS
 62
6
100
AcDbLine
 10
4564.5
 20
186.33791
 30
0.0
 11
4564.5
 21
224.33792
 31
0.0
  0
LINE
  5
3DC
330
17
100
AcDbEntity
  8
FLOOR_1_WALLS
 62
6
100
AcDbLine
 10
4567.0
 20
183.78391
 30
0.0
 11
4591.0
 21
183.78391
 31
0.0
  0
LINE
  5
3DD
330
17
100
AcDbEntity
  8
FLOOR_1_WALLS
 62
6
100
AcDbLine
 10
4590.9362
 20
892.85339
 30
0.0
 11
4617.9362
 21
892.85339
 31
0.0
  0
LINE
  5
3DE
330
17
100
AcDbEntity
  8
FLOOR_1_WALLS
 62
6
100
AcDbLine
 10
4593.4362
 20
186.35339
 30
0.0
 11
4593.4362
 21
895.35339
 31
0.0
  0
CIRCLE
  5
3DF
330
17
100
AcDbEntity
  8
FLOOR_1_PAINTINGS
 62
1
100
AcDbCircle
 10
4593.4362
 20
186.35339
 30
0.0
 40
50.0
  0
TEXT
  5
3E0
330
17
100
AcDbEntity
  8
FLOOR_1_PAINTINGS
 62
1
100
AcDbText
 10
4593.4362
 20
286.35339
 30
0.0
 40
100.0
  1
1_5781
100
AcDbText
  0
CIRCLE
  5
3E1
330
17
100
AcDbEntity
  8
FLOOR_1_PAINTINGS
 62
1
100
AcDbCircle
 10
4593.4362
 20
186.35339
 30
0.0
 40
50.0
  0
TEXT
  5
3E2
330
17
100
AcDbEntity
  8
FLOOR_1_PAINTINGS
 62
1
100
AcDbText
 10
4593.4362
 20
286.35339
 30
0.0
 40
100.0
  1
1_5783
100
AcDbText
  0
CIRCLE
  5
3E3
330
17
100
AcDbEntity
  8
FLOOR_1_PAINTINGS
 62
1
100
AcDbCircle
 10
4593.4362
 20
186.35339
 30
0.0
 40
50.0
  0
TEXT
  5
3E4
330
17
100
AcDbEntity
  8
FLOOR_1_PAINTINGS
 62
1
100
AcDbText
 10
4593.4362
 20
286.35339
 30
0.0
 40
100.0
  1
1_5785
100
AcDbText
  0
CIRCLE
  5
3E5
330
17
100
AcDbEntity
  8
FLOOR_1_PAINTINGS
 62
1
100
AcDbCircle
 10
4593.4362
 20
186.35339
 30
0.0
 40
50.0
  0
TEXT
  5
3E6
330
17
100
AcDbEntity
  8
FLOOR_1_PAINTINGS
 62
1
100
AcDbText
 10
4593.4362
 20
286.35339
 30
0.0
 40
100.0
  1
1_5787
100
AcDbText
  0
CIRCLE
  5
3E7
330
17
100
AcDbEntity
  8
FLOOR_1_PAINTINGS
 62
1
100
AcDbCircle
 10
4593.4362
 20
186.35339
 30
0.0
 40
50.0
  0
TEXT
  5
3E8
330
17
100
AcDbEntity
  8
FLOOR_1_PAINTINGS
 62
1
100
AcDbText
 10
4593.4362
 20
286.35339
 30
0.0
 40
100.0
  1
1_0014
100
AcDbText
  0
LINE
  5
3E9
330
17
100
AcDbEntity
  8
FLOOR_1_WALLS
 62
6
100
AcDbLine
 10
4608.0
 20
1926.8564
 30
0.0
 11
4624.0
 21
1926.8564
 31
0.0
  0
LINE
  5
3EA
330
17
100
AcDbEntity
  8
FLOOR_1_WALLS
 62
6
100
AcDbLine
 10
4608.0
 20
2161.8564
 30
0.0
 11
4624.0
 21
2161.8564
 31
0.0
  0
LINE
  5
3EB
330
17
100
AcDbEntity
  8
FLOOR_1_WALLS
 62
6
100
AcDbLine
 10
4610.5
 20
1924.3564
 30
0.0
 11
4610.5
 21
2164.3563999999997
 31
0.0
  0
CIRCLE
  5
3EC
330
17
100
AcDbEntity
  8
FLOOR_1_PAINTINGS
 62
1
100
AcDbCircle
 10
4610.5
 20
1924.3564
 30
0.0
 40
50.0
  0
TEXT
  5
3ED
330
17
100
AcDbEntity
  8
FLOOR_1_PAINTINGS
 62
1
100
AcDbText
 10
4610.5
 20
2024.3564
 30
0.0
 40
100.0
  1
1_0141
100
AcDbText
  0
LINE
  5
3EE
330
17
100
AcDbEntity
  8
FLOOR_1_WALLS
 62
6
100
AcDbLine
 10
4610.5
 20
2190.3564
 30
0.0
 11
4610.5
 21
2206.3564
 31
0.0
  0
LINE
  5
3EF
330
17
100
AcDbEntity
  8
FLOOR_1_WALLS
 62
6
100
AcDbLine
 10
4615.4362
 20
895.35339
 30
0.0
 11
4615.4362
 21
841.35339
 31
0.0
  0
LINE
  5
3F0
330
17
100
AcDbEntity
  8
FLOOR_1_WALLS
 62
6
100
AcDbLine
 10
4618.0
 20
838.83792
 30
0.0
 11
5655.0
 21
838.83792
 31
0.0
  0
LINE
  5
3F1
330
17
100
AcDbEntity
  8
FLOOR_1_WALLS
 62
6
100
AcDbLine
 10
4621.5
 20
2164.3563999999997
 30
0.0
 11
4621.5
 21
1924.3564
 31
0.0
  0
CIRCLE
  5
3F2
330
17
100
AcDbEntity
  8
FLOOR_1_PAINTINGS
 62
1
100
AcDbCircle
 10
4621.5
 20
2164.3563999999997
 30
0.0
 40
50.0
  0
TEXT
  5
3F3
330
17
100
AcDbEntity
  8
FLOOR_1_PAINTINGS
 62
1
100
AcDbText
 10
4621.5
 20
2264.3563999999997
 30
0.0
 40
100.0
  1
1_5907
100
AcDbText
  0
LINE
  5
3F4
330
17
100
AcDbEntity
  8
FLOOR_1_WALLS
 62
6
100
AcDbLine
 10
4641.9362
 20
2472.8533
 30
0.0
 11
4663.9362
 21
2472.8533
 31
0.0
  0
LINE
  5
3F5
330
17
100
AcDbEntity
  8
FLOOR_1_WALLS
 62
6
100
AcDbLine
 10
4644.4362
 20
2470.3533
 30
0.0
 11
4644.4362
 21
2823.3533
 31
0.0
  0
CIRCLE
  5
3F6
330
17
100
AcDbEntity
  8
FLOOR_1_PAINTINGS
 62
1
100
AcDbCircle
 10
4644.4362
 20
2470.3533
 30
0.0
 40
50.0
  0
TEXT
  5
3F7
330
17
100
AcDbEntity
  8
FLOOR_1_PAINTINGS
 62
1
100
AcDbText
 10
4644.4362
 20
2570.3533
 30
0.0
 40
100.0
  1
1_5899
100
AcDbText
  0
LINE
  5
3F8
330
17
100
AcDbEntity
  8
FLOOR_1_WALLS
 62
6
100
AcDbLine
 10
4896.5
 20
1585.3378
 30
0.0
 11
4896.5
 21
1752.3378
 31
0.0
  0
LINE
  5
3F9
330
17
100
AcDbEntity
  8
FLOOR_1_WALLS
 62
6
100
AcDbLine
 10
4899.0
 20
1582.8378
 30
0.0
 11
5381.0
 21
1582.8378
 31
0.0
  0
LINE
  5
3FA
330
17
100
AcDbEntity
  8
FLOOR_1_WALLS
 62
6
100
AcDbLine
 10
4937.0
 20
1437.8378
 30
0.0
 11
5386.0
 21
1437.8378
 31
0.0
  0
LINE
  5
3FB
330
17
100
AcDbEntity
  8
FLOOR_1_WALLS
 62
6
100
AcDbLine
 10
5056.9362
 20
2472.8533
 30
0.0
 11
5078.9362
 21
2472.8533
 31
0.0
  0
LINE
  5
3FC
330
17
100
AcDbEntity
  8
FLOOR_1_WALLS
 62
6
100
AcDbLine
 10
5076.4362
 20
2823.3533
 30
0.0
 11
5076.4362
 21
2470.3533
 31
0.0
  0
CIRCLE
  5
3FD
330
17
100
AcDbEntity
  8
FLOOR_1_PAINTINGS
 62
1
100
AcDbCircle
 10
5076.4362
 20
2823.3533
 30
0.0
 40
50.0
  0
TEXT
  5
3FE
330
17
100
AcDbEntity
  8
FLOOR_1_PAINTINGS
 62
1
100
AcDbText
 10
5076.4362
 20
2923.3533
 30
0.0
 40
100.0
  1
1_0062
100
AcDbText
  0
LINE
  5
3FF
330
17
100
AcDbEntity
  8
FLOOR_1_WALLS
 62
6
100
AcDbLine
 10
5687.0
 20
2825.8378
 30
0.0
 11
5079.0
 21
2825.8378
 31
0.0
  0
CIRCLE
  5
400
330
17
100
AcDbEntity
  8
FLOOR_1_PAINTINGS
 62
1
100
AcDbCircle
 10
5687.0
 20
2825.8378
 30
0.0
 40
50.0
  0
TEXT
  5
401
330
17
100
AcDbEntity
  8
FLOOR_1_PAINTINGS
 62
1
100
AcDbText
 10
5687.0
 20
2925.8378
 30
0.0
 40
100.0
  1
1_0060
100
AcDbText
  0
LINE
  5
402
330
17
100
AcDbEntity
  8
FLOOR_1_WALLS
 62
6
100
AcDbLine
 10
5086.5
 20
2190.3564
 30
0.0
 11
5086.5
 21
2206.3564
 31
0.0
  0
LINE
  5
403
330
17
100
AcDbEntity
  8
FLOOR_1_WALLS
 62
6
100
AcDbLine
 10
4608.0
 20
2203.8564
 30
0.0
 11
5089.0
 21
2203.8564
 31
0.0
  0
CIRCLE
  5
404
330
17
100
AcDbEntity
  8
FLOOR_1_PAINTINGS
 62
1
100
AcDbCircle
 10
4608.0
 20
2203.8564
 30
0.0
 40
50.0
  0
TEXT
  5
405
330
17
100
AcDbEntity
  8
FLOOR_1_PAINTINGS
 62
1
100
AcDbText
 10
4608.0
 20
2303.8564
 30
0.0
 40
100.0
  1
1_0124
100
AcDbText
  0
LINE
  5
406
330
17
100
AcDbEntity
  8
FLOOR_1_WALLS
 62
6
100
AcDbLine
 10
5089.0
 20
2192.8564
 30
0.0
 11
4608.0
 21
2192.8564
 31
0.0
  0
CIRCLE
  5
407
330
17
100
AcDbEntity
  8
FLOOR_1_PAINTINGS
 62
1
100
AcDbCircle
 10
5089.0
 20
2192.8564
 30
0.0
 40
50.0
  0
TEXT
  5
408
330
17
100
AcDbEntity
  8
FLOOR_1_PAINTINGS
 62
1
100
AcDbText
 10
5089.0
 20
2292.8564
 30
0.0
 40
100.0
  1
1_0074
100
AcDbText
  0
LINE
  5
409
330
17
100
AcDbEntity
  8
FLOOR_1_WALLS
 62
6
100
AcDbLine
 10
5386.0
 20
1437.8378
 30
0.0
 11
5718.0
 21
1437.8378
 31
0.0
  0
LINE
  5
40A
330
17
100
AcDbEntity
  8
FLOOR_1_WALLS
 62
6
100
AcDbLine
 10
5654.9362
 20
892.85339
 30
0.0
 11
5899.9362
 21
892.85339
 31
0.0
  0
LINE
  5
40B
330
17
100
AcDbEntity
  8
FLOOR_1_WALLS
 62
6
100
AcDbLine
 10
5657.5
 20
841.33792
 30
0.0
 11
5657.5
 21
895.33792
 31
0.0
  0
LINE
  5
40C
330
17
100
AcDbEntity
  8
FLOOR_1_WALLS
 62
6
100
AcDbLine
 10
5678.5
 20
871.35339
 30
0.0
 11
5678.5
 21
392.33792
 31
0.0
  0
CIRCLE
  5
40D
330
17
100
AcDbEntity
  8
FLOOR_1_PAINTINGS
 62
1
100
AcDbCircle
 10
5678.5
 20
871.35339
 30
0.0
 40
50.0
  0
TEXT
  5
40E
330
17
100
AcDbEntity
  8
FLOOR_1_PAINTINGS
 62
1
100
AcDbText
 10
5678.5
 20
971.35339
 30
0.0
 40
100.0
  1
1_0987
100
AcDbText
  0
CIRCLE
  5
40F
330
17
100
AcDbEntity
  8
FLOOR_1_PAINTINGS
 62
1
100
AcDbCircle
 10
5678.5
 20
871.35339
 30
0.0
 40
50.0
  0
TEXT
  5
410
330
17
100
AcDbEntity
  8
FLOOR_1_PAINTINGS
 62
1
100
AcDbText
 10
5678.5
 20
971.35339
 30
0.0
 40
100.0
  1
1_0985
100
AcDbText
  0
LINE
  5
411
330
17
100
AcDbEntity
  8
FLOOR_1_WALLS
 62
6
100
AcDbLine
 10
5680.9362
 20
873.85339
 30
0.0
 11
5899.9362
 21
873.85339
 31
0.0
  0
LINE
  5
412
330
17
100
AcDbEntity
  8
FLOOR_1_WALLS
 62
6
100
AcDbLine
 10
5681.0
 20
389.83792
 30
0.0
 11
6604.0
 21
389.83792
 31
0.0
  0
CIRCLE
  5
413
330
17
100
AcDbEntity
  8
FLOOR_1_PAINTINGS
 62
1
100
AcDbCircle
 10
5681.0
 20
389.83792
 30
0.0
 40
50.0
  0
TEXT
  5
414
330
17
100
AcDbEntity
  8
FLOOR_1_PAINTINGS
 62
1
100
AcDbText
 10
5681.0
 20
489.83792
 30
0.0
 40
100.0
  1
1_0983
100
AcDbText
  0
CIRCLE
  5
415
330
17
100
AcDbEntity
  8
FLOOR_1_PAINTINGS
 62
1
100
AcDbCircle
 10
5681.0
 20
389.83792
 30
0.0
 40
50.0
  0
TEXT
  5
416
330
17
100
AcDbEntity
  8
FLOOR_1_PAINTINGS
 62
1
100
AcDbText
 10
5681.0
 20
489.83792
 30
0.0
 40
100.0
  1
1_0981
100
AcDbText
  0
CIRCLE
  5
417
330
17
100
AcDbEntity
  8
FLOOR_1_PAINTINGS
 62
1
100
AcDbCircle
 10
5681.0
 20
389.83792
 30
0.0
 40
50.0
  0
TEXT
  5
418
330
17
100
AcDbEntity
  8
FLOOR_1_PAINTINGS
 62
1
100
AcDbText
 10
5681.0
 20
489.83792
 30
0.0
 40
100.0
  1
1_0978
100
AcDbText
  0
LINE
  5
419
330
17
100
AcDbEntity
  8
FLOOR_1_WALLS
 62
6
100
AcDbLine
 10
5686.9362
 20
1748.8533
 30
0.0
 11
5717.9362
 21
1748.8533
 31
0.0
  0
LINE
  5
41A
330
17
100
AcDbEntity
  8
FLOOR_1_WALLS
 62
6
100
AcDbLine
 10
5689.4362
 20
2202.3533
 30
0.0
 11
5689.4362
 21
1746.3533000000002
 31
0.0
  0
LINE
  5
41B
330
17
100
AcDbEntity
  8
FLOOR_1_WALLS
 62
6
100
AcDbLine
 10
5689.5
 20
2202.3378
 30
0.0
 11
5689.5
 21
2823.3378
 31
0.0
  0
LINE
  5
41C
330
17
100
AcDbEntity
  8
FLOOR_1_WALLS
 62
6
100
AcDbLine
 10
5720.5
 20
1440.3378
 30
0.0
 11
5720.5
 21
1746.3378
 31
0.0
  0
LINE
  5
41D
330
17
100
AcDbEntity
  8
FLOOR_1_WALLS
 62
6
100
AcDbLine
 10
5897.4362
 20
871.35339
 30
0.0
 11
5897.4362
 21
895.35339
 31
0.0
  0
LINE
  5
41E
330
17
100
AcDbEntity
  8
FLOOR_1_WALLS
 62
6
100
AcDbLine
 10
6115.5
 20
1076.3379
 30
0.0
 11
6115.5
 21
1193.3378
 31
0.0
  0
LINE
  5
41F
330
17
100
AcDbEntity
  8
FLOOR_1_WALLS
 62
6
100
AcDbLine
 10
6118.0
 20
1195.8378
 30
0.0
 11
6150.0
 21
1195.8378
 31
0.0
  0
LINE
  5
420
330
17
100
AcDbEntity
  8
FLOOR_1_WALLS
 62
6
100
AcDbLine
 10
6150.4984
 20
1193.6492
 30
0.0
 11
6067.3013
 21
1884.9886000000001
 31
0.0
  0
LINE
  5
421
330
17
100
AcDbEntity
  8
FLOOR_1_WALLS
 62
6
100
AcDbLine
 10
6447.0
 20
886.83792
 30
0.0
 11
6485.0
 21
886.83792
 31
0.0
  0
LINE
  5
422
330
17
100
AcDbEntity
  8
FLOOR_1_WALLS
 62
6
100
AcDbLine
 10
6449.5
 20
1885.3746
 30
0.0
 11
6449.5
 21
1198.3564000000001
 31
0.0
  0
LINE
  5
423
330
17
100
AcDbEntity
  8
FLOOR_1_WALLS
 62
6
100
AcDbLine
 10
6449.5
 20
884.33792
 30
0.0
 11
6449.5
 21
1198.3378
 31
0.0
  0
LINE
  5
424
330
17
100
AcDbEntity
  8
FLOOR_1_WALLS
 62
6
100
AcDbLine
 10
6487.4362
 20
502.35339
 30
0.0
 11
6487.4362
 21
884.35339
 31
0.0
  0
CIRCLE
  5
425
330
17
100
AcDbEntity
  8
FLOOR_1_PAINTINGS
 62
1
100
AcDbCircle
 10
6487.4362
 20
502.35339
 30
0.0
 40
50.0
  0
TEXT
  5
426
330
17
100
AcDbEntity
  8
FLOOR_1_PAINTINGS
 62
1
100
AcDbText
 10
6487.4362
 20
602.35339
 30
0.0
 40
100.0
  1
1_0976
100
AcDbText
  0
LINE
  5
427
330
17
100
AcDbEntity
  8
FLOOR_1_WALLS
 62
6
100
AcDbLine
 10
6497.4362
 20
502.35339
 30
0.0
 11
6497.4362
 21
657.35339
 31
0.0
  0
LINE
  5
428
330
17
100
AcDbEntity
  8
FLOOR_1_WALLS
 62
6
100
AcDbLine
 10
6499.9362
 20
504.85339
 30
0.0
 11
6484.9362
 21
504.85339
 31
0.0
  0
LINE
  5
429
330
17
100
AcDbEntity
  8
FLOOR_1_WALLS
 62
6
100
AcDbLine
 10
6606.5
 20
552.35641
 30
0.0
 11
6606.5
 21
657.35641
 31
0.0
  0
LINE
  5
42A
330
17
100
AcDbEntity
  8
FLOOR_1_WALLS
 62
6
100
AcDbLine
 10
6606.5
 20
392.33792
 30
0.0
 11
6606.5
 21
552.3379199999999
 31
0.0
  0
LINE
  5
42D
330
17
100
AcDbEntity
  8
FLOOR_2_WALLS
 62
2
100
AcDbLine
 10
2.5
 20
4926.1752
 30
0.0
 11
2.5
 21
4521.1752
 31
0.0
  0
LINE
  5
42E
330
17
100
AcDbEntity
  8
FLOOR_2_WALLS
 62
2
100
AcDbLine
 10
2.5
 20
4926.1674
 30
0.0
 11
2.5
 21
5052.1674
 31
0.0
  0
LINE
  5
42F
330
17
100
AcDbEntity
  8
FLOOR_2_WALLS
 62
2
100
AcDbLine
 10
2.5
 20
4395.1674
 30
0.0
 11
2.5
 21
4521.1674
 31
0.0
  0
LINE
  5
430
330
17
100
AcDbEntity
  8
FLOOR_2_WALLS
 62
2
100
AcDbLine
 10
42.5
 20
5764.1672
 30
0.0
 11
42.5
 21
5679.1672
 31
0.0
  0
CIRCLE
  5
431
330
17
100
AcDbEntity
  8
FLOOR_2_PAINTINGS
 62
1
100
AcDbCircle
 10
42.5
 20
5764.1672
 30
0.0
 40
50.0
  0
TEXT
  5
432
330
17
100
AcDbEntity
  8
FLOOR_2_PAINTINGS
 62
1
100
AcDbText
 10
42.5
 20
5864.1672
 30
0.0
 40
100.0
  1
2_2934
100
AcDbText
  0
LINE
  5
433
330
17
100
AcDbEntity
  8
FLOOR_2_WALLS
 62
2
100
AcDbLine
 10
42.5
 20
5521.1672
 30
0.0
 11
42.5
 21
5347.1672
 31
0.0
  0
CIRCLE
  5
434
330
17
100
AcDbEntity
  8
FLOOR_2_PAINTINGS
 62
1
100
AcDbCircle
 10
42.5
 20
5521.1672
 30
0.0
 40
50.0
  0
TEXT
  5
435
330
17
100
AcDbEntity
  8
FLOOR_2_PAINTINGS
 62
1
100
AcDbText
 10
42.5
 20
5621.1672
 30
0.0
 40
100.0
  1
2_2932
100
AcDbText
  0
LINE
  5
436
330
17
100
AcDbEntity
  8
FLOOR_2_WALLS
 62
2
100
AcDbLine
 10
42.5
 20
5189.1672
 30
0.0
 11
42.5
 21
5131.1672
 31
0.0
  0
LINE
  5
437
330
17
100
AcDbEntity
  8
FLOOR_2_WALLS
 62
2
100
AcDbLine
 10
574.0
 20
5049.6672
 30
0.0
 11
45.0
 21
5049.6672
 31
0.0
  0
CIRCLE
  5
438
330
17
100
AcDbEntity
  8
FLOOR_2_PAINTINGS
 62
1
100
AcDbCircle
 10
574.0
 20
5049.6672
 30
0.0
 40
50.0
  0
TEXT
  5
439
330
17
100
AcDbEntity
  8
FLOOR_2_PAINTINGS
 62
1
100
AcDbText
 10
574.0
 20
5149.6672
 30
0.0
 40
100.0
  1
2_2787
100
AcDbText
  0
LINE
  5
43A
330
17
100
AcDbEntity
  8
FLOOR_2_WALLS
 62
2
100
AcDbLine
 10
45.0
 20
5128.6672
 30
0.0
 11
574.0
 21
5128.6672
 31
0.0
  0
CIRCLE
  5
43B
330
17
100
AcDbEntity
  8
FLOOR_2_PAINTINGS
 62
1
100
AcDbCircle
 10
45.0
 20
5128.6672
 30
0.0
 40
50.0
  0
TEXT
  5
43C
330
17
100
AcDbEntity
  8
FLOOR_2_PAINTINGS
 62
1
100
AcDbText
 10
45.0
 20
5228.6672
 30
0.0
 40
100.0
  1
2_2930
100
AcDbText
  0
CIRCLE
  5
43D
330
17
100
AcDbEntity
  8
FLOOR_2_PAINTINGS
 62
1
100
AcDbCircle
 10
45.0
 20
5128.6672
 30
0.0
 40
50.0
  0
TEXT
  5
43E
330
17
100
AcDbEntity
  8
FLOOR_2_PAINTINGS
 62
1
100
AcDbText
 10
45.0
 20
5228.6672
 30
0.0
 40
100.0
  1
2_2928
100
AcDbText
  0
CIRCLE
  5
43F
330
17
100
AcDbEntity
  8
FLOOR_2_PAINTINGS
 62
1
100
AcDbCircle
 10
45.0
 20
5128.6672
 30
0.0
 40
50.0
  0
TEXT
  5
440
330
17
100
AcDbEntity
  8
FLOOR_2_PAINTINGS
 62
1
100
AcDbText
 10
45.0
 20
5228.6672
 30
0.0
 40
100.0
  1
2_2926
100
AcDbText
  0
LINE
  5
441
330
17
100
AcDbEntity
  8
FLOOR_2_WALLS
 62
2
100
AcDbLine
 10
45.0
 20
5766.6672
 30
0.0
 11
140.0
 21
5766.6672
 31
0.0
  0
LINE
  5
442
330
17
100
AcDbEntity
  8
FLOOR_2_WALLS
 62
2
100
AcDbLine
 10
118.5
 20
4931.1752
 30
0.0
 11
118.5
 21
4516.1752
 31
0.0
  0
LINE
  5
443
330
17
100
AcDbEntity
  8
FLOOR_2_WALLS
 62
2
100
AcDbLine
 10
126.0
 20
5049.6674
 30
0.0
 11
0.0
 21
5049.6674
 31
0.0
  0
LINE
  5
444
330
17
100
AcDbEntity
  8
FLOOR_2_WALLS
 62
2
100
AcDbLine
 10
126.0
 20
4397.6674
 30
0.0
 11
0.0
 21
4397.6674
 31
0.0
  0
LINE
  5
445
330
17
100
AcDbEntity
  8
FLOOR_2_WALLS
 62
2
100
AcDbLine
 10
532.0
 20
5766.7352
 30
0.0
 11
302.0
 21
5766.7352
 31
0.0
  0
CIRCLE
  5
446
330
17
100
AcDbEntity
  8
FLOOR_2_PAINTINGS
 62
1
100
AcDbCircle
 10
532.0
 20
5766.7352
 30
0.0
 40
50.0
  0
TEXT
  5
447
330
17
100
AcDbEntity
  8
FLOOR_2_PAINTINGS
 62
1
100
AcDbText
 10
532.0
 20
5866.7352
 30
0.0
 40
100.0
  1
2_2936
100
AcDbText
  0
LINE
  5
448
330
17
100
AcDbEntity
  8
FLOOR_2_WALLS
 62
2
100
AcDbLine
 10
398.0
 20
4933.6672
 30
0.0
 11
121.0
 21
4933.6672
 31
0.0
  0
LINE
  5
449
330
17
100
AcDbEntity
  8
FLOOR_2_WALLS
 62
2
100
AcDbLine
 10
571.5
 20
5131.1672
 30
0.0
 11
571.5
 21
5047.1672
 31
0.0
  0
LINE
  5
44A
330
17
100
AcDbEntity
  8
FLOOR_2_WALLS
 62
2
100
AcDbLine
 10
571.5
 20
4890.1672
 30
0.0
 11
571.5
 21
5052.1672
 31
0.0
  0
LINE
  5
44B
330
17
100
AcDbEntity
  8
FLOOR_2_WALLS
 62
2
100
AcDbLine
 10
126.0
 20
4397.6752
 30
0.0
 11
619.0
 21
4397.6752
 31
0.0
  0
CIRCLE
  5
44C
330
17
100
AcDbEntity
  8
FLOOR_2_PAINTINGS
 62
1
100
AcDbCircle
 10
126.0
 20
4397.6752
 30
0.0
 40
50.0
  0
TEXT
  5
44D
330
17
100
AcDbEntity
  8
FLOOR_2_PAINTINGS
 62
1
100
AcDbText
 10
126.0
 20
4497.6752
 30
0.0
 40
100.0
  1
2_2789
100
AcDbText
  0
LINE
  5
44E
330
17
100
AcDbEntity
  8
FLOOR_2_WALLS
 62
2
100
AcDbLine
 10
625.0
 20
4513.6672
 30
0.0
 11
121.0
 21
4513.6672
 31
0.0
  0
LINE
  5
44F
330
17
100
AcDbEntity
  8
FLOOR_2_WALLS
 62
2
100
AcDbLine
 10
627.5
 20
4895.1752
 30
0.0
 11
627.5
 21
4516.1752
 31
0.0
  0
LINE
  5
450
330
17
100
AcDbEntity
  8
FLOOR_2_WALLS
 62
2
100
AcDbLine
 10
630.0
 20
4892.6672
 30
0.0
 11
569.0
 21
4892.6672
 31
0.0
  0
LINE
  5
451
330
17
100
AcDbEntity
  8
FLOOR_2_WALLS
 62
2
100
AcDbLine
 10
694.0
 20
5766.7352
 30
0.0
 11
747.0
 21
5766.7352
 31
0.0
  0
LINE
  5
452
330
17
100
AcDbEntity
  8
FLOOR_2_WALLS
 62
2
100
AcDbLine
 10
703.5
 20
5132.1752
 30
0.0
 11
703.5
 21
5047.1752
 31
0.0
  0
LINE
  5
453
330
17
100
AcDbEntity
  8
FLOOR_2_WALLS
 62
2
100
AcDbLine
 10
740.0
 20
5017.6752
 30
0.0
 11
825.0
 21
5017.6752
 31
0.0
  0
LINE
  5
454
330
17
100
AcDbEntity
  8
FLOOR_2_WALLS
 62
2
100
AcDbLine
 10
740.0
 20
5049.6672
 30
0.0
 11
701.0
 21
5049.6672
 31
0.0
  0
LINE
  5
455
330
17
100
AcDbEntity
  8
FLOOR_2_WALLS
 62
2
100
AcDbLine
 10
742.5
 20
4890.1672
 30
0.0
 11
742.5
 21
4293.3622
 31
0.0
  0
LINE
  5
456
330
17
100
AcDbEntity
  8
FLOOR_2_WALLS
 62
2
100
AcDbLine
 10
742.5
 20
4395.1674
 30
0.0
 11
742.5
 21
4521.1674
 31
0.0
  0
LINE
  5
457
330
17
100
AcDbEntity
  8
FLOOR_2_WALLS
 62
2
100
AcDbLine
 10
742.5
 20
5015.1752
 30
0.0
 11
742.5
 21
5047.1752
 31
0.0
  0
LINE
  5
458
330
17
100
AcDbEntity
  8
FLOOR_2_WALLS
 62
2
100
AcDbLine
 10
745.0
 20
4397.6674
 30
0.0
 11
619.0
 21
4397.6674
 31
0.0
  0
LINE
  5
459
330
17
100
AcDbEntity
  8
FLOOR_2_WALLS
 62
2
100
AcDbLine
 10
747.0
 20
5674.6752
 30
0.0
 11
824.0
 21
5674.6752
 31
0.0
  0
LINE
  5
45A
330
17
100
AcDbEntity
  8
FLOOR_2_WALLS
 62
2
100
AcDbLine
 10
747.0
 20
5529.6752
 30
0.0
 11
824.0
 21
5529.6752
 31
0.0
  0
LINE
  5
45B
330
17
100
AcDbEntity
  8
FLOOR_2_WALLS
 62
2
100
AcDbLine
 10
747.0
 20
5129.6752
 30
0.0
 11
701.0
 21
5129.6752
 31
0.0
  0
LINE
  5
45C
330
17
100
AcDbEntity
  8
FLOOR_2_WALLS
 62
2
100
AcDbLine
 10
749.5
 20
5764.1752
 30
0.0
 11
749.5
 21
5672.1752
 31
0.0
  0
LINE
  5
45D
330
17
100
AcDbEntity
  8
FLOOR_2_WALLS
 62
2
100
AcDbLine
 10
749.5
 20
5132.1752
 30
0.0
 11
749.5
 21
5532.1752
 31
0.0
  0
CIRCLE
  5
45E
330
17
100
AcDbEntity
  8
FLOOR_2_PAINTINGS
 62
1
100
AcDbCircle
 10
749.5
 20
5132.1752
 30
0.0
 40
50.0
  0
TEXT
  5
45F
330
17
100
AcDbEntity
  8
FLOOR_2_PAINTINGS
 62
1
100
AcDbText
 10
749.5
 20
5232.1752
 30
0.0
 40
100.0
  1
2_2924
100
AcDbText
  0
CIRCLE
  5
460
330
17
100
AcDbEntity
  8
FLOOR_2_PAINTINGS
 62
1
100
AcDbCircle
 10
749.5
 20
5132.1752
 30
0.0
 40
50.0
  0
TEXT
  5
461
330
17
100
AcDbEntity
  8
FLOOR_2_PAINTINGS
 62
1
100
AcDbText
 10
749.5
 20
5232.1752
 30
0.0
 40
100.0
  1
2_2922
100
AcDbText
  0
LINE
  5
462
330
17
100
AcDbEntity
  8
FLOOR_2_WALLS
 62
2
100
AcDbLine
 10
821.5
 20
5764.1752
 30
0.0
 11
821.5
 21
5672.1752
 31
0.0
  0
LINE
  5
463
330
17
100
AcDbEntity
  8
FLOOR_2_WALLS
 62
2
100
AcDbLine
 10
821.5
 20
5119.1752
 30
0.0
 11
821.5
 21
5532.1752
 31
0.0
  0
LINE
  5
464
330
17
100
AcDbEntity
  8
FLOOR_2_WALLS
 62
2
100
AcDbLine
 10
821.5
 20
5532.1672
 30
0.0
 11
821.5
 21
5119.1672
 31
0.0
  0
CIRCLE
  5
465
330
17
100
AcDbEntity
  8
FLOOR_2_PAINTINGS
 62
1
100
AcDbCircle
 10
821.5
 20
5532.1672
 30
0.0
 40
50.0
  0
TEXT
  5
466
330
17
100
AcDbEntity
  8
FLOOR_2_PAINTINGS
 62
1
100
AcDbText
 10
821.5
 20
5632.1672
 30
0.0
 40
100.0
  1
2_0417
100
AcDbText
  0
LINE
  5
467
330
17
100
AcDbEntity
  8
FLOOR_2_WALLS
 62
2
100
AcDbLine
 10
822.5
 20
5015.1752
 30
0.0
 11
822.5
 21
5049.1752
 31
0.0
  0
LINE
  5
468
330
17
100
AcDbEntity
  8
FLOOR_2_WALLS
 62
2
100
AcDbLine
 10
822.5
 20
4890.1672
 30
0.0
 11
822.5
 21
4293.3622
 31
0.0
  0
CIRCLE
  5
469
330
17
100
AcDbEntity
  8
FLOOR_2_PAINTINGS
 62
1
100
AcDbCircle
 10
822.5
 20
4890.1672
 30
0.0
 40
50.0
  0
TEXT
  5
46A
330
17
100
AcDbEntity
  8
FLOOR_2_PAINTINGS
 62
1
100
AcDbText
 10
822.5
 20
4990.1672
 30
0.0
 40
100.0
  1
2_0527
100
AcDbText
  0
LINE
  5
46B
330
17
100
AcDbEntity
  8
FLOOR_2_WALLS
 62
2
100
AcDbLine
 10
824.0
 20
5116.6752
 30
0.0
 11
1998.0
 21
5116.6752
 31
0.0
  0
CIRCLE
  5
46C
330
17
100
AcDbEntity
  8
FLOOR_2_PAINTINGS
 62
1
100
AcDbCircle
 10
824.0
 20
5116.6752
 30
0.0
 40
50.0
  0
TEXT
  5
46D
330
17
100
AcDbEntity
  8
FLOOR_2_PAINTINGS
 62
1
100
AcDbText
 10
824.0
 20
5216.6752
 30
0.0
 40
100.0
  1
2_0422
100
AcDbText
  0
CIRCLE
  5
46E
330
17
100
AcDbEntity
  8
FLOOR_2_PAINTINGS
 62
1
100
AcDbCircle
 10
824.0
 20
5116.6752
 30
0.0
 40
50.0
  0
TEXT
  5
46F
330
17
100
AcDbEntity
  8
FLOOR_2_PAINTINGS
 62
1
100
AcDbText
 10
824.0
 20
5216.6752
 30
0.0
 40
100.0
  1
2_2904
100
AcDbText
  0
CIRCLE
  5
470
330
17
100
AcDbEntity
  8
FLOOR_2_PAINTINGS
 62
1
100
AcDbCircle
 10
824.0
 20
5116.6752
 30
0.0
 40
50.0
  0
TEXT
  5
471
330
17
100
AcDbEntity
  8
FLOOR_2_PAINTINGS
 62
1
100
AcDbText
 10
824.0
 20
5216.6752
 30
0.0
 40
100.0
  1
2_2902
100
AcDbText
  0
LINE
  5
472
330
17
100
AcDbEntity
  8
FLOOR_2_WALLS
 62
2
100
AcDbLine
 10
928.0
 20
5766.6672
 30
0.0
 11
824.0
 21
5766.6672
 31
0.0
  0
CIRCLE
  5
473
330
17
100
AcDbEntity
  8
FLOOR_2_PAINTINGS
 62
1
100
AcDbCircle
 10
928.0
 20
5766.6672
 30
0.0
 40
50.0
  0
TEXT
  5
474
330
17
100
AcDbEntity
  8
FLOOR_2_PAINTINGS
 62
1
100
AcDbText
 10
928.0
 20
5866.6672
 30
0.0
 40
100.0
  1
2_2913
100
AcDbText
  0
LINE
  5
475
330
17
100
AcDbEntity
  8
FLOOR_2_WALLS
 62
2
100
AcDbLine
 10
825.0
 20
4295.8622
 30
0.0
 11
740.0
 21
4295.8622
 31
0.0
  0
LINE
  5
476
330
17
100
AcDbEntity
  8
FLOOR_2_WALLS
 62
2
100
AcDbLine
 10
825.0
 20
4887.6672
 30
0.0
 11
740.0
 21
4887.6672
 31
0.0
  0
LINE
  5
477
330
17
100
AcDbEntity
  8
FLOOR_2_WALLS
 62
2
100
AcDbLine
 10
925.0
 20
4473.6542
 30
0.0
 11
2725.0
 21
4473.6542
 31
0.0
  0
CIRCLE
  5
478
330
17
100
AcDbEntity
  8
FLOOR_2_PAINTINGS
 62
1
100
AcDbCircle
 10
925.0
 20
4473.6542
 30
0.0
 40
50.0
  0
TEXT
  5
479
330
17
100
AcDbEntity
  8
FLOOR_2_PAINTINGS
 62
1
100
AcDbText
 10
925.0
 20
4573.6542
 30
0.0
 40
100.0
  1
2_2797
100
AcDbText
  0
CIRCLE
  5
47A
330
17
100
AcDbEntity
  8
FLOOR_2_PAINTINGS
 62
1
100
AcDbCircle
 10
925.0
 20
4473.6542
 30
0.0
 40
50.0
  0
TEXT
  5
47B
330
17
100
AcDbEntity
  8
FLOOR_2_PAINTINGS
 62
1
100
AcDbText
 10
925.0
 20
4573.6542
 30
0.0
 40
100.0
  1
2_2799
100
AcDbText
  0
CIRCLE
  5
47C
330
17
100
AcDbEntity
  8
FLOOR_2_PAINTINGS
 62
1
100
AcDbCircle
 10
925.0
 20
4473.6542
 30
0.0
 40
50.0
  0
TEXT
  5
47D
330
17
100
AcDbEntity
  8
FLOOR_2_PAINTINGS
 62
1
100
AcDbText
 10
925.0
 20
4573.6542
 30
0.0
 40
100.0
  1
2_2801
100
AcDbText
  0
CIRCLE
  5
47E
330
17
100
AcDbEntity
  8
FLOOR_2_PAINTINGS
 62
1
100
AcDbCircle
 10
925.0
 20
4473.6542
 30
0.0
 40
50.0
  0
TEXT
  5
47F
330
17
100
AcDbEntity
  8
FLOOR_2_PAINTINGS
 62
1
100
AcDbText
 10
925.0
 20
4573.6542
 30
0.0
 40
100.0
  1
2_2803
100
AcDbText
  0
CIRCLE
  5
480
330
17
100
AcDbEntity
  8
FLOOR_2_PAINTINGS
 62
1
100
AcDbCircle
 10
925.0
 20
4473.6542
 30
0.0
 40
50.0
  0
TEXT
  5
481
330
17
100
AcDbEntity
  8
FLOOR_2_PAINTINGS
 62
1
100
AcDbText
 10
925.0
 20
4573.6542
 30
0.0
 40
100.0
  1
2_2812
100
AcDbText
  0
CIRCLE
  5
482
330
17
100
AcDbEntity
  8
FLOOR_2_PAINTINGS
 62
1
100
AcDbCircle
 10
925.0
 20
4473.6542
 30
0.0
 40
50.0
  0
TEXT
  5
483
330
17
100
AcDbEntity
  8
FLOOR_2_PAINTINGS
 62
1
100
AcDbText
 10
925.0
 20
4573.6542
 30
0.0
 40
100.0
  1
2_2814
100
AcDbText
  0
CIRCLE
  5
484
330
17
100
AcDbEntity
  8
FLOOR_2_PAINTINGS
 62
1
100
AcDbCircle
 10
925.0
 20
4473.6542
 30
0.0
 40
50.0
  0
TEXT
  5
485
330
17
100
AcDbEntity
  8
FLOOR_2_PAINTINGS
 62
1
100
AcDbText
 10
925.0
 20
4573.6542
 30
0.0
 40
100.0
  1
2_2816
100
AcDbText
  0
CIRCLE
  5
486
330
17
100
AcDbEntity
  8
FLOOR_2_PAINTINGS
 62
1
100
AcDbCircle
 10
925.0
 20
4473.6542
 30
0.0
 40
50.0
  0
TEXT
  5
487
330
17
100
AcDbEntity
  8
FLOOR_2_PAINTINGS
 62
1
100
AcDbText
 10
925.0
 20
4573.6542
 30
0.0
 40
100.0
  1
2_2818
100
AcDbText
  0
CIRCLE
  5
488
330
17
100
AcDbEntity
  8
FLOOR_2_PAINTINGS
 62
1
100
AcDbCircle
 10
925.0
 20
4473.6542
 30
0.0
 40
50.0
  0
TEXT
  5
489
330
17
100
AcDbEntity
  8
FLOOR_2_PAINTINGS
 62
1
100
AcDbText
 10
925.0
 20
4573.6542
 30
0.0
 40
100.0
  1
2_2822
100
AcDbText
  0
CIRCLE
  5
48A
330
17
100
AcDbEntity
  8
FLOOR_2_PAINTINGS
 62
1
100
AcDbCircle
 10
925.0
 20
4473.6542
 30
0.0
 40
50.0
  0
TEXT
  5
48B
330
17
100
AcDbEntity
  8
FLOOR_2_PAINTINGS
 62
1
100
AcDbText
 10
925.0
 20
4573.6542
 30
0.0
 40
100.0
  1
2_2824
100
AcDbText
  0
CIRCLE
  5
48C
330
17
100
AcDbEntity
  8
FLOOR_2_PAINTINGS
 62
1
100
AcDbCircle
 10
925.0
 20
4473.6542
 30
0.0
 40
50.0
  0
TEXT
  5
48D
330
17
100
AcDbEntity
  8
FLOOR_2_PAINTINGS
 62
1
100
AcDbText
 10
925.0
 20
4573.6542
 30
0.0
 40
100.0
  1
2_2827
100
AcDbText
  0
CIRCLE
  5
48E
330
17
100
AcDbEntity
  8
FLOOR_2_PAINTINGS
 62
1
100
AcDbCircle
 10
925.0
 20
4473.6542
 30
0.0
 40
50.0
  0
TEXT
  5
48F
330
17
100
AcDbEntity
  8
FLOOR_2_PAINTINGS
 62
1
100
AcDbText
 10
925.0
 20
4573.6542
 30
0.0
 40
100.0
  1
2_2829
100
AcDbText
  0
LINE
  5
490
330
17
100
AcDbEntity
  8
FLOOR_2_WALLS
 62
2
100
AcDbLine
 10
927.5
 20
4476.1672
 30
0.0
 11
927.5
 21
4293.3622
 31
0.0
  0
LINE
  5
491
330
17
100
AcDbEntity
  8
FLOOR_2_WALLS
 62
2
100
AcDbLine
 10
1317.0
 20
5766.6672
 30
0.0
 11
1090.0
 21
5766.6672
 31
0.0
  0
CIRCLE
  5
492
330
17
100
AcDbEntity
  8
FLOOR_2_PAINTINGS
 62
1
100
AcDbCircle
 10
1317.0
 20
5766.6672
 30
0.0
 40
50.0
  0
TEXT
  5
493
330
17
100
AcDbEntity
  8
FLOOR_2_PAINTINGS
 62
1
100
AcDbText
 10
1317.0
 20
5866.6672
 30
0.0
 40
100.0
  1
2_2915
100
AcDbText
  0
LINE
  5
494
330
17
100
AcDbEntity
  8
FLOOR_2_WALLS
 62
2
100
AcDbLine
 10
1465.0
 20
4841.6752
 30
0.0
 11
1480.0
 21
4841.6752
 31
0.0
  0
LINE
  5
495
330
17
100
AcDbEntity
  8
FLOOR_2_WALLS
 62
2
100
AcDbLine
 10
1465.0
 20
4681.6752
 30
0.0
 11
1480.0
 21
4681.6752
 31
0.0
  0
LINE
  5
496
330
17
100
AcDbEntity
  8
FLOOR_2_WALLS
 62
2
100
AcDbLine
 10
1467.5
 20
4679.1752
 30
0.0
 11
1467.5
 21
4844.1752
 31
0.0
  0
CIRCLE
  5
497
330
17
100
AcDbEntity
  8
FLOOR_2_PAINTINGS
 62
1
100
AcDbCircle
 10
1467.5
 20
4679.1752
 30
0.0
 40
50.0
  0
TEXT
  5
498
330
17
100
AcDbEntity
  8
FLOOR_2_PAINTINGS
 62
1
100
AcDbText
 10
1467.5
 20
4779.1752
 30
0.0
 40
100.0
  1
2_2809
100
AcDbText
  0
LINE
  5
499
330
17
100
AcDbEntity
  8
FLOOR_2_WALLS
 62
2
100
AcDbLine
 10
1477.5
 20
4679.1752
 30
0.0
 11
1477.5
 21
4844.1752
 31
0.0
  0
LINE
  5
49A
330
17
100
AcDbEntity
  8
FLOOR_2_WALLS
 62
2
100
AcDbLine
 10
1477.5
 20
4679.1752
 30
0.0
 11
1477.5
 21
4844.1752
 31
0.0
  0
LINE
  5
49B
330
17
100
AcDbEntity
  8
FLOOR_2_WALLS
 62
2
100
AcDbLine
 10
1710.0
 20
5766.6672
 30
0.0
 11
1479.0
 21
5766.6672
 31
0.0
  0
CIRCLE
  5
49C
330
17
100
AcDbEntity
  8
FLOOR_2_PAINTINGS
 62
1
100
AcDbCircle
 10
1710.0
 20
5766.6672
 30
0.0
 40
50.0
  0
TEXT
  5
49D
330
17
100
AcDbEntity
  8
FLOOR_2_PAINTINGS
 62
1
100
AcDbText
 10
1710.0
 20
5866.6672
 30
0.0
 40
100.0
  1
2_2917
100
AcDbText
  0
LINE
  5
49E
330
17
100
AcDbEntity
  8
FLOOR_2_WALLS
 62
2
100
AcDbLine
 10
1618.0
 20
4768.6752
 30
0.0
 11
1692.0
 21
4768.6752
 31
0.0
  0
CIRCLE
  5
49F
330
17
100
AcDbEntity
  8
FLOOR_2_PAINTINGS
 62
1
100
AcDbCircle
 10
1618.0
 20
4768.6752
 30
0.0
 40
50.0
  0
TEXT
  5
4A0
330
17
100
AcDbEntity
  8
FLOOR_2_PAINTINGS
 62
1
100
AcDbText
 10
1618.0
 20
4868.6752
 30
0.0
 40
100.0
  1
2_2860
100
AcDbText
  0
CIRCLE
  5
4A1
330
17
100
AcDbEntity
  8
FLOOR_2_PAINTINGS
 62
1
100
AcDbCircle
 10
1618.0
 20
4768.6752
 30
0.0
 40
50.0
  0
TEXT
  5
4A2
330
17
100
AcDbEntity
  8
FLOOR_2_PAINTINGS
 62
1
100
AcDbText
 10
1618.0
 20
4868.6752
 30
0.0
 40
100.0
  1
2_2859
100
AcDbText
  0
LINE
  5
4A3
330
17
100
AcDbEntity
  8
FLOOR_2_WALLS
 62
2
100
AcDbLine
 10
1692.0
 20
4753.6752
 30
0.0
 11
1618.0
 21
4753.6752
 31
0.0
  0
CIRCLE
  5
4A4
330
17
100
AcDbEntity
  8
FLOOR_2_PAINTINGS
 62
1
100
AcDbCircle
 10
1692.0
 20
4753.6752
 30
0.0
 40
50.0
  0
TEXT
  5
4A5
330
17
100
AcDbEntity
  8
FLOOR_2_PAINTINGS
 62
1
100
AcDbText
 10
1692.0
 20
4853.6752
 30
0.0
 40
100.0
  1
2_2864
100
AcDbText
  0
CIRCLE
  5
4A6
330
17
100
AcDbEntity
  8
FLOOR_2_PAINTINGS
 62
1
100
AcDbCircle
 10
1692.0
 20
4753.6752
 30
0.0
 40
50.0
  0
TEXT
  5
4A7
330
17
100
AcDbEntity
  8
FLOOR_2_PAINTINGS
 62
1
100
AcDbText
 10
1692.0
 20
4853.6752
 30
0.0
 40
100.0
  1
2_2863
100
AcDbText
  0
LINE
  5
4A8
330
17
100
AcDbEntity
  8
FLOOR_2_WALLS
 62
2
100
AcDbLine
 10
1620.5
 20
4751.1752
 30
0.0
 11
1620.5
 21
4771.1752
 31
0.0
  0
LINE
  5
4A9
330
17
100
AcDbEntity
  8
FLOOR_2_WALLS
 62
2
100
AcDbLine
 10
1689.5
 20
4751.1752
 30
0.0
 11
1689.5
 21
4771.1752
 31
0.0
  0
LINE
  5
4AA
330
17
100
AcDbEntity
  8
FLOOR_2_WALLS
 62
2
100
AcDbLine
 10
1872.0
 20
5766.6672
 30
0.0
 11
1998.0
 21
5766.6672
 31
0.0
  0
LINE
  5
4AB
330
17
100
AcDbEntity
  8
FLOOR_2_WALLS
 62
2
100
AcDbLine
 10
1998.0
 20
5671.6752
 30
0.0
 11
2076.0
 21
5671.6752
 31
0.0
  0
LINE
  5
4AC
330
17
100
AcDbEntity
  8
FLOOR_2_WALLS
 62
2
100
AcDbLine
 10
1998.0
 20
5526.6752
 30
0.0
 11
2076.0
 21
5526.6752
 31
0.0
  0
LINE
  5
4AD
330
17
100
AcDbEntity
  8
FLOOR_2_WALLS
 62
2
100
AcDbLine
 10
2000.5
 20
5764.1752
 30
0.0
 11
2000.5
 21
5669.1752
 31
0.0
  0
LINE
  5
4AE
330
17
100
AcDbEntity
  8
FLOOR_2_WALLS
 62
2
100
AcDbLine
 10
2000.5
 20
5119.1752
 30
0.0
 11
2000.5
 21
5529.1752
 31
0.0
  0
CIRCLE
  5
4AF
330
17
100
AcDbEntity
  8
FLOOR_2_PAINTINGS
 62
1
100
AcDbCircle
 10
2000.5
 20
5119.1752
 30
0.0
 40
50.0
  0
TEXT
  5
4B0
330
17
100
AcDbEntity
  8
FLOOR_2_PAINTINGS
 62
1
100
AcDbText
 10
2000.5
 20
5219.1752
 30
0.0
 40
100.0
  1
2_2900
100
AcDbText
  0
LINE
  5
4B1
330
17
100
AcDbEntity
  8
FLOOR_2_WALLS
 62
2
100
AcDbLine
 10
2073.5
 20
5764.1752
 30
0.0
 11
2073.5
 21
5669.1752
 31
0.0
  0
LINE
  5
4B2
330
17
100
AcDbEntity
  8
FLOOR_2_WALLS
 62
2
100
AcDbLine
 10
2073.5
 20
5529.1752
 30
0.0
 11
2073.5
 21
5119.1752
 31
0.0
  0
CIRCLE
  5
4B3
330
17
100
AcDbEntity
  8
FLOOR_2_PAINTINGS
 62
1
100
AcDbCircle
 10
2073.5
 20
5529.1752
 30
0.0
 40
50.0
  0
TEXT
  5
4B4
330
17
100
AcDbEntity
  8
FLOOR_2_PAINTINGS
 62
1
100
AcDbText
 10
2073.5
 20
5629.1752
 30
0.0
 40
100.0
  1
2_2880
100
AcDbText
  0
CIRCLE
  5
4B5
330
17
100
AcDbEntity
  8
FLOOR_2_PAINTINGS
 62
1
100
AcDbCircle
 10
2073.5
 20
5529.1752
 30
0.0
 40
50.0
  0
TEXT
  5
4B6
330
17
100
AcDbEntity
  8
FLOOR_2_PAINTINGS
 62
1
100
AcDbText
 10
2073.5
 20
5629.1752
 30
0.0
 40
100.0
  1
2_2878
100
AcDbText
  0
CIRCLE
  5
4B7
330
17
100
AcDbEntity
  8
FLOOR_2_PAINTINGS
 62
1
100
AcDbCircle
 10
2073.5
 20
5529.1752
 30
0.0
 40
50.0
  0
TEXT
  5
4B8
330
17
100
AcDbEntity
  8
FLOOR_2_PAINTINGS
 62
1
100
AcDbText
 10
2073.5
 20
5629.1752
 30
0.0
 40
100.0
  1
2_2875
100
AcDbText
  0
LINE
  5
4B9
330
17
100
AcDbEntity
  8
FLOOR_2_WALLS
 62
2
100
AcDbLine
 10
2076.0
 20
5766.6672
 30
0.0
 11
2103.0
 21
5766.6672
 31
0.0
  0
LINE
  5
4BA
330
17
100
AcDbEntity
  8
FLOOR_2_WALLS
 62
2
100
AcDbLine
 10
2492.0
 20
5766.6672
 30
0.0
 11
2265.0
 21
5766.6672
 31
0.0
  0
CIRCLE
  5
4BB
330
17
100
AcDbEntity
  8
FLOOR_2_PAINTINGS
 62
1
100
AcDbCircle
 10
2492.0
 20
5766.6672
 30
0.0
 40
50.0
  0
TEXT
  5
4BC
330
17
100
AcDbEntity
  8
FLOOR_2_PAINTINGS
 62
1
100
AcDbText
 10
2492.0
 20
5866.6672
 30
0.0
 40
100.0
  1
2_0465
100
AcDbText
  0
CIRCLE
  5
4BD
330
17
100
AcDbEntity
  8
FLOOR_2_PAINTINGS
 62
1
100
AcDbCircle
 10
2492.0
 20
5766.6672
 30
0.0
 40
50.0
  0
TEXT
  5
4BE
330
17
100
AcDbEntity
  8
FLOOR_2_PAINTINGS
 62
1
100
AcDbText
 10
2492.0
 20
5866.6672
 30
0.0
 40
100.0
  1
2_0464
100
AcDbText
  0
CIRCLE
  5
4BF
330
17
100
AcDbEntity
  8
FLOOR_2_PAINTINGS
 62
1
100
AcDbCircle
 10
2492.0
 20
5766.6672
 30
0.0
 40
50.0
  0
TEXT
  5
4C0
330
17
100
AcDbEntity
  8
FLOOR_2_PAINTINGS
 62
1
100
AcDbText
 10
2492.0
 20
5866.6672
 30
0.0
 40
100.0
  1
2_0467
100
AcDbText
  0
CIRCLE
  5
4C1
330
17
100
AcDbEntity
  8
FLOOR_2_PAINTINGS
 62
1
100
AcDbCircle
 10
2492.0
 20
5766.6672
 30
0.0
 40
50.0
  0
TEXT
  5
4C2
330
17
100
AcDbEntity
  8
FLOOR_2_PAINTINGS
 62
1
100
AcDbText
 10
2492.0
 20
5866.6672
 30
0.0
 40
100.0
  1
2_0466
100
AcDbText
  0
CIRCLE
  5
4C3
330
17
100
AcDbEntity
  8
FLOOR_2_PAINTINGS
 62
1
100
AcDbCircle
 10
2492.0
 20
5766.6672
 30
0.0
 40
50.0
  0
TEXT
  5
4C4
330
17
100
AcDbEntity
  8
FLOOR_2_PAINTINGS
 62
1
100
AcDbText
 10
2492.0
 20
5866.6672
 30
0.0
 40
100.0
  1
2_0459
100
AcDbText
  0
LINE
  5
4C5
330
17
100
AcDbEntity
  8
FLOOR_2_WALLS
 62
2
100
AcDbLine
 10
2500.5
 20
5119.1752
 30
0.0
 11
2500.5
 21
5049.1752
 31
0.0
  0
LINE
  5
4C6
330
17
100
AcDbEntity
  8
FLOOR_2_WALLS
 62
2
100
AcDbLine
 10
2076.0
 20
5116.6752
 30
0.0
 11
2503.0
 21
5116.6752
 31
0.0
  0
CIRCLE
  5
4C7
330
17
100
AcDbEntity
  8
FLOOR_2_PAINTINGS
 62
1
100
AcDbCircle
 10
2076.0
 20
5116.6752
 30
0.0
 40
50.0
  0
TEXT
  5
4C8
330
17
100
AcDbEntity
  8
FLOOR_2_PAINTINGS
 62
1
100
AcDbText
 10
2076.0
 20
5216.6752
 30
0.0
 40
100.0
  1
2_2873
100
AcDbText
  0
CIRCLE
  5
4C9
330
17
100
AcDbEntity
  8
FLOOR_2_PAINTINGS
 62
1
100
AcDbCircle
 10
2076.0
 20
5116.6752
 30
0.0
 40
50.0
  0
TEXT
  5
4CA
330
17
100
AcDbEntity
  8
FLOOR_2_PAINTINGS
 62
1
100
AcDbText
 10
2076.0
 20
5216.6752
 30
0.0
 40
100.0
  1
2_2871
100
AcDbText
  0
CIRCLE
  5
4CB
330
17
100
AcDbEntity
  8
FLOOR_2_PAINTINGS
 62
1
100
AcDbCircle
 10
2076.0
 20
5116.6752
 30
0.0
 40
50.0
  0
TEXT
  5
4CC
330
17
100
AcDbEntity
  8
FLOOR_2_PAINTINGS
 62
1
100
AcDbText
 10
2076.0
 20
5216.6752
 30
0.0
 40
100.0
  1
2_2869
100
AcDbText
  0
LINE
  5
4CD
330
17
100
AcDbEntity
  8
FLOOR_2_WALLS
 62
2
100
AcDbLine
 10
2503.0
 20
5051.6672
 30
0.0
 11
825.0
 21
5051.6672
 31
0.0
  0
CIRCLE
  5
4CE
330
17
100
AcDbEntity
  8
FLOOR_2_PAINTINGS
 62
1
100
AcDbCircle
 10
2503.0
 20
5051.6672
 30
0.0
 40
50.0
  0
TEXT
  5
4CF
330
17
100
AcDbEntity
  8
FLOOR_2_PAINTINGS
 62
1
100
AcDbText
 10
2503.0
 20
5151.6672
 30
0.0
 40
100.0
  1
2_2836
100
AcDbText
  0
CIRCLE
  5
4D0
330
17
100
AcDbEntity
  8
FLOOR_2_PAINTINGS
 62
1
100
AcDbCircle
 10
2503.0
 20
5051.6672
 30
0.0
 40
50.0
  0
TEXT
  5
4D1
330
17
100
AcDbEntity
  8
FLOOR_2_PAINTINGS
 62
1
100
AcDbText
 10
2503.0
 20
5151.6672
 30
0.0
 40
100.0
  1
2_2838
100
AcDbText
  0
CIRCLE
  5
4D2
330
17
100
AcDbEntity
  8
FLOOR_2_PAINTINGS
 62
1
100
AcDbCircle
 10
2503.0
 20
5051.6672
 30
0.0
 40
50.0
  0
TEXT
  5
4D3
330
17
100
AcDbEntity
  8
FLOOR_2_PAINTINGS
 62
1
100
AcDbText
 10
2503.0
 20
5151.6672
 30
0.0
 40
100.0
  1
2_2840
100
AcDbText
  0
CIRCLE
  5
4D4
330
17
100
AcDbEntity
  8
FLOOR_2_PAINTINGS
 62
1
100
AcDbCircle
 10
2503.0
 20
5051.6672
 30
0.0
 40
50.0
  0
TEXT
  5
4D5
330
17
100
AcDbEntity
  8
FLOOR_2_PAINTINGS
 62
1
100
AcDbText
 10
2503.0
 20
5151.6672
 30
0.0
 40
100.0
  1
2_2842
100
AcDbText
  0
CIRCLE
  5
4D6
330
17
100
AcDbEntity
  8
FLOOR_2_PAINTINGS
 62
1
100
AcDbCircle
 10
2503.0
 20
5051.6672
 30
0.0
 40
50.0
  0
TEXT
  5
4D7
330
17
100
AcDbEntity
  8
FLOOR_2_PAINTINGS
 62
1
100
AcDbText
 10
2503.0
 20
5151.6672
 30
0.0
 40
100.0
  1
2_2846
100
AcDbText
  0
CIRCLE
  5
4D8
330
17
100
AcDbEntity
  8
FLOOR_2_PAINTINGS
 62
1
100
AcDbCircle
 10
2503.0
 20
5051.6672
 30
0.0
 40
50.0
  0
TEXT
  5
4D9
330
17
100
AcDbEntity
  8
FLOOR_2_PAINTINGS
 62
1
100
AcDbText
 10
2503.0
 20
5151.6672
 30
0.0
 40
100.0
  1
2_2848
100
AcDbText
  0
CIRCLE
  5
4DA
330
17
100
AcDbEntity
  8
FLOOR_2_PAINTINGS
 62
1
100
AcDbCircle
 10
2503.0
 20
5051.6672
 30
0.0
 40
50.0
  0
TEXT
  5
4DB
330
17
100
AcDbEntity
  8
FLOOR_2_PAINTINGS
 62
1
100
AcDbText
 10
2503.0
 20
5151.6672
 30
0.0
 40
100.0
  1
2_2850
100
AcDbText
  0
CIRCLE
  5
4DC
330
17
100
AcDbEntity
  8
FLOOR_2_PAINTINGS
 62
1
100
AcDbCircle
 10
2503.0
 20
5051.6672
 30
0.0
 40
50.0
  0
TEXT
  5
4DD
330
17
100
AcDbEntity
  8
FLOOR_2_PAINTINGS
 62
1
100
AcDbText
 10
2503.0
 20
5151.6672
 30
0.0
 40
100.0
  1
2_2852
100
AcDbText
  0
CIRCLE
  5
4DE
330
17
100
AcDbEntity
  8
FLOOR_2_PAINTINGS
 62
1
100
AcDbCircle
 10
2503.0
 20
5051.6672
 30
0.0
 40
50.0
  0
TEXT
  5
4DF
330
17
100
AcDbEntity
  8
FLOOR_2_PAINTINGS
 62
1
100
AcDbText
 10
2503.0
 20
5151.6672
 30
0.0
 40
100.0
  1
2_2854
100
AcDbText
  0
LINE
  5
4E0
330
17
100
AcDbEntity
  8
FLOOR_2_WALLS
 62
2
100
AcDbLine
 10
2757.0
 20
5766.6672
 30
0.0
 11
2654.0
 21
5766.6672
 31
0.0
  0
CIRCLE
  5
4E1
330
17
100
AcDbEntity
  8
FLOOR_2_PAINTINGS
 62
1
100
AcDbCircle
 10
2757.0
 20
5766.6672
 30
0.0
 40
50.0
  0
TEXT
  5
4E2
330
17
100
AcDbEntity
  8
FLOOR_2_PAINTINGS
 62
1
100
AcDbText
 10
2757.0
 20
5866.6672
 30
0.0
 40
100.0
  1
2_2888
100
AcDbText
  0
LINE
  5
4E3
330
17
100
AcDbEntity
  8
FLOOR_2_WALLS
 62
2
100
AcDbLine
 10
2727.5
 20
4471.1672
 30
0.0
 11
2727.5
 21
4442.1672
 31
0.0
  0
LINE
  5
4E4
330
17
100
AcDbEntity
  8
FLOOR_2_WALLS
 62
2
100
AcDbLine
 10
2730.0
 20
4439.6672
 30
0.0
 11
2757.0
 21
4439.6672
 31
0.0
  0
LINE
  5
4E5
330
17
100
AcDbEntity
  8
FLOOR_2_WALLS
 62
2
100
AcDbLine
 10
2759.486
 20
5022.1672
 30
0.0
 11
2759.486
 21
5205.1672
 31
0.0
  0
CIRCLE
  5
4E6
330
17
100
AcDbEntity
  8
FLOOR_2_PAINTINGS
 62
1
100
AcDbCircle
 10
2759.486
 20
5022.1672
 30
0.0
 40
50.0
  0
TEXT
  5
4E7
330
17
100
AcDbEntity
  8
FLOOR_2_PAINTINGS
 62
1
100
AcDbText
 10
2759.486
 20
5122.1672
 30
0.0
 40
100.0
  1
2_2867
100
AcDbText
  0
LINE
  5
4E8
330
17
100
AcDbEntity
  8
FLOOR_2_WALLS
 62
2
100
AcDbLine
 10
2759.5
 20
5764.1672
 30
0.0
 11
2759.5
 21
5696.1672
 31
0.0
  0
LINE
  5
4E9
330
17
100
AcDbEntity
  8
FLOOR_2_WALLS
 62
2
100
AcDbLine
 10
2759.5
 20
4531.1672
 30
0.0
 11
2759.5
 21
4442.1672
 31
0.0
  0
LINE
  5
4EA
330
17
100
AcDbEntity
  8
FLOOR_2_WALLS
 62
2
100
AcDbLine
 10
2759.5
 20
4685.1672
 30
0.0
 11
2759.5
 21
4868.1672
 31
0.0
  0
CIRCLE
  5
4EB
330
17
100
AcDbEntity
  8
FLOOR_2_PAINTINGS
 62
1
100
AcDbCircle
 10
2759.5
 20
4685.1672
 30
0.0
 40
50.0
  0
TEXT
  5
4EC
330
17
100
AcDbEntity
  8
FLOOR_2_PAINTINGS
 62
1
100
AcDbText
 10
2759.5
 20
4785.1672
 30
0.0
 40
100.0
  1
2_2831
100
AcDbText
  0
LINE
  5
4ED
330
17
100
AcDbEntity
  8
FLOOR_2_WALLS
 62
2
100
AcDbLine
 10
2759.5
 20
5359.1672
 30
0.0
 11
2759.5
 21
5542.1672
 31
0.0
  0
CIRCLE
  5
4EE
330
17
100
AcDbEntity
  8
FLOOR_2_PAINTINGS
 62
1
100
AcDbCircle
 10
2759.5
 20
5359.1672
 30
0.0
 40
50.0
  0
TEXT
  5
4EF
330
17
100
AcDbEntity
  8
FLOOR_2_PAINTINGS
 62
1
100
AcDbText
 10
2759.5
 20
5459.1672
 30
0.0
 40
100.0
  1
2_2890
100
AcDbText
  0
ENDSEC
  0
SECTION
  2
OBJECTS
  0
DICTIONARY
  5
A
330
0
100
AcDbDictionary
281
1
  3
ACAD_COLOR
350
B
  3
ACAD_GROUP
350
C
  3
ACAD_LAYOUT
350
D
  3
ACAD_MATERIAL
350
E
  3
ACAD_MLEADERSTYLE
350
F
  3
ACAD_MLINESTYLE
350
10
  3
ACAD_PLOTSETTINGS
350
11
  3
ACAD_PLOTSTYLENAME
350
12
  3
ACAD_SCALELIST
350
14
  3
ACAD_TABLESTYLE
350
15
  3
ACAD_VISUALSTYLE
350
16
  3
EZDXF_META
350
2D
  0
DICTIONARY
  5
B
330
A
100
AcDbDictionary
281
1
  0
DICTIONARY
  5
C
330
A
100
AcDbDictionary
281
1
  0
DICTIONARY
  5
D
330
A
100
AcDbDictionary
281
1
  3
Model
350
1A
  3
Layout1
350
1E
  0
DICTIONARY
  5
E
330
A
100
AcDbDictionary
281
1
  3
ByBlock
350
1F
  3
ByLayer
350
20
  3
Global
350
21
  0
DICTIONARY
  5
F
330
A
100
AcDbDictionary
281
1
  3
Standard
350
2C
  0
DICTIONARY
  5
10
330
A
100
AcDbDictionary
281
1
  3
Standard
350
22
  0
DICTIONARY
  5
11
330
A
100
AcDbDictionary
281
1
  0
ACDBDICTIONARYWDFLT
  5
12
330
A
100
AcDbDictionary
281
1
  3
Normal
350
13
100
AcDbDictionaryWithDefault
340
13
  0
ACDBPLACEHOLDER
  5
13
330
12
  0
DICTIONARY
  5
14
330
A
100
AcDbDictionary
281
1
  0
DICTIONARY
  5
15
330
A
100
AcDbDictionary
281
1
  0
DICTIONARY
  5
16
330
A
100
AcDbDictionary
281
1
  0
LAYOUT
  5
1A
330
D
100
AcDbPlotSettings
  1

  4
A3
  6

 40
7.5
 41
20.0
 42
7.5
 43
20.0
 44
420.0
 45
297.0
 46
0.0
 47
0.0
 48
0.0
 49
0.0
140
0.0
141
0.0
142
1.0
143
1.0
 70
1024
 72
1
 73
0
 74
5
  7

 75
16
 76
0
 77
2
 78
300
147
1.0
148
0.0
149
0.0
100
AcDbLayout
  1
Model
 70
1
 71
0
 10
0.0
 20
0.0
 11
420.0
 21
297.0
 12
0.0
 22
0.0
 32
0.0
 14
1e+20
 24
1e+20
 34
1e+20
 15
-1e+20
 25
-1e+20
 35
-1e+20
146
0.0
 13
0.0
 23
0.0
 33
0.0
 16
1.0
 26
0.0
 36
0.0
 17
0.0
 27
1.0
 37
0.0
 76
1
330
17
  0
LAYOUT
  5
1E
330
D
100
AcDbPlotSettings
  1

  4
A3
  6

 40
7.5
 41
20.0
 42
7.5
 43
20.0
 44
420.0
 45
297.0
 46
0.0
 47
0.0
 48
0.0
 49
0.0
140
0.0
141
0.0
142
1.0
143
1.0
 70
0
 72
1
 73
0
 74
5
  7

 75
16
 76
0
 77
2
 78
300
147
1.0
148
0.0
149
0.0
100
AcDbLayout
  1
Layout1
 70
1
 71
1
 10
0.0
 20
0.0
 11
420.0
 21
297.0
 12
0.0
 22
0.0
 32
0.0
 14
1e+20
 24
1e+20
 34
1e+20
 15
-1e+20
 25
-1e+20
 35
-1e+20
146
0.0
 13
0.0
 23
0.0
 33
0.0
 16
1.0
 26
0.0
 36
0.0
 17
0.0
 27
1.0
 37
0.0
 76
1
330
1B
  0
MATERIAL
  5
1F
102
{ACAD_REACTORS
330
E
102
}
330
E
100
AcDbMaterial
  1
ByBlock
  2

 70
0
 40
1.0
 71
1
 41
1.0
 91
-1023410177
 42
1.0
 72
1
  3

 73
1
 74
1
 75
1
 44
0.5
 73
0
 45
1.0
 46
1.0
 77
1
  4

 78
1
 79
1
170
1
 48
1.0
171
1
  6

172
1
173
1
174
1
140
1.0
141
1.0
175
1
  7

176
1
177
1
178
1
143
1.0
179
1
  8

270
1
271
1
272
1
145
1.0
146
1.0
273
1
  9

274
1
275
1
276
1
 42
1.0
 72
1
  3

 73
1
 74
1
 75
1
 94
63
  0
MATERIAL
  5
20
102
{ACAD_REACTORS
330
E
102
}
330
E
100
AcDbMaterial
  1
ByLayer
  2

 70
0
 40
1.0
 71
1
 41
1.0
 91
-1023410177
 42
1.0
 72
1
  3

 73
1
 74
1
 75
1
 44
0.5
 73
0
 45
1.0
 46
1.0
 77
1
  4

 78
1
 79
1
170
1
 48
1.0
171
1
  6

172
1
173
1
174
1
140
1.0
141
1.0
175
1
  7

176
1
177
1
178
1
143
1.0
179
1
  8

270
1
271
1
272
1
145
1.0
146
1.0
273
1
  9

274
1
275
1
276
1
 42
1.0
 72
1
  3

 73
1
 74
1
 75
1
 94
63
  0
MATERIAL
  5
21
102
{ACAD_REACTORS
330
E
102
}
330
E
100
AcDbMaterial
  1
Global
  2

 70
0
 40
1.0
 71
1
 41
1.0
 91
-1023410177
 42
1.0
 72
1
  3

 73
1
 74
1
 75
1
 44
0.5
 73
0
 45
1.0
 46
1.0
 77
1
  4

 78
1
 79
1
170
1
 48
1.0
171
1
  6

172
1
173
1
174
1
140
1.0
141
1.0
175
1
  7

176
1
177
1
178
1
143
1.0
179
1
  8

270
1
271
1
272
1
145
1.0
146
1.0
273
1
  9

274
1
275
1
276
1
 42
1.0
 72
1
  3

 73
1
 74
1
 75
1
 94
63
  0
MLINESTYLE
  5
22
102
{ACAD_REACTORS
330
10
102
}
330
10
100
AcDbMlineStyle
  2
Standard
 70
0
  3

 62
256
 51
90.0
 52
90.0
 71
2
 49
0.5
 62
256
  6
BYLAYER
 49
-0.5
 62
256
  6
BYLAYER
  0
MLEADERSTYLE
  5
2C
102
{ACAD_REACTORS
330
F
102
}
330
F
100
AcDbMLeaderStyle
179
2
170
2
171
1
172
0
 90
2
 40
0.0
 41
0.0
173
1
 91
-1056964608
 92
-2
290
1
 42
2.0
291
1
 43
8.0
  3
Standard
 44
4.0
300

342
29
174
1
175
1
176
0
178
1
 93
-1056964608
 45
4.0
292
0
297
0
 46
4.0
 94
-1056964608
 47
1.0
 49
1.0
140
1.0
294
1
141
0.0
177
0
142
1.0
295
0
296
0
143
3.75
271
0
272
9
273
9
  0
DICTIONARY
  5
2D
330
A
100
AcDbDictionary
280
1
281
1
  3
CREATED_BY_EZDXF
350
2E
  3
WRITTEN_BY_EZDXF
350
4F2
  0
DICTIONARYVAR
  5
2E
330
2D
100
DictionaryVariables
280
0
  1
1.4.3 @ 2026-01-06T15:33:54.422139+00:00
  0
DICTIONARYVAR
  5
4F2
330
2D
100
DictionaryVariables
280
0
  1
1.4.3 @ 2026-01-06T15:33:54.470449+00:00
  0
ENDSEC
  0
EOF
